<svg width="40" height="40" viewBox="0 0 40 40" fill="none" xmlns="http://www.w3.org/2000/svg">
<mask id="path-1-inside-1_5088_21350" fill="white">
<path fill-rule="evenodd" clip-rule="evenodd" d="M29.292 1.938L38.4912 19.119C38.9369 19.9915 39.097 21.1082 38.8123 22.0144L34.4211 37.4429C33.8791 39.3275 31.9417 40.408 30.0953 39.8555L3.55236 32.2857C1.70391 31.7335 0.645356 29.7598 1.18699 27.8779L5.70588 12.1432C6.02766 11.0674 6.73469 10.3082 7.49252 9.87369L24.3301 0.459816C26.1027 -0.53022 28.322 0.131144 29.292 1.938ZM22.3544 18.2444C22.3425 18.2611 22.3565 11.1111 22.3565 11.1111L19.0942 15.4808L19.0928 18.2102C19.0928 18.2102 16.5391 13.9009 13.5655 13.9036C9.65622 13.907 8.84466 16.9524 8.85012 22.644C8.85934 28.6179 10.0968 31.1125 13.744 31.1111C16.9582 31.107 19.1048 27.3605 19.1048 27.3605L19.1096 31.1064L22.3561 31.103L22.3558 23.0109L22.3803 22.9776C24.5929 19.9836 26.5793 17.2955 27.6613 17.2955H27.6614C27.6845 17.2955 29.0274 17.2951 29.0274 18.9595L29.0414 31.0986L32.2521 31.0992L32.2639 19.1611L32.2647 18.2743C32.2552 16.2712 30.7054 13.8907 27.8456 13.8924C25.4541 13.8924 24.0934 15.7488 22.6921 17.7597L22.3544 18.2444ZM11.9933 22.6392C11.9892 18.8581 12.1182 17.2887 13.6119 17.2867C15.5398 17.2863 18.5219 23.0686 18.5219 23.0686C18.5219 23.0686 15.5149 27.8947 13.6079 27.8967C12.2042 27.8967 11.9987 26.4231 11.9933 22.6392Z"/>
</mask>
<path fill-rule="evenodd" clip-rule="evenodd" d="M29.292 1.938L38.4912 19.119C38.9369 19.9915 39.097 21.1082 38.8123 22.0144L34.4211 37.4429C33.8791 39.3275 31.9417 40.408 30.0953 39.8555L3.55236 32.2857C1.70391 31.7335 0.645356 29.7598 1.18699 27.8779L5.70588 12.1432C6.02766 11.0674 6.73469 10.3082 7.49252 9.87369L24.3301 0.459816C26.1027 -0.53022 28.322 0.131144 29.292 1.938ZM22.3544 18.2444C22.3425 18.2611 22.3565 11.1111 22.3565 11.1111L19.0942 15.4808L19.0928 18.2102C19.0928 18.2102 16.5391 13.9009 13.5655 13.9036C9.65622 13.907 8.84466 16.9524 8.85012 22.644C8.85934 28.6179 10.0968 31.1125 13.744 31.1111C16.9582 31.107 19.1048 27.3605 19.1048 27.3605L19.1096 31.1064L22.3561 31.103L22.3558 23.0109L22.3803 22.9776C24.5929 19.9836 26.5793 17.2955 27.6613 17.2955H27.6614C27.6845 17.2955 29.0274 17.2951 29.0274 18.9595L29.0414 31.0986L32.2521 31.0992L32.2639 19.1611L32.2647 18.2743C32.2552 16.2712 30.7054 13.8907 27.8456 13.8924C25.4541 13.8924 24.0934 15.7488 22.6921 17.7597L22.3544 18.2444ZM11.9933 22.6392C11.9892 18.8581 12.1182 17.2887 13.6119 17.2867C15.5398 17.2863 18.5219 23.0686 18.5219 23.0686C18.5219 23.0686 15.5149 27.8947 13.6079 27.8967C12.2042 27.8967 11.9987 26.4231 11.9933 22.6392Z" fill="#F8FAFC"/>
<path d="M38.4912 19.119L38.96 18.8795L38.9552 18.8706L38.4912 19.119ZM29.292 1.938L29.756 1.68957L29.7558 1.68906L29.292 1.938ZM38.8123 22.0144L38.3102 21.8567L38.308 21.8635L38.3061 21.8704L38.8123 22.0144ZM34.4211 37.4429L34.9269 37.5884L34.9273 37.587L34.4211 37.4429ZM30.0953 39.8555L30.2462 39.3512L30.2396 39.3494L30.0953 39.8555ZM3.55236 32.2857L3.40171 32.79L3.40801 32.7918L3.55236 32.2857ZM1.18699 27.8779L1.69278 28.0235L1.69286 28.0232L1.18699 27.8779ZM5.70588 12.1432L5.20161 11.9924L5.20001 11.998L5.70588 12.1432ZM7.49252 9.87369L7.23566 9.41428L7.23071 9.41711L7.49252 9.87369ZM24.3301 0.459816L24.0734 0.000312413L24.0732 0.000425858L24.3301 0.459816ZM22.3565 11.1111L22.8828 11.1121L22.8859 9.52219L21.9347 10.7962L22.3565 11.1111ZM22.3544 18.2444L22.7819 18.5515L22.7863 18.5453L22.3544 18.2444ZM19.0942 15.4808L18.6725 15.1659L18.568 15.3059L18.5679 15.4805L19.0942 15.4808ZM19.0928 18.2102L18.6401 18.4785L19.6182 20.129L19.6192 18.2104L19.0928 18.2102ZM13.5655 13.9036L13.566 14.4299L13.566 14.4299L13.5655 13.9036ZM8.85012 22.644L8.32381 22.6445L8.32381 22.6448L8.85012 22.644ZM13.744 31.1111L13.7442 31.6374L13.7447 31.6374L13.744 31.1111ZM19.1048 27.3605L19.6311 27.3598L19.6286 25.3876L18.6481 27.0988L19.1048 27.3605ZM19.1096 31.1064L18.5832 31.107L18.5839 31.6332L19.1101 31.6327L19.1096 31.1064ZM22.3561 31.103L22.3567 31.6293L22.8825 31.6287L22.8824 31.1029L22.3561 31.103ZM22.3558 23.0109L21.9325 22.6981L21.8295 22.8375L21.8295 23.0109L22.3558 23.0109ZM22.3803 22.9776L22.8036 23.2904L22.8036 23.2904L22.3803 22.9776ZM27.6614 17.2955L27.6614 17.8218L27.6615 17.8218L27.6614 17.2955ZM29.0274 18.9595L28.5011 18.9595L28.5011 18.9601L29.0274 18.9595ZM29.0414 31.0986L28.5151 31.0992L28.5157 31.6248L29.0413 31.6249L29.0414 31.0986ZM32.2521 31.0992L32.252 31.6255L32.7779 31.6257L32.7784 31.0997L32.2521 31.0992ZM32.2639 19.1611L32.7902 19.1616L32.7902 19.1616L32.2639 19.1611ZM32.2647 18.2743L32.7911 18.2748L32.791 18.2718L32.2647 18.2743ZM27.8456 13.8924L27.8456 14.4187L27.8459 14.4187L27.8456 13.8924ZM22.6921 17.7597L22.2603 17.4588L22.2602 17.4589L22.6921 17.7597ZM13.6119 17.2867L13.6119 16.7604L13.6112 16.7604L13.6119 17.2867ZM11.9933 22.6392L11.467 22.6398L11.467 22.64L11.9933 22.6392ZM18.5219 23.0686L18.9686 23.3469L19.1267 23.0931L18.9897 22.8273L18.5219 23.0686ZM13.6079 27.8967L13.6079 28.423L13.6084 28.423L13.6079 27.8967ZM38.4912 19.119L38.9552 18.8706L29.756 1.68957L29.292 1.938L28.828 2.18643L38.0272 19.3675L38.4912 19.119ZM38.8123 22.0144L39.3144 22.1722C39.6482 21.1098 39.4557 19.85 38.9599 18.8796L38.4912 19.119L38.0225 19.3585C38.4182 20.133 38.5458 21.1066 38.3102 21.8567L38.8123 22.0144ZM34.4211 37.4429L34.9273 37.587L39.3185 22.1585L38.8123 22.0144L38.3061 21.8704L33.9148 37.2988L34.4211 37.4429ZM30.0953 39.8555L29.9444 40.3597C32.0798 40.9987 34.3064 39.746 34.9269 37.5884L34.4211 37.4429L33.9152 37.2974C33.4518 38.909 31.8037 39.8173 30.2462 39.3513L30.0953 39.8555ZM3.55236 32.2857L3.40801 32.7918L29.951 40.3616L30.0953 39.8555L30.2396 39.3494L3.6967 31.7795L3.55236 32.2857ZM1.18699 27.8779L0.681211 27.7324C0.0618543 29.8843 1.26948 32.1531 3.40172 32.79L3.55236 32.2857L3.703 31.7814C2.13834 31.314 1.22886 29.6354 1.69278 28.0235L1.18699 27.8779ZM5.70588 12.1432L5.20001 11.998L0.681127 27.7326L1.18699 27.8779L1.69286 28.0232L6.21175 12.2885L5.70588 12.1432ZM7.49252 9.87369L7.23071 9.41711C6.36823 9.91167 5.56596 10.7744 5.20164 11.9924L5.70588 12.1432L6.21012 12.2941C6.48935 11.3605 7.10116 10.7048 7.75432 10.3303L7.49252 9.87369ZM24.3301 0.459816L24.0732 0.000425858L7.23567 9.4143L7.49252 9.87369L7.74936 10.3331L24.5869 0.919206L24.3301 0.459816ZM29.292 1.938L29.7558 1.68906C28.6491 -0.372346 26.1073 -1.13566 24.0734 0.000312457L24.3301 0.459816L24.5867 0.919319C26.098 0.0752214 27.995 0.634634 28.8283 2.18695L29.292 1.938ZM22.3565 11.1111C21.8301 11.1101 21.8301 11.1101 21.8301 11.1102C21.8301 11.1102 21.8301 11.1103 21.8301 11.1104C21.8301 11.1106 21.8301 11.111 21.8301 11.1114C21.8301 11.1123 21.8301 11.1135 21.8301 11.1153C21.8301 11.1187 21.8301 11.1238 21.8301 11.1306C21.8301 11.1441 21.83 11.1642 21.83 11.1904C21.8299 11.2428 21.8298 11.3196 21.8296 11.4173C21.8292 11.6128 21.8287 11.8921 21.8281 12.2271C21.827 12.8972 21.8256 13.7906 21.8246 14.6834C21.8236 15.5762 21.823 16.4687 21.8234 17.1372C21.8236 17.4713 21.824 17.7499 21.8248 17.9448C21.8251 18.042 21.8256 18.1194 21.8262 18.1727C21.8265 18.199 21.8268 18.2216 21.8272 18.2385C21.8274 18.2459 21.8277 18.2573 21.8283 18.2688C21.8285 18.2719 21.8293 18.2879 21.8317 18.3073C21.8319 18.3087 21.836 18.3484 21.8502 18.3955C21.8625 18.4318 21.9268 18.5513 21.9908 18.6251C22.2128 18.7514 22.6441 18.6839 22.7819 18.5515L22.3544 18.2444L21.9269 17.9374C22.0647 17.805 22.496 17.7376 22.7179 17.8639C22.7819 17.9375 22.8461 18.0569 22.8584 18.0931C22.8724 18.1399 22.8765 18.1791 22.8766 18.1797C22.8779 18.1905 22.8786 18.1988 22.8788 18.2022C22.8791 18.2064 22.8793 18.2096 22.8794 18.2113C22.8797 18.2163 22.8797 18.218 22.8795 18.2124C22.8793 18.2032 22.879 18.1866 22.8788 18.1614C22.8782 18.1118 22.8778 18.0373 22.8774 17.9406C22.8766 17.7476 22.8762 17.4704 22.876 17.1366C22.8756 16.4691 22.8763 15.5772 22.8773 14.6846C22.8783 13.792 22.8797 12.8989 22.8808 12.2289C22.8813 11.8939 22.8818 11.6147 22.8822 11.4193C22.8824 11.3215 22.8825 11.2448 22.8826 11.1924C22.8827 11.1662 22.8827 11.1462 22.8827 11.1326C22.8828 11.1259 22.8828 11.1207 22.8828 11.1173C22.8828 11.1156 22.8828 11.1143 22.8828 11.1134C22.8828 11.113 22.8828 11.1127 22.8828 11.1125C22.8828 11.1124 22.8828 11.1123 22.8828 11.1122C22.8828 11.1122 22.8828 11.1121 22.3565 11.1111ZM19.0942 15.4808L19.516 15.7956L22.7782 11.426L22.3565 11.1111L21.9347 10.7962L18.6725 15.1659L19.0942 15.4808ZM19.0928 18.2102L19.6192 18.2104L19.6205 15.481L19.0942 15.4808L18.5679 15.4805L18.5665 18.2099L19.0928 18.2102ZM13.5655 13.9036L13.566 14.4299C14.8166 14.4288 16.0635 15.3531 17.0604 16.4159C17.5445 16.932 17.9414 17.4505 18.2177 17.8409C18.3556 18.0356 18.4625 18.1973 18.5344 18.3093C18.5703 18.3653 18.5974 18.4088 18.6152 18.4377C18.6241 18.4521 18.6307 18.4629 18.6349 18.4698C18.6369 18.4733 18.6384 18.4757 18.6393 18.4772C18.6397 18.4779 18.64 18.4784 18.6401 18.4786C18.6402 18.4787 18.6402 18.4788 18.6402 18.4787C18.6402 18.4787 18.6402 18.4787 18.6402 18.4787C18.6401 18.4786 18.6401 18.4785 19.0928 18.2102C19.5456 17.9418 19.5455 17.9417 19.5455 17.9416C19.5454 17.9415 19.5453 17.9413 19.5452 17.9412C19.5451 17.9409 19.5449 17.9406 19.5446 17.9401C19.5441 17.9393 19.5435 17.9382 19.5427 17.9369C19.5411 17.9342 19.5388 17.9305 19.536 17.9258C19.5303 17.9163 19.5222 17.903 19.5116 17.8858C19.4906 17.8516 19.4599 17.8025 19.4202 17.7407C19.3408 17.617 19.225 17.4421 19.077 17.2328C18.7815 16.8154 18.3542 16.2567 17.8281 15.6958C16.8048 14.6047 15.288 13.3757 13.5651 13.3773L13.5655 13.9036ZM8.85012 22.644L9.37644 22.6435C9.37371 19.7936 9.58089 17.7191 10.2163 16.3642C10.5261 15.7035 10.9297 15.2331 11.4492 14.9218C11.9725 14.6083 12.6561 14.4307 13.566 14.4299L13.5655 13.9036L13.5651 13.3773C12.5203 13.3782 11.6365 13.5826 10.9082 14.0189C10.1763 14.4574 9.64432 15.1047 9.26327 15.9173C8.51694 17.5087 8.32108 19.8028 8.32381 22.6445L8.85012 22.644ZM13.744 31.1111L13.7438 30.5848C12.8902 30.5851 12.2184 30.4392 11.6847 30.1618C11.157 29.8874 10.7311 29.4673 10.3922 28.8614C9.69693 27.6184 9.38103 25.6217 9.37644 22.6432L8.85012 22.644L8.32381 22.6448C8.32843 25.6402 8.63587 27.8777 9.47348 29.3752C9.90097 30.1395 10.4689 30.7161 11.1992 31.0958C11.9237 31.4724 12.7743 31.6378 13.7442 31.6374L13.744 31.1111ZM19.1048 27.3605C18.6481 27.0988 18.6482 27.0987 18.6483 27.0986C18.6483 27.0986 18.6483 27.0985 18.6484 27.0984C18.6484 27.0984 18.6484 27.0983 18.6484 27.0984C18.6484 27.0984 18.6482 27.0987 18.6479 27.0992C18.6473 27.1002 18.6462 27.1021 18.6446 27.1049C18.6414 27.1104 18.6361 27.1192 18.6289 27.1313C18.6144 27.1554 18.5919 27.1921 18.5618 27.2396C18.5015 27.3347 18.4105 27.4729 18.2912 27.6396C18.0518 27.974 17.7015 28.4188 17.2578 28.8619C16.3571 29.7614 15.144 30.583 13.7434 30.5848L13.744 31.1111L13.7447 31.6374C15.5582 31.6351 17.0255 30.5815 18.0016 29.6067C18.4964 29.1126 18.8836 28.6205 19.1471 28.2523C19.2792 28.0677 19.3811 27.9131 19.4507 27.8034C19.4856 27.7484 19.5124 27.7047 19.5309 27.6739C19.5402 27.6585 19.5474 27.6463 19.5525 27.6376C19.555 27.6333 19.557 27.6298 19.5585 27.6272C19.5593 27.6259 19.5599 27.6248 19.5604 27.624C19.5606 27.6236 19.5608 27.6232 19.561 27.6229C19.5611 27.6227 19.5612 27.6226 19.5613 27.6225C19.5614 27.6223 19.5615 27.6221 19.1048 27.3605ZM19.1096 31.1064L19.6359 31.1057L19.6311 27.3598L19.1048 27.3605L18.5785 27.3612L18.5832 31.107L19.1096 31.1064ZM22.3561 31.103L22.3556 30.5766L19.109 30.58L19.1096 31.1064L19.1101 31.6327L22.3567 31.6293L22.3561 31.103ZM22.3558 23.0109L21.8295 23.0109L21.8298 31.103L22.3561 31.103L22.8824 31.1029L22.8821 23.0108L22.3558 23.0109ZM22.3803 22.9776L21.9571 22.6648L21.9325 22.6981L22.3558 23.0109L22.7791 23.3236L22.8036 23.2904L22.3803 22.9776ZM27.6613 17.2955V16.7692C27.1986 16.7692 26.7488 17.0415 26.3617 17.3515C25.9524 17.6795 25.5094 18.1366 25.0474 18.6687C24.1224 19.7341 23.059 21.1737 21.9571 22.6648L22.3803 22.9776L22.8036 23.2904C23.9143 21.7875 24.9504 20.386 25.8422 19.3589C26.2886 18.8448 26.6833 18.4427 27.0199 18.173C27.3788 17.8855 27.5829 17.8218 27.6613 17.8218V17.2955ZM27.6614 17.2955V16.7692H27.6613V17.2955V17.8218H27.6614V17.2955ZM29.0274 18.9595H29.5537C29.5537 17.9568 29.1333 17.3649 28.6285 17.0549C28.1658 16.7707 27.7065 16.7692 27.6612 16.7692L27.6614 17.2955L27.6615 17.8218C27.6616 17.8218 27.6614 17.8218 27.6611 17.8218C27.6608 17.8218 27.6605 17.8218 27.6602 17.8218C27.6596 17.8218 27.6593 17.8218 27.6592 17.8218C27.6589 17.8218 27.6597 17.8218 27.6614 17.8219C27.6649 17.822 27.6723 17.8223 27.6831 17.8232C27.7047 17.825 27.7388 17.829 27.7808 17.8374C27.8667 17.8547 27.9745 17.8885 28.0776 17.9518C28.25 18.0577 28.5011 18.2978 28.5011 18.9595H29.0274ZM29.0414 31.0986L29.5677 31.0979L29.5537 18.9589L29.0274 18.9595L28.5011 18.9601L28.5151 31.0992L29.0414 31.0986ZM32.2521 31.0992L32.2522 30.5729L29.0415 30.5722L29.0414 31.0986L29.0413 31.6249L32.252 31.6255L32.2521 31.0992ZM32.2639 19.1611L31.7376 19.1606L31.7258 31.0987L32.2521 31.0992L32.7784 31.0997L32.7902 19.1616L32.2639 19.1611ZM32.2647 18.2743L31.7384 18.2738L31.7376 19.1606L32.2639 19.1611L32.7902 19.1616L32.791 18.2748L32.2647 18.2743ZM27.8456 13.8924L27.8459 14.4187C30.3538 14.4172 31.7299 16.4972 31.7384 18.2768L32.2647 18.2743L32.791 18.2718C32.7804 16.0452 31.0571 13.3642 27.8452 13.3661L27.8456 13.8924ZM22.6921 17.7597L23.1239 18.0606C24.5591 16.0011 25.7708 14.4187 27.8456 14.4187V13.8924V13.3661C25.1373 13.3661 23.6277 15.4966 22.2603 17.4588L22.6921 17.7597ZM22.3544 18.2444L22.7863 18.5453L23.1239 18.0606L22.6921 17.7597L22.2602 17.4589L21.9226 17.9436L22.3544 18.2444ZM13.6119 17.2867L13.6112 16.7604C13.1395 16.761 12.7117 16.8889 12.3699 17.2067C12.0425 17.5111 11.8518 17.9371 11.7306 18.4169C11.4926 19.3595 11.4649 20.7709 11.467 22.6398L11.9933 22.6392L12.5196 22.6386C12.5175 20.7264 12.5523 19.4625 12.7512 18.6746C12.8485 18.2892 12.9699 18.0862 13.0867 17.9776C13.189 17.8824 13.3376 17.8134 13.6127 17.813L13.6119 17.2867ZM18.5219 23.0686C18.9897 22.8273 18.9896 22.8272 18.9896 22.8271C18.9895 22.8271 18.9895 22.8269 18.9894 22.8268C18.9893 22.8265 18.9891 22.8262 18.9889 22.8258C18.9884 22.8249 18.9878 22.8237 18.987 22.8221C18.9854 22.819 18.983 22.8145 18.98 22.8087C18.974 22.7971 18.9651 22.7802 18.9536 22.7583C18.9305 22.7145 18.8967 22.6509 18.8532 22.5702C18.7661 22.4089 18.6401 22.1792 18.4828 21.904C18.1688 21.3544 17.7283 20.6188 17.2246 19.8808C16.7234 19.1465 16.1477 18.3917 15.5617 17.8149C15.2685 17.5263 14.9602 17.2697 14.6453 17.0825C14.3335 16.8973 13.9818 16.7603 13.6119 16.7604L13.6119 17.2867L13.612 17.813C13.7241 17.813 13.8873 17.8566 14.1076 17.9875C14.3248 18.1165 14.5657 18.3116 14.8232 18.565C15.3385 19.0723 15.8698 19.763 16.3551 20.4742C16.838 21.1816 17.2634 21.8916 17.5688 22.4262C17.7213 22.693 17.8432 22.9151 17.9268 23.07C17.9686 23.1474 18.0007 23.208 18.0223 23.2489C18.0331 23.2694 18.0412 23.2849 18.0465 23.2952C18.0492 23.3003 18.0512 23.3041 18.0525 23.3066C18.0531 23.3078 18.0535 23.3087 18.0538 23.3092C18.054 23.3095 18.0541 23.3097 18.0541 23.3098C18.0541 23.3098 18.0541 23.3098 18.0541 23.3098C18.0541 23.3098 18.0541 23.3098 18.5219 23.0686ZM13.6079 27.8967L13.6084 28.423C14.2804 28.4223 14.9496 28.0129 15.5147 27.5478C16.1026 27.064 16.6821 26.431 17.1869 25.8157C17.6942 25.1974 18.1387 24.5814 18.4557 24.1212C18.6145 23.8908 18.7419 23.6984 18.83 23.5632C18.874 23.4955 18.9083 23.4421 18.9317 23.4053C18.9434 23.3869 18.9524 23.3726 18.9586 23.3628C18.9617 23.3578 18.9641 23.354 18.9658 23.3514C18.9666 23.35 18.9673 23.349 18.9677 23.3483C18.968 23.3479 18.9682 23.3476 18.9683 23.3473C18.9684 23.3472 18.9684 23.3471 18.9685 23.3471C18.9685 23.347 18.9686 23.3469 18.5219 23.0686C18.0752 22.7902 18.0752 22.7902 18.0752 22.7902C18.0752 22.7902 18.0752 22.7902 18.0752 22.7902C18.0752 22.7903 18.0751 22.7904 18.0749 22.7906C18.0747 22.791 18.0742 22.7917 18.0736 22.7927C18.0724 22.7947 18.0704 22.7978 18.0678 22.802C18.0625 22.8105 18.0544 22.8233 18.0436 22.8402C18.022 22.8741 17.9898 22.9244 17.9479 22.9887C17.8641 23.1174 17.7417 23.3021 17.5888 23.5241C17.2824 23.9689 16.856 24.5596 16.3731 25.148C15.8878 25.7395 15.358 26.3135 14.8457 26.7351C14.3107 27.1755 13.8889 27.3701 13.6073 27.3704L13.6079 27.8967ZM11.9933 22.6392L11.467 22.64C11.4697 24.5152 11.5191 25.9032 11.7682 26.8243C11.8949 27.293 12.0887 27.7042 12.4099 27.9966C12.7451 28.3017 13.1582 28.423 13.6079 28.423V27.8967V27.3704C13.3556 27.3704 13.2168 27.3076 13.1184 27.2181C13.0061 27.1159 12.8851 26.9222 12.7843 26.5496C12.5784 25.7879 12.5223 24.5471 12.5196 22.6385L11.9933 22.6392Z" fill="#F8FAFC" mask="url(#path-1-inside-1_5088_21350)"/>
</svg>
