<svg width="40" height="40" viewBox="0 0 40 40" fill="none" xmlns="http://www.w3.org/2000/svg">
<g clip-path="url(#clip0_5515_3146)">
<path fill-rule="evenodd" clip-rule="evenodd" d="M38 35.1931C38 36.2539 37.6999 40 32.6161 40H7.20105C5.96526 40 2.00003 39.2175 2.00003 34.9459V6.75832C2.00003 -1.04232 9.36074 0.0526071 9.36074 0.0526071H30.544C33.2764 0.0526071 38 0.621959 38 6.13645V35.1931Z" fill="#139CDC"/>
<path fill-rule="evenodd" clip-rule="evenodd" d="M33.0338 31.699C33.0229 31.8789 33.0083 32.0632 32.976 32.2382C32.9432 32.3979 32.893 32.5476 32.8443 32.6976C32.7963 32.8484 32.7566 32.9992 32.6923 33.1433C32.6315 33.2747 32.5478 33.3953 32.4729 33.52C32.4009 33.6454 32.3325 33.7731 32.2467 33.8898C32.1648 34.0017 32.0637 34.1002 31.9706 34.2043C31.8763 34.3084 31.7876 34.4155 31.6828 34.5119C31.5788 34.6053 31.4617 34.6862 31.346 34.7686C31.2332 34.8562 31.1245 34.9459 31.0022 35.0188C30.8771 35.0967 30.7396 35.1552 30.6076 35.2192C30.473 35.2843 30.341 35.3506 30.1986 35.4061C30.0502 35.4598 29.8934 35.4955 29.7386 35.5374C29.403 35.6274 29.0586 35.6796 28.7117 35.693C28.6491 35.6941 28.5913 35.7114 28.5309 35.7114H7.72105V21.132H27.7927C27.8313 21.132 27.864 21.143 27.9004 21.143C28.3966 21.1527 28.8877 21.2458 29.3537 21.4185C30.5336 21.8584 31.4374 22.7763 31.8213 23.9169C31.9061 24.163 31.9599 24.4181 31.9916 24.6838C32.0061 24.824 32.036 24.9582 32.036 25.1043C32.036 25.1723 32.0178 25.2374 32.0141 25.3077C32.0032 25.4876 31.9923 25.6689 31.9581 25.8439C31.9254 26.0025 31.8705 26.1526 31.8195 26.3014C31.7693 26.4474 31.7184 26.5894 31.6529 26.7277C31.5258 26.9873 31.3706 27.2318 31.19 27.4567C31.1016 27.5666 31.015 27.6785 30.9157 27.7778C30.8902 27.8035 30.8742 27.8304 30.8491 27.8536C30.9859 27.9304 31.1129 28.0191 31.2399 28.1055C31.673 28.4101 32.0416 28.7839 32.3352 29.2102C32.5785 29.5692 32.7778 29.9596 32.8972 30.3781C32.9645 30.6146 33.0049 30.8579 33.0281 31.108C33.0391 31.2334 33.0536 31.3581 33.0536 31.4876C33.0565 31.5567 33.0354 31.6248 33.0318 31.7017M31.5737 19.1203H7.85343C6.16822 19.1203 4.68413 18.2298 3.82083 16.8848V33.9012C3.82083 35.9791 5.4637 37.6697 7.48196 37.6697H32.5102C34.5313 37.6697 36.1732 35.9791 36.1732 33.9012V22.6552C36.155 19.6605 33.9413 19.1203 31.5737 19.1203Z" fill="white"/>
<path fill-rule="evenodd" clip-rule="evenodd" d="M22.6664 25.0955C22.6664 25.186 22.6519 25.2754 22.6373 25.364C22.614 25.5237 22.5687 25.6793 22.5028 25.8263C22.4389 25.9565 22.3615 26.0795 22.2718 26.193C22.0909 26.4151 21.8656 26.5959 21.6106 26.7235C21.3229 26.8685 21.0062 26.9451 20.6847 26.9475H14.7974V23.2394H20.6847C20.8626 23.2394 21.031 23.2688 21.1948 23.3085C21.9272 23.4925 22.4912 24.0511 22.6298 24.7587C22.6516 24.8676 22.6665 24.9798 22.6665 25.0945M23.2151 31.1871C23.2151 31.228 23.2042 31.2717 23.2005 31.3166C23.1811 31.6411 23.0917 31.9573 22.9386 32.2431C22.8713 32.3715 22.7935 32.4922 22.7029 32.6051C22.6147 32.7145 22.5192 32.8176 22.417 32.9137C22.3122 33.0078 22.1995 33.0924 22.0802 33.1668C21.8208 33.3324 21.5327 33.447 21.2313 33.5045C21.0564 33.5436 20.8781 33.5648 20.6991 33.5678L20.6663 33.5689H14.7849V28.8047H20.6634C20.6816 28.8047 20.6998 28.8084 20.7165 28.8084C20.9639 28.8121 21.1977 28.8581 21.4239 28.9232C22.2834 29.1763 22.9474 29.8342 23.1457 30.6644C23.1901 30.8306 23.2148 31.0061 23.2148 31.186M33.0288 31.0985C33.0085 30.8512 32.965 30.6065 32.8989 30.3676C32.7738 29.9507 32.5841 29.5565 32.3369 29.1997C32.0393 28.7688 31.6684 28.3948 31.2416 28.095C31.1155 28.0043 30.9851 27.9198 30.8509 27.8419C30.8763 27.8198 30.8923 27.7934 30.9164 27.768C31.0153 27.6657 31.103 27.5557 31.1906 27.4468C31.279 27.3339 31.362 27.2192 31.4398 27.0992C31.5186 26.9763 31.59 26.8485 31.6533 26.7167C31.7206 26.5784 31.7708 26.4376 31.8199 26.2905C31.8708 26.1404 31.9276 25.9896 31.9585 25.833C31.9949 25.6579 32.0047 25.477 32.0153 25.2968C32.0182 25.2269 32.0371 25.1607 32.0371 25.0923C32.0371 24.9481 32.008 24.8131 31.9927 24.6728C31.9632 24.4118 31.9061 24.1547 31.8225 23.9059C31.4375 22.7652 30.5347 21.8494 29.3538 21.4075C28.8881 21.2342 28.3968 21.1414 27.9006 21.1331C27.8642 21.1331 27.8322 21.1221 27.7947 21.1221H7.71631V35.6956H28.5243C28.5868 35.6956 28.6447 35.6809 28.705 35.6809C29.0525 35.67 29.3974 35.618 29.7329 35.5261C29.8868 35.4841 30.0439 35.4481 30.1929 35.3947C30.3344 35.3392 30.4661 35.2722 30.602 35.2079C30.7337 35.1428 30.8704 35.0843 30.9956 35.0074C31.1179 34.9346 31.2266 34.8419 31.3401 34.7573C31.4536 34.6734 31.5729 34.5917 31.677 34.5001C31.781 34.4027 31.8694 34.2986 31.964 34.1915C32.0604 34.0863 32.1582 33.9899 32.2412 33.8781C32.327 33.7633 32.3943 33.635 32.4663 33.5083C32.5405 33.3847 32.6253 33.2651 32.6857 33.1316C32.7522 32.9874 32.7897 32.8359 32.8377 32.6858C32.8868 32.5339 32.9396 32.3842 32.9694 32.2255C33.0058 32.0504 33.0174 31.8672 33.0272 31.6873C33.0301 31.6104 33.049 31.5413 33.049 31.4655C33.0563 31.3467 33.0418 31.222 33.0309 31.0966" fill="#139CDC"/>
<path fill-rule="evenodd" clip-rule="evenodd" d="M20.5346 23.2395H14.7975V26.9427H20.6828C20.8542 26.9427 21.0179 26.9169 21.1775 26.8794C21.3273 26.8433 21.4724 26.7895 21.6097 26.7191C21.8647 26.5916 22.0901 26.4108 22.2709 26.1886C22.3605 26.0753 22.4379 25.9526 22.5018 25.8226C22.5691 25.6766 22.6088 25.521 22.6346 25.3603C22.6492 25.2728 22.6637 25.1823 22.6637 25.0918C22.6637 24.977 22.6491 24.8652 22.6273 24.7552C22.4898 24.0486 21.9247 23.49 21.1924 23.306C21.0254 23.2621 20.8538 23.2387 20.6813 23.2361H20.5332V23.2398L20.5346 23.2395ZM20.6663 28.8026H14.7858V33.5667H20.6663L20.6954 33.5648C20.8784 33.5618 21.0574 33.539 21.2286 33.5015C21.8082 33.3867 22.329 33.0686 22.6992 32.6032C22.7898 32.4914 22.8687 32.3696 22.9349 32.2412C23.0886 31.9553 23.178 31.6386 23.1968 31.3138C23.1987 31.2689 23.2114 31.2262 23.2114 31.1843C23.2114 31.004 23.1859 30.8289 23.1448 30.6606C22.9477 29.8305 22.2825 29.1725 21.424 28.9195C21.1941 28.8504 20.9563 28.8119 20.7166 28.8047C20.6984 28.8066 20.6802 28.8028 20.6635 28.8028M17.0572 3.91755L21.2458 11.4437H12.8726L17.0572 3.91755ZM12.222 13.0516H22.3882L24.7115 17.0507H32.8152L24.7106 2.37976H15.884L7.73315 17.0507H10.0863L12.221 13.0515L12.222 13.0516Z" fill="white"/>
</g>
<defs>
<clipPath id="clip0_5515_3146">
<rect width="36" height="40" fill="white" transform="translate(2)"/>
</clipPath>
</defs>
</svg>
