<?xml version="1.0" encoding="UTF-8"?>
<svg id="Layer_1" xmlns="http://www.w3.org/2000/svg" version="1.1" viewBox="0 0 400 400">
  <!-- Generator: Adobe Illustrator 29.5.1, SVG Export Plug-In . SVG Version: 2.1.0 Build 141)  -->
  <defs>
    <style>
      .st0 {
        fill: #055;
      }
    </style>
  </defs>
  <path class="st0" d="M23.1,189.4c1.5-5.8,4.4-10.5,8.6-14.1,4.6-4,9.8-6,16.1-6s12.1,2,17.1,6c4.5,3.6,7.5,8.2,9.1,14.1H23.1ZM74.1,218.6c-2.4,2.4-5.1,4.4-8.2,5.8-4.7,2.2-9.8,3.2-15.4,3.2s-13.8-2.2-19-6.7c-4.7-4-7.6-9.6-9-16.6h73.3v-1.6c-.5-10.2-2.5-19.2-6.6-26.8-4-7.6-9.7-13.4-16.8-17.7-7.2-4.2-15.6-6.1-25-6.1s-16.8,2-23.9,6c-7.1,4-13.1,9.6-17.2,16.6C2,181.8,0,189.9,0,198.6s2.1,16.9,6.2,23.9c4.1,7,10.2,12.7,17.8,16.6,7.6,4,16.3,6,25.9,6s18-2,26-5.7c6.6-3.1,11.9-7.5,16.4-13.1l-18.5-8.1v.2l.2.2Z"/>
  <path class="st0" d="M327.6,189.4c1.5-5.8,4.4-10.5,8.6-14.1,4.6-4,9.8-6,16.1-6s12.1,2,17.1,6c4.5,3.6,7.5,8.2,9.1,14.1h-50.8ZM378.3,218.6c-2.4,2.4-5.1,4.4-8.2,5.8-4.7,2.2-9.8,3.2-15.4,3.2s-13.8-2.2-19-6.7c-4.7-4-7.6-9.6-9-16.6h73.3v-1.6c-.5-10.2-2.5-19.2-6.6-26.8-4-7.6-9.7-13.4-16.8-17.7-7.2-4.2-15.6-6.1-25-6.1s-16.8,2-23.9,6c-7.2,4-13.1,9.6-17.2,16.6-4.2,7-6.2,15.1-6.2,23.8s2.1,16.9,6.2,23.9,10.2,12.7,17.8,16.6c7.6,4,16.3,6,25.9,6s18-2,26-5.7c6.6-3.1,11.9-7.5,16.4-13.1l-18.5-8.1v.2l.2.2Z"/>
  <path class="st0" d="M149.6,226.2c-5,0-9.5-1.2-13.3-3.6-4-2.4-7.2-5.7-9.5-9.8s-3.5-8.8-3.5-14.2,1.2-9.5,3.5-13.8,5.4-7.6,9.3-10.3c3.9-2.5,8.2-3.7,13.2-3.9,5.2,0,9.7,1.2,13.9,3.6,4,2.4,7.3,5.7,9.6,9.7,2.2,4.2,3.5,8.7,3.5,13.8s-1.2,9.6-3.5,14.1c-2.4,4.4-5.5,7.7-9.6,10.5-4,2.5-8.6,3.9-13.4,3.9M196.4,224.7v-107.2h-37.2v17.8h16.9v28.4c-4-3.6-8.2-6.2-12.6-8.2-5.2-2.2-11-3.5-16.8-3.5s-15.7,2.1-22.8,6.2-12.4,9.8-16.3,17.1-5.8,14.9-5.8,23.4,1.7,15.8,5.5,22.8c3.7,6.8,9,12.4,15.7,16.3,6.7,4,14.6,6,23.1,6s12.3-1.2,17.7-3.6c4.4-2,8.3-4.6,12.1-8.1v10.2h20.3v-18,.5h.2Z"/>
  <path class="st0" d="M276.3,199.6c0,5-1.2,9.5-3.5,13.8-2.4,4.2-5.5,7.6-9.7,10.1-4.2,2.5-8.7,3.7-13.9,3.7s-9.6-1.2-13.4-3.6-7-5.7-9.1-9.8c-2.1-4.2-3.2-8.8-3.2-13.9s1.2-9.6,3.5-13.8,5.4-7.6,9.5-10.1c4-2.5,8.3-3.7,13.4-3.7s9.6,1.4,13.6,3.9c4.2,2.5,7.3,6,9.6,10.3,2.4,4.4,3.5,8.7,3.5,13.3M276.2,164.8c-4-3.5-8.2-6.1-12.4-8-5.2-2.2-11-3.5-16.9-3.5s-16.1,2.1-22.9,6.5c-6.8,4.2-12.3,10.1-16.2,17.1-3.9,7.2-5.8,14.9-5.8,23.1s2,15.7,5.7,22.4c3.7,6.8,9,12.4,15.7,16.4,6.7,4.2,14.3,6.2,22.8,6.2s12.1-1.4,18-3.9c4.6-2,8.7-4.6,12.1-7.7v4c0,8.3-2.4,14.8-6.8,19.8-2.2,2.4-5,4.2-8.2,5.5-3.1,1.2-6.8,1.7-11.1,1.7s-8.8-.7-12.7-2.1-7.7-3.5-11.7-6.2l-1.2-.9-13.2,14.3,1.4,1c10.2,8,22.5,11.8,36.8,11.8s14.2-1,20-3.1c5.8-2.1,10.8-5.2,14.8-9.5s7-9.3,9-15.3,3-12.7,3-20.2v-80.3h-20.3v10.3h.1v.4Z"/>
</svg>