<?xml version="1.0" encoding="UTF-8"?>
<svg id="Layer_1" xmlns="http://www.w3.org/2000/svg" version="1.1" viewBox="0 0 400 400">
  <!-- Generator: Adobe Illustrator 29.5.1, SVG Export Plug-In . SVG Version: 2.1.0 Build 141)  -->
  <defs>
    <style>
      .st0 {
        fill: #055;
      }
    </style>
  </defs>
  <g>
    <path class="st0" d="M18.6,191.2c1.2-4.7,3.5-8.4,6.9-11.3,3.7-3.2,7.9-4.8,12.9-4.8s9.7,1.6,13.7,4.8c3.6,2.9,6,6.6,7.3,11.3H18.6ZM59.5,214.7c-1.9,1.9-4.1,3.5-6.6,4.7-3.8,1.8-7.9,2.6-12.4,2.6s-11.1-1.8-15.3-5.4c-3.8-3.2-6.1-7.7-7.2-13.3h58.9v-1.3c-.4-8.2-2-15.4-5.3-21.5-3.2-6.1-7.8-10.8-13.5-14.2-5.8-3.4-12.5-4.9-20.1-4.9s-13.5,1.6-19.2,4.8-10.5,7.7-13.8,13.3c-3.4,5.6-5,12.1-5,19.1s1.7,13.6,5,19.2,8.2,10.2,14.3,13.3c6.1,3.2,13.1,4.8,20.8,4.8s14.5-1.6,20.9-4.6c5.3-2.5,9.6-6,13.2-10.5l-14.9-6.5v.2Z"/>
    <path class="st0" d="M263.2,191.2c1.2-4.7,3.5-8.4,6.9-11.3,3.7-3.2,7.9-4.8,12.9-4.8s9.7,1.6,13.7,4.8c3.6,2.9,6,6.6,7.3,11.3h-40.7ZM304,214.7c-1.9,1.9-4.1,3.5-6.6,4.7-3.8,1.8-7.9,2.6-12.4,2.6s-11.1-1.8-15.3-5.4c-3.8-3.2-6.1-7.7-7.2-13.3h58.9v-1.3c-.4-8.2-2-15.4-5.3-21.5-3.2-6.1-7.8-10.8-13.5-14.2-5.8-3.4-12.5-4.9-20.1-4.9s-13.5,1.6-19.2,4.8c-5.8,3.2-10.5,7.7-13.8,13.3-3.4,5.6-5,12.1-5,19.1s1.7,13.6,5,19.2,8.2,10.2,14.3,13.3c6.1,3.2,13.1,4.8,20.8,4.8s14.5-1.6,20.9-4.6c5.3-2.5,9.6-6,13.2-10.5l-14.9-6.5v.2Z"/>
    <path class="st0" d="M120.2,220.8c-4,0-7.6-1-10.7-2.9-3.2-1.9-5.8-4.6-7.6-7.9s-2.8-7.1-2.8-11.4,1-7.6,2.8-11.1,4.3-6.1,7.5-8.3c3.1-2,6.6-3,10.6-3.1,4.2,0,7.8,1,11.2,2.9,3.2,1.9,5.9,4.6,7.7,7.8,1.8,3.4,2.8,7,2.8,11.1s-1,7.7-2.8,11.3c-1.9,3.5-4.4,6.2-7.7,8.4-3.2,2-6.9,3.1-10.8,3.1M157.8,219.6v-86.1h-29.9v14.3h13.6v22.8c-3.2-2.9-6.6-5-10.1-6.6-4.2-1.8-8.8-2.8-13.5-2.8s-12.6,1.7-18.3,5-10,7.9-13.1,13.7c-3.1,5.8-4.7,12-4.7,18.8s1.4,12.7,4.4,18.3c3,5.5,7.2,10,12.6,13.1,5.4,3.2,11.7,4.8,18.6,4.8s9.9-1,14.2-2.9c3.5-1.6,6.7-3.7,9.7-6.5v8.2h16.3v-14.5.4Z"/>
    <path class="st0" d="M222,199.4c0,4-1,7.6-2.8,11.1-1.9,3.4-4.4,6.1-7.8,8.1-3.4,2-7,3-11.2,3s-7.7-1-10.8-2.9c-3.1-1.9-5.6-4.6-7.3-7.9-1.7-3.4-2.6-7.1-2.6-11.2s1-7.7,2.8-11.1,4.3-6.1,7.6-8.1c3.2-2,6.7-3,10.8-3s7.7,1.1,10.9,3.1c3.4,2,5.9,4.8,7.7,8.3,1.9,3.5,2.8,7,2.8,10.7M221.9,171.5c-3.2-2.8-6.6-4.9-10-6.4-4.2-1.8-8.8-2.8-13.6-2.8s-12.9,1.7-18.4,5.2c-5.5,3.4-9.9,8.1-13,13.7-3.1,5.8-4.7,12-4.7,18.6s1.6,12.6,4.6,18c3,5.5,7.2,10,12.6,13.2,5.4,3.4,11.5,5,18.3,5s9.7-1.1,14.5-3.1c3.7-1.6,7-3.7,9.7-6.2v3.2c0,6.7-1.9,11.9-5.5,15.9-1.8,1.9-4,3.4-6.6,4.4-2.5,1-5.5,1.4-8.9,1.4s-7.1-.6-10.2-1.7-6.2-2.8-9.4-5l-1-.7-10.6,11.5,1.1.8c8.2,6.4,18.1,9.5,29.6,9.5s11.4-.8,16.1-2.5c4.7-1.7,8.7-4.2,11.9-7.6s5.6-7.5,7.2-12.3,2.4-10.2,2.4-16.2v-64.5h-16.3v8.3h.1Z"/>
    <path class="st0" d="M396.4,193c2.4-1.7,3.6-4.2,3.6-7.5s-.8-4.8-2.6-6.4-4.6-2.6-8.5-3.4l-2.8-.5c-2-.4-3.5-.8-4.3-1.4s-1.2-1.4-1.2-2.4c0-2.2,1.7-3.2,4.9-3.2s3.6.4,4.6,1.1c1,.7,1.4,1.8,1.6,3.4h7.2c-.1-3.4-1.3-5.9-3.6-7.7s-5.5-2.6-9.9-2.6-7.1.8-9.4,2.5c-2.2,1.7-3.2,4-3.2,6.9,0,5.4,3.6,8.8,10.8,10l2.6.5c2.3.4,3.8.8,4.6,1.4.8.5,1.2,1.3,1.2,2.4,0,2.4-1.8,3.7-5.5,3.7s-4.1-.4-5.3-1.2c-1.1-.7-1.7-2.2-1.8-4.1h-7.5c0,3.5,1.3,6.2,3.7,8.3,2.4,1.9,5.9,3,10.5,3s7.7-.8,10.1-2.6M345.4,179c0-3.1.8-5.6,2.4-7.3,1.6-1.8,3.6-2.6,6.3-2.6s4.7.8,6.3,2.6c1.6,1.8,2.4,4.2,2.4,7.3s-.8,5.6-2.4,7.3c-1.6,1.8-3.7,2.6-6.3,2.6s-4.7-.8-6.3-2.6c-1.6-1.8-2.4-4.2-2.4-7.3M366,191.1c3-3.1,4.6-7.1,4.6-12.1s-1.6-9-4.6-12.1c-3-3-7.1-4.6-12-4.6s-8.9,1.6-12,4.6c-3,3.1-4.6,7.1-4.6,12.1s1.6,9,4.6,12.1c3,3,7.1,4.6,12,4.6s8.9-1.6,12-4.6"/>
  </g>
  <rect class="st0" x="328.4" y="187.4" width="7.9" height="7.9"/>
</svg>