<?xml version="1.0" encoding="UTF-8"?>
<svg id="Layer_1" xmlns="http://www.w3.org/2000/svg" version="1.1" viewBox="0 0 1255.5 1274.5">
  <!-- Generator: Adobe Illustrator 29.5.1, SVG Export Plug-In . SVG Version: 2.1.0 Build 141)  -->
  <defs>
    <style>
      .st0 {
        fill: #c8f000;
      }

      .st1 {
        font-family: EuclidFlex-Bold, 'Euclid Flex';
        font-size: 128.6px;
        font-weight: 700;
      }

      .st1, .st2 {
        fill: #055;
      }
    </style>
  </defs>
  <rect class="st0" width="1255.5" height="1274.5"/>
  <g>
    <g>
      <path class="st2" d="M132.7,178.4c.7-2.6,2-4.8,3.9-6.4,2.1-1.8,4.5-2.7,7.3-2.7,3,0,5.5.9,7.8,2.7,2,1.7,3.4,3.8,4.2,6.4h-23.2ZM155.9,191.8c-1.1,1.1-2.3,2-3.7,2.7-2.2,1-4.5,1.5-7,1.5-3.5,0-6.3-1-8.6-3.1-2.2-1.9-3.5-4.4-4.1-7.6h33.5v-.7c-.2-4.7-1.2-8.8-3-12.2-1.9-3.5-4.4-6.2-7.7-8.1-3.3-1.9-7.1-2.8-11.4-2.8-4,0-7.6.9-11,2.7-3.3,1.8-5.9,4.4-7.8,7.6-1.9,3.2-2.9,6.9-2.9,10.9,0,4,1,7.7,2.9,10.9,1.9,3.2,4.7,5.8,8.1,7.6,3.5,1.8,7.4,2.7,11.9,2.7,4.3,0,8.2-.9,11.9-2.6,3-1.4,5.5-3.4,7.5-5.9l-8.5-3.7Z"/>
      <path class="st2" d="M271.8,178.4c.7-2.6,2-4.8,3.9-6.4,2.1-1.8,4.5-2.7,7.3-2.7,3,0,5.5.9,7.8,2.7,2,1.7,3.4,3.8,4.2,6.4h-23.2ZM295,191.8c-1.1,1.1-2.3,2-3.7,2.7-2.2,1-4.5,1.5-7,1.5-3.5,0-6.3-1-8.6-3.1-2.2-1.9-3.5-4.4-4.1-7.6h33.5v-.7c-.2-4.7-1.2-8.8-3-12.2-1.9-3.5-4.4-6.2-7.7-8.1-3.3-1.9-7.1-2.8-11.4-2.8-4,0-7.6.9-11,2.7-3.3,1.8-5.9,4.4-7.8,7.6-1.9,3.2-2.9,6.9-2.9,10.9,0,4,1,7.7,2.9,10.9,1.9,3.2,4.7,5.8,8.1,7.6,3.5,1.8,7.4,2.7,11.9,2.7,4.3,0,8.2-.9,11.9-2.6,3-1.4,5.5-3.4,7.5-5.9l-8.5-3.7Z"/>
      <path class="st2" d="M190.5,195.2c-2.3,0-4.3-.5-6.1-1.6-1.8-1.1-3.2-2.6-4.3-4.5-1.1-1.9-1.6-4.1-1.6-6.5,0-2.2.5-4.3,1.6-6.3,1-2,2.4-3.5,4.2-4.7,1.8-1.2,3.8-1.7,6-1.7,2.4,0,4.5.5,6.3,1.6,1.9,1.1,3.3,2.6,4.4,4.5,1.1,1.9,1.6,4,1.6,6.3,0,2.3-.5,4.4-1.6,6.4-1.1,2-2.5,3.6-4.4,4.8-1.8,1.2-3.9,1.8-6.2,1.8M211.9,194.6v-48.9h-17v8.2h7.7v13c-1.8-1.6-3.7-2.9-5.7-3.7-2.4-1.1-5-1.6-7.7-1.6-3.7,0-7.2,1-10.4,2.9-3.2,1.9-5.7,4.5-7.5,7.8-1.8,3.3-2.7,6.8-2.7,10.7,0,3.8.8,7.3,2.5,10.4,1.7,3.1,4.1,5.6,7.2,7.5,3.1,1.8,6.6,2.8,10.6,2.8,2.9,0,5.6-.6,8.1-1.7,2-.9,3.8-2.1,5.6-3.7v4.7h9.3v-8.2Z"/>
      <path class="st2" d="M248.3,183.1c0,2.3-.5,4.3-1.6,6.3-1.1,1.9-2.5,3.5-4.4,4.6-1.9,1.1-4,1.7-6.4,1.7-2.3,0-4.4-.6-6.2-1.7-1.8-1.1-3.2-2.6-4.2-4.5-1-1.9-1.5-4-1.5-6.3,0-2.3.5-4.3,1.6-6.3,1-1.9,2.5-3.5,4.3-4.6,1.8-1.1,3.9-1.7,6.1-1.7,2.3,0,4.4.6,6.2,1.8,1.9,1.2,3.3,2.7,4.4,4.7,1.1,2,1.6,4,1.6,6.1M248.3,167.2c-1.8-1.6-3.7-2.8-5.7-3.6-2.4-1.1-5-1.6-7.7-1.6-3.8,0-7.3,1-10.5,2.9-3.1,1.9-5.6,4.6-7.4,7.8-1.8,3.3-2.7,6.8-2.7,10.6,0,3.7.9,7.1,2.6,10.3,1.7,3.1,4.1,5.6,7.2,7.5,3.1,1.9,6.6,2.9,10.4,2.8,2.7,0,5.5-.6,8.2-1.8,2.1-.9,4-2.1,5.5-3.5v1.8c0,3.8-1.1,6.8-3.2,9-1,1.1-2.3,1.9-3.7,2.5-1.4.6-3.1.8-5,.8s-4-.3-5.8-.9c-1.8-.6-3.5-1.6-5.3-2.8l-.5-.4-6,6.6.6.5c4.7,3.6,10.3,5.4,16.8,5.4,3.4,0,6.5-.5,9.2-1.4,2.7-1,4.9-2.4,6.8-4.3,1.8-1.9,3.2-4.3,4.1-7,.9-2.7,1.4-5.8,1.4-9.2v-36.7h-9.3v4.7Z"/>
      <path class="st2" d="M347.5,179.5c1.4-1,2.1-2.4,2.1-4.3s-.5-2.8-1.5-3.6c-1-.9-2.6-1.5-4.8-1.9l-1.5-.3c-1.2-.2-2-.5-2.4-.8-.5-.3-.7-.8-.7-1.4,0-1.2.9-1.8,2.8-1.8s2,.2,2.6.6c.5.4.8,1.1.9,1.9h4.1c0-1.9-.8-3.4-2.1-4.4-1.3-1-3.2-1.5-5.6-1.5s-4.1.5-5.3,1.5c-1.2,1-1.9,2.3-1.9,3.9,0,3.1,2,5,6.1,5.7l1.5.3c1.3.2,2.2.5,2.6.8.5.3.7.8.7,1.4,0,1.4-1,2.1-3.1,2.1s-2.3-.2-3-.7c-.6-.4-1-1.2-1-2.3h-4.2c0,2,.7,3.6,2.1,4.7,1.4,1.1,3.4,1.7,5.9,1.7s4.4-.5,5.7-1.5M318.5,171.5c0-1.8.4-3.2,1.3-4.2.9-1,2.1-1.5,3.5-1.5s2.6.5,3.6,1.5c.9,1,1.3,2.4,1.3,4.2s-.4,3.2-1.3,4.2c-.9,1-2.1,1.5-3.6,1.5s-2.7-.5-3.5-1.5c-.9-1-1.3-2.4-1.3-4.2M330.2,178.3c1.7-1.7,2.6-4,2.6-6.9s-.9-5.1-2.6-6.9c-1.7-1.7-4-2.6-6.8-2.6s-5.1.9-6.8,2.6c-1.7,1.7-2.6,4-2.6,6.9s.9,5.1,2.6,6.9c1.7,1.7,4,2.6,6.8,2.6s5.1-.9,6.8-2.6"/>
    </g>
    <rect class="st2" x="308.8" y="176.2" width="4.5" height="4.5"/>
  </g>
  <text class="st1" transform="translate(122.1 901.7)"><tspan x="0" y="0">your</tspan><tspan x="0" y="110.4">retail media</tspan><tspan x="0" y="220.8">orchestrator</tspan></text>
</svg>