<svg width="316" height="224" viewBox="0 0 316 224" fill="none" xmlns="http://www.w3.org/2000/svg">
<g clip-path="url(#clip0_2135_18843)">
<g clip-path="url(#clip1_2135_18843)">
<rect x="249.943" y="61.5" width="68.2672" height="37.9262" rx="18.9631" transform="rotate(76.9263 249.943 61.5)" fill="#00C81E"/>
<g filter="url(#filter0_dd_2135_18843)">
<circle cx="242.624" cy="113.815" r="15.1705" transform="rotate(76.9263 242.624 113.815)" fill="#F1F5F9"/>
</g>
</g>
<g filter="url(#filter1_dd_2135_18843)">
<path d="M220.044 181.386C215.049 176.391 215.049 168.293 220.044 163.298L253.798 129.544C258.793 124.549 266.891 124.549 271.886 129.544L305.64 163.298C310.635 168.293 310.635 176.391 305.64 181.386L271.886 215.14C266.891 220.135 258.793 220.135 253.798 215.14L220.044 181.386Z" fill="white"/>
<path d="M253.77 163.269L271.915 181.413" stroke="#00C81E" stroke-width="3.66579" stroke-linecap="round" stroke-linejoin="round"/>
<path d="M253.77 181.415L271.915 163.27" stroke="#00C81E" stroke-width="3.66579" stroke-linecap="round" stroke-linejoin="round"/>
</g>
<path d="M0 57.4697C0 26.5585 25.0585 1.5 55.9697 1.5H161.03C191.942 1.5 217 26.5585 217 57.4697V219.5H55.9697C25.0585 219.5 0 194.442 0 163.53V57.4697Z" fill="#10351F"/>
<path d="M45.7127 100.483C45.5978 100.014 45.4167 99.6036 45.1694 99.2503C44.9221 98.8881 44.6129 98.5833 44.2419 98.336C43.8797 98.0798 43.4557 97.8899 42.9698 97.7662C42.4928 97.6337 41.9672 97.5675 41.393 97.5675C40.1563 97.5675 39.1007 97.8634 38.2262 98.4553C37.3605 99.0471 36.698 99.8995 36.2386 101.013C35.7881 102.126 35.5629 103.468 35.5629 105.041C35.5629 106.631 35.7793 107.991 36.2121 109.122C36.645 110.253 37.2898 111.118 38.1467 111.719C39.0035 112.32 40.068 112.62 41.34 112.62C42.4619 112.62 43.3938 112.457 44.1359 112.13C44.8867 111.803 45.4477 111.339 45.8187 110.738C46.1897 110.138 46.3752 109.431 46.3752 108.618L47.6472 108.751H41.446V103.504H53.4774V107.267C53.4774 109.74 52.9518 111.856 51.9006 113.614C50.8582 115.363 49.4184 116.705 47.581 117.642C45.7524 118.569 43.6544 119.033 41.287 119.033C38.6458 119.033 36.327 118.472 34.3306 117.35C32.3342 116.228 30.775 114.63 29.6532 112.554C28.5401 110.478 27.9836 108.009 27.9836 105.147C27.9836 102.903 28.3237 100.915 29.0039 99.184C29.6929 97.4526 30.647 95.9907 31.866 94.7981C33.085 93.5968 34.494 92.6913 36.0929 92.0818C37.6918 91.4635 39.4055 91.1543 41.234 91.1543C42.8417 91.1543 44.3346 91.384 45.7127 91.8433C47.0995 92.2938 48.323 92.9387 49.383 93.7779C50.4519 94.6082 51.3132 95.5932 51.9668 96.7327C52.6205 97.8722 53.018 99.1222 53.1594 100.483H45.7127ZM63.1237 118.662H55.1734L64.1307 91.5253H74.201L83.1583 118.662H75.208L69.2719 98.9985H69.0599L63.1237 118.662ZM61.6396 107.956H76.5861V113.468H61.6396V107.956ZM85.7719 91.5253H94.9412L101.248 106.896H101.566L107.874 91.5253H117.043V118.662H109.835V102.974H109.623L103.58 118.45H99.2343L93.1921 102.868H92.9801V118.662H85.7719V91.5253ZM120.534 118.662V91.5253H132.301C134.368 91.5253 136.104 91.8036 137.508 92.3601C138.921 92.9166 139.986 93.7028 140.701 94.7186C141.426 95.7345 141.788 96.9315 141.788 98.3095C141.788 99.3077 141.567 100.218 141.125 101.039C140.693 101.861 140.083 102.55 139.297 103.106C138.511 103.654 137.592 104.034 136.541 104.246V104.511C137.707 104.555 138.767 104.851 139.721 105.398C140.675 105.937 141.435 106.684 142 107.638C142.565 108.583 142.848 109.696 142.848 110.977C142.848 112.461 142.459 113.782 141.682 114.939C140.913 116.096 139.818 117.006 138.396 117.668C136.974 118.331 135.278 118.662 133.308 118.662H120.534ZM127.902 112.779H131.347C132.583 112.779 133.511 112.549 134.129 112.09C134.748 111.622 135.057 110.933 135.057 110.023C135.057 109.387 134.911 108.848 134.62 108.406C134.328 107.965 133.913 107.629 133.374 107.399C132.844 107.17 132.204 107.055 131.453 107.055H127.902V112.779ZM127.902 102.497H130.923C131.568 102.497 132.137 102.395 132.632 102.192C133.127 101.989 133.511 101.697 133.785 101.317C134.067 100.929 134.209 100.456 134.209 99.8995C134.209 99.0604 133.908 98.4199 133.308 97.9782C132.707 97.5277 131.947 97.3025 131.029 97.3025H127.902V102.497ZM152.826 91.5253V118.662H145.458V91.5253H152.826ZM155.575 97.4615V91.5253H179.161V97.4615H170.998V118.662H163.737V97.4615H155.575Z" fill="#00C81E"/>
<path d="M29.2172 136.157V125.981H32.6556C33.4507 125.981 34.1032 126.117 34.6134 126.388C35.1235 126.657 35.5012 127.026 35.7463 127.496C35.9914 127.967 36.114 128.502 36.114 129.101C36.114 129.701 35.9914 130.233 35.7463 130.696C35.5012 131.16 35.1252 131.525 34.6183 131.79C34.1115 132.051 33.4639 132.182 32.6755 132.182H29.8929V131.069H32.6358C33.179 131.069 33.6163 130.99 33.9475 130.831C34.2821 130.672 34.5239 130.446 34.673 130.155C34.8254 129.86 34.9016 129.509 34.9016 129.101C34.9016 128.694 34.8254 128.338 34.673 128.033C34.5206 127.728 34.2771 127.493 33.9426 127.327C33.608 127.159 33.1658 127.074 32.6159 127.074H30.4494V136.157H29.2172ZM34.0072 131.586L36.5115 136.157H35.0805L32.6159 131.586H34.0072ZM40.8465 136.316C40.1111 136.316 39.4768 136.154 38.9434 135.829C38.4134 135.501 38.0043 135.044 37.7161 134.458C37.4312 133.868 37.2888 133.183 37.2888 132.401C37.2888 131.619 37.4312 130.93 37.7161 130.334C38.0043 129.734 38.4051 129.267 38.9186 128.932C39.4353 128.595 40.0382 128.426 40.7273 128.426C41.1248 128.426 41.5173 128.492 41.9049 128.624C42.2925 128.757 42.6453 128.972 42.9633 129.27C43.2813 129.565 43.5347 129.956 43.7235 130.443C43.9123 130.93 44.0067 131.53 44.0067 132.242V132.739H38.1236V131.725H42.8142C42.8142 131.294 42.7281 130.91 42.5558 130.572C42.3869 130.234 42.1451 129.968 41.8304 129.772C41.519 129.577 41.1513 129.479 40.7273 129.479C40.2602 129.479 39.856 129.595 39.5148 129.827C39.177 130.055 38.9169 130.354 38.7347 130.721C38.5525 131.089 38.4614 131.483 38.4614 131.904V132.58C38.4614 133.156 38.5608 133.645 38.7596 134.045C38.9616 134.443 39.2416 134.746 39.5993 134.955C39.9571 135.16 40.3728 135.263 40.8465 135.263C41.1546 135.263 41.4328 135.22 41.6813 135.134C41.933 135.044 42.15 134.912 42.3322 134.736C42.5144 134.557 42.6552 134.335 42.7546 134.07L43.8875 134.388C43.7682 134.773 43.5678 135.11 43.2862 135.402C43.0047 135.69 42.6568 135.915 42.2428 136.078C41.8287 136.237 41.3633 136.316 40.8465 136.316ZM48.8299 128.525V129.519H44.8747V128.525H48.8299ZM46.0275 126.696H47.2001V133.971C47.2001 134.302 47.2482 134.551 47.3442 134.716C47.4436 134.879 47.5695 134.988 47.7219 135.044C47.8776 135.097 48.0415 135.124 48.2138 135.124C48.343 135.124 48.449 135.117 48.5318 135.104C48.6146 135.087 48.6809 135.074 48.7306 135.064L48.9691 136.117C48.8896 136.147 48.7786 136.177 48.6362 136.207C48.4937 136.24 48.3132 136.257 48.0945 136.257C47.7633 136.257 47.4387 136.185 47.1206 136.043C46.8059 135.901 46.5442 135.684 46.3356 135.392C46.1302 135.101 46.0275 134.733 46.0275 134.289V126.696ZM52.56 136.336C52.0764 136.336 51.6374 136.245 51.2432 136.063C50.849 135.877 50.536 135.611 50.3041 135.263C50.0722 134.912 49.9563 134.488 49.9563 133.991C49.9563 133.554 50.0424 133.199 50.2147 132.927C50.3869 132.652 50.6172 132.437 50.9054 132.281C51.1935 132.126 51.5116 132.01 51.8594 131.934C52.2105 131.854 52.5633 131.791 52.9178 131.745C53.3815 131.685 53.7575 131.64 54.0457 131.611C54.3372 131.578 54.5492 131.523 54.6817 131.447C54.8175 131.371 54.8854 131.238 54.8854 131.049V131.009C54.8854 130.519 54.7513 130.138 54.483 129.867C54.218 129.595 53.8155 129.459 53.2755 129.459C52.7157 129.459 52.2768 129.582 51.9588 129.827C51.6407 130.072 51.4171 130.334 51.288 130.612L50.1749 130.214C50.3737 129.751 50.6387 129.39 50.9699 129.131C51.3045 128.87 51.6689 128.687 52.0631 128.585C52.4606 128.479 52.8515 128.426 53.2358 128.426C53.4809 128.426 53.7625 128.455 54.0805 128.515C54.4018 128.571 54.7115 128.689 55.0097 128.868C55.3111 129.047 55.5612 129.317 55.76 129.678C55.9587 130.039 56.0581 130.522 56.0581 131.129V136.157H54.8854V135.124H54.8258C54.7463 135.289 54.6138 135.467 54.4283 135.655C54.2428 135.844 53.996 136.005 53.6879 136.137C53.3799 136.27 53.0039 136.336 52.56 136.336ZM52.7389 135.283C53.2026 135.283 53.5935 135.192 53.9115 135.009C54.2329 134.827 54.4747 134.592 54.637 134.304C54.8026 134.016 54.8854 133.713 54.8854 133.395V132.321C54.8358 132.381 54.7264 132.436 54.5575 132.485C54.3919 132.532 54.1997 132.573 53.9811 132.609C53.7658 132.643 53.5554 132.672 53.3501 132.699C53.148 132.722 52.984 132.742 52.8581 132.758C52.5534 132.798 52.2685 132.863 52.0035 132.952C51.7418 133.038 51.5298 133.169 51.3675 133.345C51.2085 133.517 51.129 133.752 51.129 134.05C51.129 134.458 51.2797 134.766 51.5811 134.975C51.8859 135.18 52.2718 135.283 52.7389 135.283ZM57.9186 136.157V128.525H59.0913V136.157H57.9186ZM58.5149 127.253C58.2863 127.253 58.0892 127.175 57.9236 127.019C57.7613 126.864 57.6801 126.677 57.6801 126.458C57.6801 126.239 57.7613 126.052 57.9236 125.896C58.0892 125.741 58.2863 125.663 58.5149 125.663C58.7434 125.663 58.9389 125.741 59.1012 125.896C59.2668 126.052 59.3496 126.239 59.3496 126.458C59.3496 126.677 59.2668 126.864 59.1012 127.019C58.9389 127.175 58.7434 127.253 58.5149 127.253ZM62.1319 125.981V136.157H60.9592V125.981H62.1319ZM67.6554 136.157V128.525H68.7883V129.718H68.8877C69.0467 129.31 69.3034 128.994 69.6578 128.768C70.0123 128.54 70.4379 128.426 70.9348 128.426C71.4384 128.426 71.8574 128.54 72.192 128.768C72.5299 128.994 72.7932 129.31 72.982 129.718H73.0615C73.257 129.323 73.5501 129.01 73.941 128.778C74.3319 128.543 74.8006 128.426 75.3472 128.426C76.0296 128.426 76.5878 128.639 77.0217 129.067C77.4557 129.491 77.6727 130.151 77.6727 131.049V136.157H76.5V131.049C76.5 130.486 76.346 130.084 76.0379 129.842C75.7298 129.6 75.3671 129.479 74.9497 129.479C74.4131 129.479 73.9973 129.641 73.7025 129.966C73.4077 130.287 73.2603 130.695 73.2603 131.188V136.157H72.0677V130.93C72.0677 130.496 71.927 130.147 71.6454 129.882C71.3638 129.613 71.0011 129.479 70.5572 129.479C70.2524 129.479 69.9676 129.56 69.7025 129.723C69.4409 129.885 69.2288 130.11 69.0665 130.398C68.9075 130.683 68.828 131.013 68.828 131.387V136.157H67.6554ZM82.7369 136.316C82.0015 136.316 81.3671 136.154 80.8338 135.829C80.3038 135.501 79.8947 135.044 79.6065 134.458C79.3216 133.868 79.1791 133.183 79.1791 132.401C79.1791 131.619 79.3216 130.93 79.6065 130.334C79.8947 129.734 80.2955 129.267 80.8089 128.932C81.3257 128.595 81.9286 128.426 82.6176 128.426C83.0151 128.426 83.4077 128.492 83.7952 128.624C84.1828 128.757 84.5356 128.972 84.8536 129.27C85.1716 129.565 85.425 129.956 85.6139 130.443C85.8027 130.93 85.8971 131.53 85.8971 132.242V132.739H80.0139V131.725H84.7045C84.7045 131.294 84.6184 130.91 84.4462 130.572C84.2772 130.234 84.0354 129.968 83.7207 129.772C83.4093 129.577 83.0416 129.479 82.6176 129.479C82.1505 129.479 81.7464 129.595 81.4052 129.827C81.0673 130.055 80.8073 130.354 80.6251 130.721C80.4429 131.089 80.3518 131.483 80.3518 131.904V132.58C80.3518 133.156 80.4512 133.645 80.6499 134.045C80.852 134.443 81.1319 134.746 81.4897 134.955C81.8474 135.16 82.2632 135.263 82.7369 135.263C83.0449 135.263 83.3232 135.22 83.5716 135.134C83.8234 135.044 84.0404 134.912 84.2226 134.736C84.4048 134.557 84.5455 134.335 84.6449 134.07L85.7778 134.388C85.6586 134.773 85.4582 135.11 85.1766 135.402C84.895 135.69 84.5472 135.915 84.1331 136.078C83.7191 136.237 83.2536 136.316 82.7369 136.316ZM90.283 136.316C89.647 136.316 89.0855 136.156 88.5986 135.834C88.1116 135.51 87.7307 135.052 87.4557 134.463C87.1808 133.87 87.0433 133.169 87.0433 132.361C87.0433 131.559 87.1808 130.864 87.4557 130.274C87.7307 129.684 88.1133 129.229 88.6035 128.908C89.0938 128.586 89.6603 128.426 90.3029 128.426C90.7998 128.426 91.1923 128.508 91.4805 128.674C91.772 128.836 91.994 129.022 92.1464 129.231C92.3021 129.436 92.423 129.605 92.5091 129.737H92.6085V125.981H93.7811V136.157H92.6482V134.985H92.5091C92.423 135.124 92.3004 135.299 92.1414 135.511C91.9824 135.72 91.7555 135.907 91.4607 136.073C91.1658 136.235 90.7733 136.316 90.283 136.316ZM90.442 135.263C90.9124 135.263 91.3099 135.14 91.6346 134.895C91.9592 134.647 92.206 134.304 92.3749 133.867C92.5439 133.426 92.6284 132.918 92.6284 132.341C92.6284 131.771 92.5455 131.273 92.3799 130.845C92.2143 130.415 91.9691 130.08 91.6445 129.842C91.3199 129.6 90.9191 129.479 90.442 129.479C89.9451 129.479 89.5311 129.607 89.1998 129.862C88.8719 130.113 88.6251 130.456 88.4594 130.89C88.2971 131.321 88.216 131.804 88.216 132.341C88.216 132.884 88.2988 133.378 88.4644 133.822C88.6334 134.262 88.8818 134.614 89.2098 134.875C89.541 135.134 89.9518 135.263 90.442 135.263ZM95.8118 136.157V128.525H96.9845V136.157H95.8118ZM96.4081 127.253C96.1795 127.253 95.9824 127.175 95.8168 127.019C95.6545 126.864 95.5733 126.677 95.5733 126.458C95.5733 126.239 95.6545 126.052 95.8168 125.896C95.9824 125.741 96.1795 125.663 96.4081 125.663C96.6367 125.663 96.8321 125.741 96.9944 125.896C97.1601 126.052 97.2429 126.239 97.2429 126.458C97.2429 126.677 97.1601 126.864 96.9944 127.019C96.8321 127.175 96.6367 127.253 96.4081 127.253ZM101.098 136.336C100.615 136.336 100.176 136.245 99.7816 136.063C99.3874 135.877 99.0744 135.611 98.8425 135.263C98.6106 134.912 98.4947 134.488 98.4947 133.991C98.4947 133.554 98.5808 133.199 98.7531 132.927C98.9253 132.652 99.1556 132.437 99.4437 132.281C99.7319 132.126 100.05 132.01 100.398 131.934C100.749 131.854 101.102 131.791 101.456 131.745C101.92 131.685 102.296 131.64 102.584 131.611C102.876 131.578 103.088 131.523 103.22 131.447C103.356 131.371 103.424 131.238 103.424 131.049V131.009C103.424 130.519 103.29 130.138 103.021 129.867C102.756 129.595 102.354 129.459 101.814 129.459C101.254 129.459 100.815 129.582 100.497 129.827C100.179 130.072 99.9555 130.334 99.8264 130.612L98.7133 130.214C98.9121 129.751 99.1771 129.39 99.5083 129.131C99.8429 128.87 100.207 128.687 100.602 128.585C100.999 128.479 101.39 128.426 101.774 128.426C102.019 128.426 102.301 128.455 102.619 128.515C102.94 128.571 103.25 128.689 103.548 128.868C103.85 129.047 104.1 129.317 104.298 129.678C104.497 130.039 104.596 130.522 104.596 131.129V136.157H103.424V135.124H103.364C103.285 135.289 103.152 135.467 102.967 135.655C102.781 135.844 102.534 136.005 102.226 136.137C101.918 136.27 101.542 136.336 101.098 136.336ZM101.277 135.283C101.741 135.283 102.132 135.192 102.45 135.009C102.771 134.827 103.013 134.592 103.175 134.304C103.341 134.016 103.424 133.713 103.424 133.395V132.321C103.374 132.381 103.265 132.436 103.096 132.485C102.93 132.532 102.738 132.573 102.519 132.609C102.304 132.643 102.094 132.672 101.888 132.699C101.686 132.722 101.522 132.742 101.397 132.758C101.092 132.798 100.807 132.863 100.542 132.952C100.28 133.038 100.068 133.169 99.9059 133.345C99.7469 133.517 99.6673 133.752 99.6673 134.05C99.6673 134.458 99.8181 134.766 100.12 134.975C100.424 135.18 100.81 135.283 101.277 135.283ZM111.285 131.566V136.157H110.113V128.525H111.245V129.718H111.345C111.524 129.33 111.795 129.019 112.16 128.783C112.524 128.545 112.994 128.426 113.571 128.426C114.088 128.426 114.54 128.532 114.927 128.744C115.315 128.952 115.616 129.27 115.832 129.698C116.047 130.122 116.155 130.658 116.155 131.308V136.157H114.982V131.387C114.982 130.788 114.826 130.32 114.515 129.986C114.204 129.648 113.776 129.479 113.233 129.479C112.859 129.479 112.524 129.56 112.229 129.723C111.938 129.885 111.708 130.122 111.539 130.433C111.37 130.744 111.285 131.122 111.285 131.566ZM121.218 136.316C120.482 136.316 119.848 136.154 119.315 135.829C118.785 135.501 118.375 135.044 118.087 134.458C117.802 133.868 117.66 133.183 117.66 132.401C117.66 131.619 117.802 130.93 118.087 130.334C118.375 129.734 118.776 129.267 119.29 128.932C119.806 128.595 120.409 128.426 121.098 128.426C121.496 128.426 121.888 128.492 122.276 128.624C122.664 128.757 123.016 128.972 123.334 129.27C123.652 129.565 123.906 129.956 124.095 130.443C124.283 130.93 124.378 131.53 124.378 132.242V132.739H118.495V131.725H123.185C123.185 131.294 123.099 130.91 122.927 130.572C122.758 130.234 122.516 129.968 122.202 129.772C121.89 129.577 121.522 129.479 121.098 129.479C120.631 129.479 120.227 129.595 119.886 129.827C119.548 130.055 119.288 130.354 119.106 130.721C118.924 131.089 118.833 131.483 118.833 131.904V132.58C118.833 133.156 118.932 133.645 119.131 134.045C119.333 134.443 119.613 134.746 119.97 134.955C120.328 135.16 120.744 135.263 121.218 135.263C121.526 135.263 121.804 135.22 122.052 135.134C122.304 135.044 122.521 134.912 122.703 134.736C122.886 134.557 123.026 134.335 123.126 134.07L124.259 134.388C124.139 134.773 123.939 135.11 123.657 135.402C123.376 135.69 123.028 135.915 122.614 136.078C122.2 136.237 121.734 136.316 121.218 136.316ZM129.201 128.525V129.519H125.246V128.525H129.201ZM126.399 126.696H127.571V133.971C127.571 134.302 127.619 134.551 127.715 134.716C127.815 134.879 127.941 134.988 128.093 135.044C128.249 135.097 128.413 135.124 128.585 135.124C128.714 135.124 128.82 135.117 128.903 135.104C128.986 135.087 129.052 135.074 129.102 135.064L129.34 136.117C129.261 136.147 129.15 136.177 129.007 136.207C128.865 136.24 128.684 136.257 128.466 136.257C128.134 136.257 127.81 136.185 127.492 136.043C127.177 135.901 126.915 135.684 126.707 135.392C126.501 135.101 126.399 134.733 126.399 134.289V126.696ZM132.414 136.157L130.089 128.525H131.321L132.971 134.368H133.05L134.68 128.525H135.932L137.542 134.349H137.622L139.271 128.525H140.504L138.178 136.157H137.026L135.356 130.294H135.237L133.567 136.157H132.414ZM144.615 136.316C143.926 136.316 143.322 136.152 142.802 135.824C142.285 135.496 141.881 135.038 141.589 134.448C141.301 133.858 141.157 133.169 141.157 132.381C141.157 131.586 141.301 130.892 141.589 130.299C141.881 129.706 142.285 129.245 142.802 128.918C143.322 128.59 143.926 128.426 144.615 128.426C145.304 128.426 145.907 128.59 146.424 128.918C146.944 129.245 147.348 129.706 147.636 130.299C147.928 130.892 148.074 131.586 148.074 132.381C148.074 133.169 147.928 133.858 147.636 134.448C147.348 135.038 146.944 135.496 146.424 135.824C145.907 136.152 145.304 136.316 144.615 136.316ZM144.615 135.263C145.139 135.263 145.569 135.129 145.907 134.86C146.245 134.592 146.495 134.239 146.657 133.802C146.82 133.365 146.901 132.891 146.901 132.381C146.901 131.871 146.82 131.395 146.657 130.955C146.495 130.514 146.245 130.158 145.907 129.886C145.569 129.615 145.139 129.479 144.615 129.479C144.092 129.479 143.661 129.615 143.323 129.886C142.985 130.158 142.735 130.514 142.573 130.955C142.411 131.395 142.329 131.871 142.329 132.381C142.329 132.891 142.411 133.365 142.573 133.802C142.735 134.239 142.985 134.592 143.323 134.86C143.661 135.129 144.092 135.263 144.615 135.263ZM149.584 136.157V128.525H150.717V129.678H150.796C150.935 129.3 151.187 128.994 151.551 128.759C151.916 128.523 152.327 128.406 152.784 128.406C152.87 128.406 152.977 128.407 153.107 128.411C153.236 128.414 153.334 128.419 153.4 128.426V129.618C153.36 129.608 153.269 129.593 153.127 129.573C152.987 129.55 152.84 129.539 152.684 129.539C152.313 129.539 151.982 129.616 151.691 129.772C151.402 129.925 151.174 130.137 151.005 130.408C150.839 130.677 150.756 130.983 150.756 131.327V136.157H149.584ZM155.603 133.375L155.583 131.924H155.822L159.161 128.525H160.612L157.054 132.122H156.955L155.603 133.375ZM154.51 136.157V125.981H155.683V136.157H154.51ZM159.36 136.157L156.378 132.381L157.213 131.566L160.85 136.157H159.36Z" fill="#00C81E"/>
</g>
<defs>
<filter id="filter0_dd_2135_18843" x="221.762" y="94.849" width="41.7255" height="41.7255" filterUnits="userSpaceOnUse" color-interpolation-filters="sRGB">
<feFlood flood-opacity="0" result="BackgroundImageFix"/>
<feColorMatrix in="SourceAlpha" type="matrix" values="0 0 0 0 0 0 0 0 0 0 0 0 0 0 0 0 0 0 127 0" result="hardAlpha"/>
<feOffset dy="1.89631"/>
<feGaussianBlur stdDeviation="1.89631"/>
<feColorMatrix type="matrix" values="0 0 0 0 0.0627451 0 0 0 0 0.0941176 0 0 0 0 0.156863 0 0 0 0.06 0"/>
<feBlend mode="normal" in2="BackgroundImageFix" result="effect1_dropShadow_2135_18843"/>
<feColorMatrix in="SourceAlpha" type="matrix" values="0 0 0 0 0 0 0 0 0 0 0 0 0 0 0 0 0 0 127 0" result="hardAlpha"/>
<feOffset dy="1.89631"/>
<feGaussianBlur stdDeviation="2.84447"/>
<feColorMatrix type="matrix" values="0 0 0 0 0.0627451 0 0 0 0 0.0941176 0 0 0 0 0.156863 0 0 0 0.1 0"/>
<feBlend mode="normal" in2="effect1_dropShadow_2135_18843" result="effect2_dropShadow_2135_18843"/>
<feBlend mode="normal" in="SourceGraphic" in2="effect2_dropShadow_2135_18843" result="shape"/>
</filter>
<filter id="filter1_dd_2135_18843" x="200.003" y="116.834" width="125.679" height="125.678" filterUnits="userSpaceOnUse" color-interpolation-filters="sRGB">
<feFlood flood-opacity="0" result="BackgroundImageFix"/>
<feColorMatrix in="SourceAlpha" type="matrix" values="0 0 0 0 0 0 0 0 0 0 0 0 0 0 0 0 0 0 127 0" result="hardAlpha"/>
<feMorphology radius="3.66579" operator="erode" in="SourceAlpha" result="effect1_dropShadow_2135_18843"/>
<feOffset dy="3.66579"/>
<feGaussianBlur stdDeviation="3.66579"/>
<feColorMatrix type="matrix" values="0 0 0 0 0.0627451 0 0 0 0 0.0941176 0 0 0 0 0.156863 0 0 0 0.06 0"/>
<feBlend mode="normal" in2="BackgroundImageFix" result="effect1_dropShadow_2135_18843"/>
<feColorMatrix in="SourceAlpha" type="matrix" values="0 0 0 0 0 0 0 0 0 0 0 0 0 0 0 0 0 0 127 0" result="hardAlpha"/>
<feMorphology radius="3.66579" operator="erode" in="SourceAlpha" result="effect2_dropShadow_2135_18843"/>
<feOffset dy="7.33159"/>
<feGaussianBlur stdDeviation="7.33159"/>
<feColorMatrix type="matrix" values="0 0 0 0 0.0627451 0 0 0 0 0.0941176 0 0 0 0 0.156863 0 0 0 0.1 0"/>
<feBlend mode="normal" in2="effect1_dropShadow_2135_18843" result="effect2_dropShadow_2135_18843"/>
<feBlend mode="normal" in="SourceGraphic" in2="effect2_dropShadow_2135_18843" result="shape"/>
</filter>
<clipPath id="clip0_2135_18843">
<rect width="316" height="224" fill="white"/>
</clipPath>
<clipPath id="clip1_2135_18843">
<rect x="249.943" y="61.5" width="68.2672" height="37.9262" rx="18.9631" transform="rotate(76.9263 249.943 61.5)" fill="white"/>
</clipPath>
</defs>
</svg>
