<svg width="40" height="40" viewBox="0 0 40 40" fill="none" xmlns="http://www.w3.org/2000/svg">
<path d="M0 8C0 3.58172 3.58172 0 8 0H32C36.4183 0 40 3.58172 40 8V32C40 36.4183 36.4183 40 32 40H8C3.58172 40 0 36.4183 0 32V8Z" fill="#00C81E"/>
<path d="M24.162 15.8329C24.0662 15.4423 23.9151 15.0996 23.7087 14.8048C23.5024 14.5027 23.2444 14.2484 22.9349 14.0421C22.6327 13.8283 22.279 13.6699 21.8736 13.5667C21.4757 13.4562 21.0372 13.4009 20.5581 13.4009C19.5264 13.4009 18.6457 13.6478 17.9161 14.1415C17.1938 14.6353 16.6411 15.3465 16.2579 16.2751C15.882 17.2037 15.6941 18.3239 15.6941 19.6357C15.6941 20.9623 15.8746 22.0972 16.2357 23.0406C16.5969 23.9839 17.1349 24.7061 17.8497 25.2073C18.5646 25.7084 19.4527 25.959 20.5139 25.959C21.4499 25.959 22.2274 25.8227 22.8465 25.55C23.4729 25.2773 23.9409 24.8904 24.2504 24.3892C24.5599 23.8881 24.7147 23.2985 24.7147 22.6205L25.7759 22.731H20.6024V18.3534H30.64V21.4929C30.64 23.5565 30.2015 25.3215 29.3245 26.7881C28.4549 28.2473 27.2536 29.3675 25.7207 30.1487C24.1951 30.9226 22.4448 31.3095 20.4697 31.3095C18.2661 31.3095 16.3316 30.8415 14.666 29.9055C13.0004 28.9696 11.6996 27.6356 10.7637 25.9037C9.83509 24.1718 9.37079 22.112 9.37079 19.7242C9.37079 17.8522 9.65453 16.194 10.222 14.7496C10.7968 13.3051 11.5928 12.0854 12.6098 11.0905C13.6268 10.0882 14.8023 9.33276 16.1363 8.82424C17.4702 8.30836 18.8999 8.05042 20.4255 8.05042C21.7668 8.05042 23.0123 8.24203 24.162 8.62526C25.319 9.00112 26.3397 9.53911 27.2241 10.2392C28.1159 10.932 28.8344 11.7537 29.3798 12.7044C29.9251 13.6551 30.2568 14.698 30.3747 15.8329H24.162Z" fill="#0F172A"/>
</svg>
