<?xml version="1.0" encoding="UTF-8"?>
<svg id="Layer_1" xmlns="http://www.w3.org/2000/svg" version="1.1" viewBox="0 0 800 468.7">
  <!-- Generator: Adobe Illustrator 29.5.1, SVG Export Plug-In . SVG Version: 2.1.0 Build 141)  -->
  <defs>
    <style>
      .st0 {
        fill: #00644c;
      }

      .st1 {
        fill: #fff;
      }

      .st2 {
        fill: #5ea000;
      }
    </style>
  </defs>
  <path class="st0" d="M699.1,217.7c-4.5,11-10.7,20.4-18.6,28.5-7.9,8.1-17.2,14.6-27.8,19.6s-22,8-34.2,9c-3.6.3-7.2.6-10.8.8-3.6.2-7.2.4-11,.4h-20.5V87.9h32.3c13.3,0,26,2.3,37.8,7s22.1,11.2,30.9,19.6c8.8,8.4,15.8,18.3,20.9,29.8,5.1,11.5,7.7,24.1,7.7,37.8s-2.2,24.7-6.7,35.6M793.3,133.1c-4.5-15.7-10.8-30.3-18.8-43.8s-17.8-25.8-29.2-36.7-24-20.3-37.8-28.1-28.6-13.9-44.5-18.1c-15.9-4.2-32.4-6.4-49.6-6.4h-120.6c-3.8,0-6.6,1.1-8.4,3.2-1.9,2.1-2.8,4.9-2.8,8.3v40.5c35.9,28,59.1,71.6,59.1,120.7s-23.1,92.7-59.1,120.7v59.9c0,4.3,1.1,7,3.4,8.3s4.9,2,7.8,2h120.6c17.2,0,33.7-2.1,49.7-6.2,16-4.1,30.9-10.1,44.6-17.7,13.8-7.7,26.3-17,37.7-27.9s21.1-23.1,29.2-36.5c8.2-13.5,14.5-28,18.8-43.5,4.4-15.6,6.6-32,6.6-49.3s-2.2-33.7-6.7-49.4"/>
  <path class="st0" d="M140.4,226.2c3.1-8.3,6.2-17.2,9.4-26.8,3.2-9.6,6.3-19.2,9.4-29,3.1-9.8,6.2-19.5,9.4-29.1s6.3-18.6,9.4-26.9l37.4,111.8h-75,0ZM341.4,316c-61.7-19.7-106.5-77.4-106.5-145.7s7.5-53.8,20.4-76.3l-28.3-72.8-6.1-13.9c-1-1.3-2.5-2.8-4.4-4.5-2-1.7-4.3-2.6-7.1-2.6h-62.6c-1.3,0-2.7.3-4.1.9-1.5.6-2.9,1.4-4.2,2.3-1.3,1-2.4,2.1-3.3,3.2-.9,1.2-1.4,2.2-1.6,3.2L.8,353.6c-1.3,3.3-.9,5.7,1.1,7.4,2,1.6,4.6,2.4,7.7,2.4h72.2c6.2,0,10.4-3,12.5-9,3.1-8.3,6.2-16.6,9.4-24.8,3.2-8.2,6.3-16.5,9.4-24.8h129.9c3.1,8.3,6.2,16.6,9.3,24.8,3.1,8.2,6.3,16.5,9.6,24.8,1.1,3.3,2.7,5.6,4.8,7,2,1.4,4.9,2.1,8.7,2.1h70.2c4.4,0,7.5-1,9.3-3.1,1.8-2,2-4.7.7-7.9l-14.2-36.5h0Z"/>
  <g>
    <polygon class="st0" points="375.6 174.3 347.1 175.8 351.9 192.6 379 191.6 375.6 174.3 379 191.6 379 191.6 375.6 174.3"/>
    <path class="st1" d="M419.2,143.6l-2,10.7,2-10.7Z"/>
    <polygon class="st0" points="419.2 190.2 419.2 190.2 444.8 189.3 449.8 170.3 422.5 171.7 419.2 190.2"/>
    <polygon class="st1" points="378.1 144.1 378.1 144.1 390.7 143.9 378.1 144.1"/>
    <path class="st1" d="M410.9,189.1c0,.2-8.9.3-8.9.5.1-.2,8.9-.3,8.9-.5l3.1-16.9h0l-3.1,16.9Z"/>
    <polygon class="st1" points="384 173.8 384 173.8 392.6 173.4 384 173.8"/>
    <polygon class="st1" points="351.9 192.6 351.9 192.6 349.3 183.6 351.9 192.6"/>
    <polygon class="st1" points="427.6 143.5 456.8 143.2 456.8 143.2 427.6 143.5"/>
    <polygon class="st1" points="449.8 170.3 444.8 189.3 444.8 189.3 449.8 170.3 441.9 170.7 449.8 170.3"/>
    <path class="st1" d="M452,161.8l1.8-6.9-1.8,6.9Z"/>
    <path class="st0" d="M513.3,169.9h0c-1.3-70-58.4-126.3-128.7-126.3s-128.8,57.6-128.8,128.8,57.6,128.8,128.8,128.8,14.4-.6,21.4-1.8h0c60.9-10.2,107.4-63.2,107.4-127v-2.5h0ZM368.9,235c-1.6,0-3.1-.3-4.4-1-3.6-1.7-6.2-5.4-6.2-9.6h0c.1-5.9,4.8-10.6,10.6-10.6s10.6,4.7,10.6,10.6-4.7,10.6-10.6,10.6ZM433.5,229.7c-1.8,3.2-5.2,5.3-9.1,5.3-5.9,0-10.6-4.7-10.6-10.6s1.9-6.9,4.7-8.8c1.7-1.1,3.7-1.8,5.9-1.8,5.8,0,10.6,4.7,10.6,10.6-.1,2-.6,3.8-1.5,5.3ZM466.3,140.1l-14.2,54.3c-.5,1.8-2,3-3.9,3.1l-94.7,3.4v.7c.1,0,85,.9,85,.9,2.2,0,4,1.8,3.9,4,0,2.2-1.8,4-4,3.9l-88.1-.9c-.7,0-1.3-.2-1.8-.5-1-.5-1.7-1.5-2-2.6l-1.9-8.5-13.5-47.2-5.9-20.7-20.6-12.6-.8-.7c-1.3-1.3-1.6-3.4-.5-5,1.2-2,3.7-2.6,5.7-1.4l22,13.4c.8.5,1.4,1.3,1.7,2.2v.3c.1,0,3,10.3,3,10.3h.7c0-.1,8.3-.2,8.3-.2l117.4-1.3c1.3,0,2.5.6,3.3,1.6.3.4.6.9.7,1.4.3.5.3,1.3.2,2.1h0Z"/>
    <g>
      <polygon class="st1" points="369.6 144.2 338.2 144.5 338.2 144.5 369.6 144.2 374 166.1 354.2 167.1 374 166.1 369.6 144.2"/>
      <polyline class="st0" points="344.7 167.7 344.7 167.7 374 166.1 369.6 144.2 338.2 144.5"/>
    </g>
    <polygon class="st1" points="351.8 192.6 379 191.6 379 191.6 351.8 192.6"/>
    <path class="st1" d="M347.1,175.8l2.2,7.8-2.2-7.8Z"/>
    <path class="st1" d="M414,172.2l-21.4,1.2,21.4-1.2Z"/>
    <path class="st0" d="M387.4,191.3h0l-3.5-17.5,30-1.6-3.1,18.3v-.9c0,.3-.1.6,0,.9l-23.4.8h0Z"/>
    <path class="st1" d="M384,173.8l1.7,8.8-1.7-8.8Z"/>
    <polygon class="st1" points="419.2 190.2 444.9 189.3 444.9 189.3 419.2 190.2"/>
    <polygon class="st2" points="441.9 170.7 422.5 171.7 420.9 180.6 422.5 171.7 441.9 170.7"/>
    <polygon class="st0" points="382.3 165.6 378.1 144.1 378.1 144.1 382.3 165.6 378.1 144.1 419.2 143.6 415.5 163.8 417.2 154.3 415.5 163.8 382.3 165.6"/>
    <path class="st1" d="M419.2,143.6l-28.5.3,28.5-.3Z"/>
    <path class="st1" d="M456.8,143.2l-3,11.7,3-11.7Z"/>
    <polygon class="st0" points="427.6 143.5 427.6 143.5 456.8 143.2 452 161.8 424 163.3 452 161.8 452 161.8 424 163.3 427.6 143.5"/>
  </g>
  <path class="st0" d="M130.4,462.1v-52.4h8.1v8.5c4.2-5.5,10.3-9.5,17.5-9.5v8.3c-1-.2-2-.3-3.3-.3-5,0-11.8,4.1-14.2,8.4v37.1h-8.1Z"/>
  <path class="st0" d="M171.8,432.6h34.4c-.1-7.8-5.3-17.5-17.2-17.5s-16.8,9.4-17.2,17.5M189,408.4c15.8,0,25.2,12.4,25.2,28.1v2.1h-42.4c.7,9.9,7.6,18.1,18.9,18.1s12-2.4,16.2-6.6l3.9,5.3c-5.2,5.2-12.3,8-20.8,8-15.5,0-26.7-11.2-26.7-27.5s10.7-27.5,25.7-27.5"/>
  <path class="st0" d="M228.9,451.1v-34.3h-8.7v-7.1h8.7v-14.3h8.1v14.3h10.6v7.2h-10.6v32.5c0,3.9,1.7,6.7,5.3,6.7s4.4-1,5.5-2.2l2.4,6.1c-2.1,2-5,3.4-9.8,3.4-7.6,0-11.5-4.5-11.5-12.3"/>
  <path class="st0" d="M291.9,441.1c-3.1-4.3-8.7-6.5-14.4-6.5s-12.9,4.8-12.9,11.5,5.3,11.4,12.9,11.4,11.3-2.2,14.4-6.5v-9.9ZM291.9,462.1v-6c-4.3,4.8-10.3,7.3-17.3,7.3s-18.3-6-18.3-17.3,9.4-17.2,18.3-17.2,13.1,2.3,17.3,7.2v-9.4c0-7-5.6-11.1-13.2-11.1s-11.4,2.3-16,7.3l-3.8-5.6c5.6-5.9,12.4-8.7,20.9-8.7s20.3,5,20.3,17.7v36h-8.2v-.2h0Z"/>
  <path class="st0" d="M316.4,409.7h8.1v52.4h-8.1v-52.4ZM315,395.4c0-3,2.5-5.4,5.4-5.4s5.5,2.4,5.5,5.4-2.5,5.5-5.5,5.5-5.4-2.5-5.4-5.5"/>
  <rect class="st0" x="340.8" y="389.7" width="8.1" height="72.3"/>
  <path class="st0" d="M456.4,462.1v-35.6c0-6.6-2.9-10.8-9.6-10.8s-11.2,3.9-13.9,8v38.4h-8.1v-35.6c0-6.6-2.8-10.8-9.6-10.8s-11,3.9-13.8,8.1v38.3h-8.1v-52.4h8.1v7.6c2.2-3.4,9.2-8.9,16.9-8.9s12.6,4.3,14.1,9.8c2.9-4.8,10-9.8,17.6-9.8s14.6,5.3,14.6,15.8v37.8h-8.2Z"/>
  <path class="st0" d="M486.4,432.6h34.4c0-7.8-5.3-17.5-17.2-17.5s-16.8,9.4-17.2,17.5M503.6,408.4c15.8,0,25.2,12.4,25.2,28.1v2.1h-42.4c.7,9.9,7.6,18.1,18.9,18.1s12-2.4,16.2-6.6l3.9,5.3c-5.2,5.2-12.3,8-20.8,8-15.5,0-26.7-11.2-26.7-27.5-.1-15.3,10.7-27.5,25.7-27.5"/>
  <path class="st0" d="M579.9,424.1c-2.9-4.6-9.2-8.5-15.7-8.5-10.5,0-16.8,8.7-16.8,20.3s6.3,20.2,16.8,20.2,12.8-3.7,15.7-8.2v-23.8ZM579.9,462.1v-7.8c-3.9,5.3-10.3,9.1-17.7,9.1-13.7,0-23.3-10.4-23.3-27.4s9.5-27.5,23.3-27.5,13.4,3.5,17.7,9.2v-28h8.1v72.3h-8.1Z"/>
  <path class="st0" d="M604.3,409.7h8.1v52.4h-8.1v-52.4ZM602.9,395.4c0-3,2.5-5.4,5.4-5.4s5.5,2.4,5.5,5.4-2.5,5.5-5.5,5.5-5.4-2.5-5.4-5.5"/>
  <path class="st0" d="M661.4,441.1c-3.1-4.3-8.7-6.5-14.4-6.5s-12.9,4.8-12.9,11.5,5.3,11.4,12.9,11.4,11.3-2.2,14.4-6.5v-9.9ZM661.4,462.1v-6c-4.3,4.8-10.3,7.3-17.3,7.3s-18.3-6-18.3-17.3,9.4-17.2,18.3-17.2,13.1,2.3,17.3,7.2v-9.4c0-7-5.6-11.1-13.2-11.1s-11.4,2.3-16,7.3l-3.8-5.6c5.6-5.9,12.4-8.7,20.9-8.7s20.3,5,20.3,17.7v36h-8.2v-.2Z"/>
</svg>