<svg width="40" height="40" viewBox="0 0 40 40" fill="none" xmlns="http://www.w3.org/2000/svg">
<g clip-path="url(#clip0_5348_2088)">
<path d="M34.9552 21.8066C34.73 22.3494 34.4212 22.8201 34.0251 23.2223C33.6291 23.6227 33.1677 23.9473 32.6372 24.1926C32.105 24.4397 31.5364 24.5876 30.926 24.6363C30.7443 24.6525 30.5663 24.6669 30.3865 24.6777C30.2066 24.6904 30.025 24.6958 29.8378 24.6958H28.8096V15.3609H30.4246C31.0913 15.3609 31.7235 15.4745 32.3139 15.7072C32.9061 15.938 33.4202 16.2626 33.8616 16.6792C34.3013 17.0958 34.65 17.5882 34.9062 18.1599C35.1623 18.7316 35.2931 19.3556 35.2931 20.0355C35.2931 20.6758 35.1823 21.2673 34.9571 21.8084M39.6657 17.608C39.4423 16.8289 39.128 16.1057 38.7247 15.4348C38.3232 14.7621 37.8346 14.1561 37.2642 13.6133C36.6919 13.0722 36.0634 12.6051 35.3749 12.2174C34.6864 11.8278 33.9434 11.5303 33.1495 11.3174C32.3538 11.1082 31.5291 11.0018 30.6717 11.0018H24.6441C24.4552 11.0018 24.3153 11.0559 24.2227 11.1605C24.1264 11.2651 24.081 11.404 24.081 11.5735V13.5826C25.8776 14.9713 27.0348 17.1373 27.0348 19.572C27.0348 22.0068 25.8776 24.1728 24.081 25.5615V28.5354C24.081 28.7464 24.1373 28.8835 24.2518 28.9484C24.3644 29.0134 24.497 29.0458 24.6441 29.0458H30.6717C31.5291 29.0458 32.3557 28.943 33.1568 28.7356C33.9543 28.53 34.6991 28.236 35.3894 27.8555C36.0779 27.475 36.7046 27.0133 37.2732 26.4704C37.84 25.9294 38.3287 25.3234 38.7338 24.6561C39.1425 23.9888 39.4568 23.2692 39.6748 22.4955C39.8964 21.72 40.0054 20.9066 40.0054 20.0482C40.0054 19.1897 39.8946 18.3835 39.6693 17.608" fill="white"/>
<path d="M7.0212 22.227C7.17561 21.8158 7.33366 21.3721 7.49352 20.8996C7.65338 20.4253 7.80961 19.9456 7.96584 19.4604C8.11844 18.9735 8.27648 18.4919 8.43634 18.014C8.59621 17.5379 8.75243 17.0924 8.90866 16.6794L10.7798 22.227H7.02302H7.0212ZM17.0671 26.6852C13.9788 25.7095 11.7426 22.8402 11.7426 19.4514C11.7426 18.0717 12.115 16.7804 12.7635 15.6659L11.352 12.0516L11.0468 11.3591C10.9978 11.2942 10.9233 11.2184 10.8252 11.1337C10.7271 11.0489 10.6108 11.0056 10.471 11.0056H7.33911C7.27371 11.0056 7.2065 11.0218 7.13202 11.0489C7.05753 11.076 6.9885 11.1156 6.92311 11.1625C6.85771 11.2112 6.80321 11.2653 6.75779 11.3212C6.71419 11.3789 6.68513 11.4294 6.67786 11.4799L0.0381419 28.5536C-0.0272561 28.716 -0.00727338 28.8386 0.0944569 28.9198C0.196187 29.0009 0.325167 29.0406 0.477762 29.0406H4.08737C4.3962 29.0406 4.60511 28.8909 4.71047 28.5915C4.86488 28.1785 5.02293 27.7673 5.18279 27.3579C5.34265 26.9485 5.49706 26.5373 5.65329 26.1243H12.1495C12.3057 26.5373 12.4583 26.9485 12.6127 27.3579C12.7671 27.7673 12.927 28.1785 13.0905 28.5915C13.1468 28.7538 13.2249 28.8693 13.3285 28.9378C13.4302 29.0063 13.5737 29.0406 13.7627 29.0406H17.2723C17.494 29.0406 17.6466 28.9883 17.7374 28.8891C17.8264 28.7881 17.8391 28.6582 17.7737 28.4959L17.0671 26.687V26.6852Z" fill="white"/>
<path d="M18.7802 19.6495L17.3541 19.7271L17.5921 20.5585L18.9527 20.5098L18.7802 19.6495L18.9527 20.5098L18.7802 19.6495Z" fill="white"/>
<path d="M20.9583 18.1274L20.862 18.6577L20.9583 18.1274Z" fill="white"/>
<path d="M20.9601 20.4395L22.2408 20.3926L22.4897 19.4493L21.1254 19.5233L20.9601 20.4395Z" fill="white"/>
<path d="M18.9019 18.1509L19.534 18.1437L18.9019 18.1509Z" fill="white"/>
<path d="M20.5459 20.3854C20.5459 20.3854 20.1027 20.4016 20.1027 20.4106C20.1027 20.4016 20.5441 20.3944 20.5459 20.3854Z" fill="white"/>
<path d="M19.1979 19.6279L19.6303 19.6045L19.1979 19.6279Z" fill="white"/>
<path d="M17.5921 20.5585L17.4649 20.113L17.5921 20.5585Z" fill="white"/>
<path d="M22.4896 19.4493L22.2408 20.3926L22.4896 19.4493L22.0936 19.471L22.4896 19.4493Z" fill="white"/>
<path d="M22.5987 19.031L22.6895 18.6884L22.5987 19.031Z" fill="white"/>
<path d="M25.6651 19.4331C25.6015 15.9578 22.744 13.1624 19.2288 13.1624C15.7137 13.1624 12.7908 16.0245 12.7908 19.5539C12.7908 23.0834 15.6737 25.9455 19.2288 25.9455C19.594 25.9455 19.95 25.9149 20.2988 25.8572C23.3453 25.3522 25.6669 22.7227 25.6669 19.5539C25.6669 19.5143 25.6669 19.4746 25.6669 19.4349L25.6651 19.4331ZM18.4459 22.6668C18.3678 22.6668 18.2933 22.6506 18.2261 22.6199C18.0444 22.5369 17.9173 22.353 17.9173 22.142V22.1366C17.9209 21.8498 18.157 21.6171 18.4477 21.6171C18.7384 21.6171 18.9763 21.8534 18.9763 22.142C18.9763 22.4305 18.7402 22.6668 18.4477 22.6668H18.4459ZM21.674 22.4035C21.5832 22.5604 21.4142 22.6668 21.218 22.6668C20.9256 22.6668 20.6876 22.4305 20.6876 22.142C20.6876 21.9598 20.7802 21.8011 20.9201 21.7055C21.0055 21.6496 21.1072 21.6153 21.2162 21.6153C21.5087 21.6153 21.7449 21.8516 21.7449 22.1402C21.7449 22.2357 21.7176 22.3241 21.6722 22.4017L21.674 22.4035ZM23.3126 17.9524L22.6041 20.6487C22.5805 20.737 22.5024 20.7984 22.4097 20.802L17.6738 20.9697L17.6811 21.004L21.9265 21.0472C22.0355 21.0472 22.1245 21.1374 22.1227 21.2456C22.1227 21.3538 22.0319 21.4422 21.9229 21.4404L17.5194 21.3953C17.4867 21.3953 17.4558 21.3863 17.4268 21.3719C17.3777 21.3448 17.3396 21.2979 17.3269 21.2402L17.2342 20.8182L16.5602 18.4755L16.266 17.4475L15.2377 16.8235L15.196 16.791C15.1324 16.7261 15.1179 16.6233 15.1687 16.5403C15.2287 16.4429 15.3558 16.4123 15.4539 16.4718L16.5512 17.1373C16.5911 17.1625 16.622 17.1986 16.6384 17.2437L16.642 17.2563L16.7891 17.7667L16.8218 17.7631L17.236 17.7595L23.1091 17.6963C23.1727 17.6963 23.2345 17.7252 23.2744 17.7757C23.2908 17.7973 23.3017 17.819 23.309 17.8442C23.3199 17.8803 23.3217 17.9182 23.3108 17.956L23.3126 17.9524Z" fill="white"/>
<path d="M18.4804 18.1544L16.9072 18.1725L18.4804 18.1544L18.6984 19.2419L17.7102 19.2942L18.6984 19.2419L18.4804 18.1544Z" fill="white"/>
<path d="M17.2379 19.3213L18.6984 19.2419L18.4804 18.1544L16.9072 18.1725" fill="white"/>
<path d="M17.3541 19.7272L17.4649 20.1131L17.3541 19.7272Z" fill="white"/>
<path d="M20.7003 19.5468L19.6303 19.6045L20.7003 19.5468Z" fill="white"/>
<path d="M19.3723 20.4954L19.1979 19.6279L20.6985 19.5468L20.544 20.4539L19.3705 20.4954H19.3723Z" fill="white"/>
<path d="M19.1979 19.6279L19.2851 20.0608L19.1979 19.6279Z" fill="white"/>
<path d="M22.0937 19.4711L21.1254 19.5234L21.0473 19.9616L21.1254 19.5234L22.0937 19.4711Z" fill="white"/>
<path d="M19.1162 19.2186L18.9019 18.1509L19.1162 19.2186L18.9019 18.1509L20.9583 18.1274L20.7766 19.1302L20.862 18.6577L20.7766 19.1302L19.1162 19.2186Z" fill="white"/>
<path d="M20.9583 18.1274L19.5341 18.1437L20.9583 18.1274Z" fill="white"/>
<path d="M22.8421 18.1075L22.6895 18.6883L22.8421 18.1075Z" fill="white"/>
<path d="M21.3815 18.1238L22.8421 18.1075L22.5986 19.0309L21.2017 19.1067L22.5986 19.0309L21.2017 19.1067L21.3815 18.1238Z" fill="white"/>
</g>
<defs>
<clipPath id="clip0_5348_2088">
<rect width="40" height="18" fill="white" transform="translate(0 11)"/>
</clipPath>
</defs>
</svg>