<svg width="886" height="1080" viewBox="0 0 886 1080" fill="none" xmlns="http://www.w3.org/2000/svg">
<g clip-path="url(#clip0_1630_19176)">
<rect width="886" height="1080" fill="#E5F4E5"/>
<g clip-path="url(#clip1_1630_19176)">
<rect width="1104.14" height="599.723" transform="translate(0 480)" fill="#E5F4E5"/>
<path d="M-176.839 874.472C-401.837 957.928 -309.742 992.422 -372.489 1078.64L-408.902 1149.43L1519.77 979.856C1523.76 766.223 1550.92 410.953 1490.48 476.194C1414.93 557.744 1345.6 587.483 1142 587.483C773.409 587.483 677.259 941.752 413.575 887.734C77.1072 818.804 -15.6249 814.674 -176.839 874.472Z" fill="#B2E7B5" stroke="#3C9650" stroke-width="1.16829"/>
<circle cx="31.5438" cy="831.656" r="5.84145" fill="#3B9350"/>
<circle cx="134.353" cy="838.665" r="5.84145" fill="#3B9350"/>
<circle cx="237.163" cy="853.853" r="5.84145" fill="#3B9350"/>
<circle cx="339.973" cy="871.378" r="5.84145" fill="#3B9350"/>
<circle cx="442.782" cy="891.238" r="5.84145" fill="#3B9350"/>
<circle cx="545.592" cy="880.724" r="5.84145" fill="#3B9350"/>
<circle cx="648.401" cy="826.983" r="5.84145" fill="#3B9350"/>
<circle cx="751.211" cy="748.707" r="5.84145" fill="#3B9350"/>
<circle cx="854.021" cy="673.936" r="5.84145" fill="#3B9350"/>
<path d="M747.706 562.949H1028.1" stroke="#01012E" stroke-opacity="0.08" stroke-width="1.16829"/>
<path d="M852.852 600.334L1028.1 600.334" stroke="#01012E" stroke-opacity="0.08" stroke-width="1.16829"/>
<path d="M794.438 637.719L1028.1 637.719" stroke="#01012E" stroke-opacity="0.08" stroke-width="1.16829"/>
<path d="M751.211 675.105L1028.1 675.105" stroke="#01012E" stroke-opacity="0.08" stroke-width="1.16829"/>
<path d="M640.223 712.49L1028.1 712.49" stroke="#01012E" stroke-opacity="0.08" stroke-width="1.16829"/>
<path d="M257.024 749.875L1028.1 749.875" stroke="#01012E" stroke-opacity="0.08" stroke-width="1.16829"/>
<path d="M70.0974 787.261L1028.1 787.261" stroke="#01012E" stroke-opacity="0.08" stroke-width="1.16829"/>
<path d="M0 824.646H1028.1" stroke="#01012E" stroke-opacity="0.08" stroke-width="1.16829"/>
<rect y="928.818" width="34.2699" height="128.512" fill="#00C81E"/>
<rect x="48.2893" y="899.611" width="34.2699" height="157.719" fill="#00C81E"/>
<rect x="96.5787" y="890.265" width="34.2699" height="167.066" fill="#00C81E"/>
<rect x="144.868" y="878.582" width="34.2699" height="178.749" fill="#00C81E"/>
<rect x="193.157" y="874.558" width="34.2699" height="182.773" fill="#00C81E"/>
<rect x="241.447" y="848.855" width="34.2699" height="208.475" fill="#00C81E"/>
<rect x="289.736" y="841.716" width="34.2699" height="215.615" fill="#00C81E"/>
<rect x="338.026" y="848.855" width="34.2699" height="208.475" fill="#00C81E"/>
<rect x="386.315" y="827.437" width="34.2699" height="229.894" fill="#00C81E"/>
<rect x="434.604" y="853.139" width="34.2699" height="204.191" fill="#00C81E"/>
<rect x="482.894" y="853.139" width="34.2699" height="204.191" fill="#00C81E"/>
<rect x="531.183" y="859.565" width="34.2699" height="197.766" fill="#00C81E"/>
<rect x="579.472" y="871.572" width="34.2699" height="185.758" fill="#00C81E"/>
<rect x="627.762" y="884.423" width="34.2699" height="172.907" fill="#00C81E"/>
<rect x="676.051" y="897.274" width="34.2699" height="160.056" fill="#00C81E"/>
<rect x="724.34" y="897.274" width="34.2699" height="160.056" fill="#00C81E"/>
<rect x="772.63" y="892.601" width="34.2699" height="164.729" fill="#00C81E"/>
<rect x="820.919" y="879.75" width="34.2699" height="177.58" fill="#00C81E"/>
<rect x="869.208" y="843.533" width="34.2699" height="213.797" fill="#00C81E"/>
<path d="M142.106 1001.17C16.556 990.272 -37.7608 864.083 -245.341 914.373L-194.261 1123.73H1478.88C1482.32 964.663 1744.91 748.521 1693.1 699.765C1541.49 557.091 1301.89 648.066 1156.61 715.995C1050.64 765.54 842.553 968.388 602.912 934.117C368.319 900.567 352.403 1019.42 142.106 1001.17Z" fill="#10351F"/>
</g>
<g filter="url(#filter0_d_1630_19176)">
<g clip-path="url(#clip2_1630_19176)">
<rect x="453.577" y="231.261" width="86.5297" height="48.0721" rx="24.036" transform="rotate(76.9263 453.577 231.261)" fill="#00C81E"/>
<g filter="url(#filter1_dd_1630_19176)">
<circle cx="444.301" cy="297.572" r="19.2288" transform="rotate(76.9263 444.301 297.572)" fill="#F1F5F9"/>
</g>
</g>
</g>
<g filter="url(#filter2_dd_1630_19176)">
<path d="M415.677 383.22C409.346 376.889 409.346 366.624 415.677 360.293L458.461 317.509C464.792 311.178 475.057 311.178 481.388 317.509L524.172 360.293C530.503 366.624 530.503 376.889 524.172 383.22L481.388 426.004C475.057 432.335 464.792 432.335 458.461 426.004L415.677 383.22Z" fill="white"/>
<path d="M458.426 360.257L481.424 383.256" stroke="#00C81E" stroke-width="5.07006" stroke-linecap="round" stroke-linejoin="round"/>
<path d="M458.426 383.256L481.424 360.257" stroke="#00C81E" stroke-width="5.07006" stroke-linecap="round" stroke-linejoin="round"/>
</g>
<g filter="url(#filter3_d_1630_19176)">
<path d="M136.768 226.154C136.768 186.973 168.53 155.211 207.711 155.211H340.877C380.057 155.211 411.819 186.973 411.819 226.154V431.53H207.711C168.53 431.53 136.768 399.768 136.768 360.587V226.154Z" fill="#10351F"/>
<path d="M194.709 279.928C194.564 279.335 194.334 278.814 194.021 278.366C193.707 277.907 193.315 277.521 192.845 277.208C192.386 276.883 191.849 276.642 191.233 276.485C190.628 276.317 189.962 276.233 189.234 276.233C187.667 276.233 186.329 276.609 185.22 277.359C184.123 278.109 183.283 279.189 182.701 280.6C182.13 282.011 181.844 283.713 181.844 285.706C181.844 287.721 182.119 289.446 182.667 290.879C183.216 292.312 184.033 293.409 185.119 294.171C186.206 294.932 187.555 295.313 189.167 295.313C190.589 295.313 191.77 295.105 192.711 294.691C193.663 294.277 194.374 293.689 194.844 292.928C195.314 292.166 195.549 291.271 195.549 290.241L197.162 290.408H189.301V283.758H204.551V288.527C204.551 291.663 203.885 294.344 202.553 296.572C201.232 298.789 199.406 300.491 197.078 301.678C194.76 302.854 192.101 303.441 189.1 303.441C185.752 303.441 182.813 302.73 180.282 301.308C177.752 299.886 175.776 297.86 174.354 295.229C172.943 292.597 172.238 289.468 172.238 285.84C172.238 282.996 172.669 280.477 173.531 278.282C174.404 276.088 175.613 274.235 177.159 272.723C178.704 271.201 180.49 270.053 182.516 269.28C184.543 268.496 186.715 268.105 189.033 268.105C191.071 268.105 192.963 268.396 194.709 268.978C196.467 269.549 198.018 270.366 199.362 271.43C200.716 272.483 201.808 273.731 202.637 275.175C203.465 276.62 203.969 278.204 204.148 279.928H194.709ZM216.778 302.971H206.701L218.055 268.575H230.819L242.172 302.971H232.095L224.571 278.047H224.302L216.778 302.971ZM214.897 289.401H233.842V296.388H214.897V289.401ZM245.485 268.575H257.107L265.102 288.057H265.505L273.499 268.575H285.122V302.971H275.985V283.086H275.716L268.058 302.702H262.549L254.89 282.951H254.622V302.971H245.485V268.575ZM289.547 302.971V268.575H304.461C307.081 268.575 309.281 268.928 311.062 269.633C312.853 270.338 314.202 271.335 315.109 272.622C316.027 273.91 316.486 275.427 316.486 277.174C316.486 278.439 316.206 279.592 315.647 280.634C315.098 281.675 314.325 282.548 313.329 283.254C312.332 283.948 311.168 284.429 309.835 284.698V285.034C311.313 285.09 312.657 285.465 313.866 286.159C315.076 286.842 316.038 287.788 316.755 288.998C317.472 290.196 317.83 291.607 317.83 293.23C317.83 295.111 317.337 296.785 316.352 298.252C315.378 299.719 313.989 300.872 312.187 301.712C310.384 302.551 308.234 302.971 305.738 302.971H289.547ZM298.885 295.514H303.252C304.819 295.514 305.995 295.223 306.779 294.641C307.563 294.047 307.954 293.174 307.954 292.021C307.954 291.215 307.77 290.532 307.4 289.972C307.031 289.412 306.504 288.986 305.821 288.695C305.15 288.404 304.338 288.259 303.386 288.259H298.885V295.514ZM298.885 282.481H302.714C303.532 282.481 304.254 282.352 304.881 282.095C305.508 281.837 305.995 281.468 306.342 280.986C306.7 280.494 306.88 279.895 306.88 279.189C306.88 278.126 306.499 277.314 305.738 276.754C304.976 276.183 304.013 275.898 302.849 275.898H298.885V282.481ZM330.477 268.575V302.971H321.139V268.575H330.477ZM333.962 276.099V268.575H363.857V276.099H353.511V302.971H344.307V276.099H333.962Z" fill="#00C81E"/>
</g>
<path d="M332.653 382.873L338.472 395.805L344.292 382.873C340.854 380.254 336.091 380.254 332.653 382.873Z" fill="#00C81E"/>
<path d="M351.986 388.047L343.696 399.552L357.806 398.126C358.355 393.84 355.973 389.714 351.986 388.047Z" fill="#00C81E"/>
<path d="M357.804 407.072L343.695 405.645L351.985 417.151C355.972 415.484 358.354 411.358 357.804 407.072Z" fill="#00C81E"/>
<path d="M323.839 417.154L332.128 405.648L318.019 407.074C317.47 411.361 319.851 415.486 323.839 417.154Z" fill="#00C81E"/>
<path d="M318.02 398.124L332.13 399.55L323.84 388.045C319.853 389.712 317.471 393.838 318.02 398.124Z" fill="#00C81E"/>
<path d="M333.949 433.125H368.866V442.824L361.753 464.163H333.949V433.125Z" fill="white"/>
<path d="M359.812 428.597C359.812 426.098 361.839 424.071 364.339 424.071C366.839 424.071 368.865 426.098 368.865 428.597V439.59H359.812V428.597Z" fill="white"/>
<path d="M352.053 424.72C352.053 422.22 354.08 420.194 356.58 420.194C359.079 420.194 361.106 422.22 361.106 424.72V435.712H352.053V424.72Z" fill="white"/>
<path d="M323.247 441.633C321.011 439.201 321.171 435.418 323.603 433.182C326.035 430.947 329.818 431.107 332.054 433.539L346.228 448.96L337.42 457.055L323.247 441.633Z" fill="white"/>
<path d="M342.999 422.133C342.999 419.633 345.026 417.607 347.525 417.607C350.025 417.607 352.052 419.633 352.052 422.133V435.712H342.999V422.133Z" fill="white"/>
<path d="M333.949 409.201C333.949 406.702 335.976 404.675 338.476 404.675C340.976 404.675 343.002 406.702 343.002 409.201V435.712H333.949V409.201Z" fill="white"/>
<path d="M173.802 326.411V313.513H178.161C179.168 313.513 179.995 313.685 180.642 314.029C181.289 314.369 181.767 314.837 182.078 315.433C182.389 316.03 182.544 316.708 182.544 317.468C182.544 318.228 182.389 318.902 182.078 319.489C181.767 320.077 181.291 320.539 180.648 320.875C180.006 321.207 179.185 321.373 178.186 321.373H174.659V319.962H178.135C178.824 319.962 179.378 319.861 179.798 319.66C180.222 319.458 180.529 319.172 180.718 318.803C180.911 318.429 181.007 317.984 181.007 317.468C181.007 316.951 180.911 316.5 180.718 316.114C180.524 315.727 180.216 315.429 179.792 315.219C179.368 315.005 178.807 314.898 178.11 314.898H175.364V326.411H173.802ZM179.874 320.617L183.048 326.411H181.234L178.11 320.617H179.874ZM188.543 326.613C187.61 326.613 186.806 326.407 186.13 325.995C185.459 325.58 184.94 325 184.575 324.257C184.214 323.51 184.033 322.641 184.033 321.65C184.033 320.659 184.214 319.785 184.575 319.03C184.94 318.27 185.448 317.678 186.099 317.254C186.754 316.825 187.518 316.611 188.391 316.611C188.895 316.611 189.393 316.695 189.884 316.863C190.375 317.031 190.822 317.304 191.226 317.682C191.629 318.056 191.95 318.551 192.189 319.168C192.429 319.785 192.548 320.545 192.548 321.448V322.078H185.091V320.793H191.037C191.037 320.247 190.927 319.76 190.709 319.332C190.495 318.904 190.188 318.566 189.79 318.318C189.395 318.07 188.929 317.946 188.391 317.946C187.799 317.946 187.287 318.093 186.855 318.387C186.426 318.677 186.097 319.055 185.866 319.521C185.635 319.987 185.519 320.487 185.519 321.02V321.876C185.519 322.607 185.645 323.226 185.897 323.734C186.153 324.238 186.508 324.622 186.962 324.887C187.415 325.147 187.942 325.277 188.543 325.277C188.933 325.277 189.286 325.223 189.601 325.114C189.92 325 190.195 324.832 190.426 324.61C190.657 324.383 190.835 324.102 190.961 323.766L192.397 324.169C192.246 324.656 191.992 325.084 191.635 325.454C191.278 325.819 190.837 326.105 190.312 326.31C189.788 326.512 189.198 326.613 188.543 326.613ZM198.662 316.737V317.997H193.648V316.737H198.662ZM195.11 314.419H196.596V323.64C196.596 324.06 196.657 324.375 196.779 324.585C196.904 324.79 197.064 324.929 197.257 325C197.455 325.068 197.662 325.101 197.881 325.101C198.044 325.101 198.179 325.093 198.284 325.076C198.389 325.055 198.473 325.038 198.536 325.026L198.838 326.361C198.737 326.399 198.597 326.436 198.416 326.474C198.236 326.516 198.007 326.537 197.73 326.537C197.31 326.537 196.898 326.447 196.495 326.266C196.096 326.086 195.765 325.811 195.5 325.441C195.24 325.072 195.11 324.606 195.11 324.043V314.419ZM203.39 326.638C202.777 326.638 202.22 326.522 201.721 326.291C201.221 326.056 200.824 325.718 200.53 325.277C200.236 324.832 200.089 324.295 200.089 323.665C200.089 323.111 200.199 322.662 200.417 322.317C200.635 321.969 200.927 321.696 201.292 321.499C201.658 321.301 202.061 321.154 202.502 321.058C202.947 320.957 203.394 320.877 203.843 320.818C204.431 320.743 204.907 320.686 205.273 320.648C205.642 320.606 205.911 320.537 206.079 320.44C206.251 320.344 206.337 320.176 206.337 319.937V319.886C206.337 319.265 206.167 318.782 205.827 318.438C205.491 318.093 204.981 317.921 204.297 317.921C203.587 317.921 203.031 318.077 202.628 318.387C202.224 318.698 201.941 319.03 201.777 319.382L200.366 318.879C200.618 318.291 200.954 317.833 201.374 317.506C201.798 317.174 202.26 316.943 202.76 316.813C203.264 316.678 203.759 316.611 204.246 316.611C204.557 316.611 204.914 316.649 205.317 316.725C205.724 316.796 206.117 316.945 206.495 317.172C206.877 317.398 207.194 317.741 207.446 318.198C207.698 318.656 207.823 319.269 207.823 320.037V326.411H206.337V325.101H206.262C206.161 325.311 205.993 325.536 205.758 325.775C205.523 326.014 205.21 326.218 204.819 326.386C204.429 326.554 203.952 326.638 203.39 326.638ZM203.616 325.303C204.204 325.303 204.7 325.187 205.103 324.956C205.51 324.725 205.816 324.427 206.022 324.062C206.232 323.697 206.337 323.312 206.337 322.909V321.549C206.274 321.625 206.136 321.694 205.921 321.757C205.712 321.816 205.468 321.868 205.191 321.914C204.918 321.956 204.651 321.994 204.391 322.028C204.135 322.057 203.927 322.082 203.767 322.103C203.381 322.154 203.02 322.235 202.684 322.349C202.352 322.458 202.084 322.624 201.878 322.846C201.676 323.065 201.576 323.363 201.576 323.741C201.576 324.257 201.767 324.648 202.149 324.912C202.535 325.172 203.024 325.303 203.616 325.303ZM210.182 326.411V316.737H211.668V326.411H210.182ZM210.937 315.125C210.648 315.125 210.398 315.026 210.188 314.829C209.982 314.631 209.879 314.394 209.879 314.117C209.879 313.84 209.982 313.603 210.188 313.405C210.398 313.208 210.648 313.109 210.937 313.109C211.227 313.109 211.475 313.208 211.681 313.405C211.891 313.603 211.996 313.84 211.996 314.117C211.996 314.394 211.891 314.631 211.681 314.829C211.475 315.026 211.227 315.125 210.937 315.125ZM215.522 313.513V326.411H214.036V313.513H215.522ZM222.523 326.411V316.737H223.959V318.249H224.085C224.287 317.732 224.612 317.331 225.061 317.046C225.511 316.756 226.05 316.611 226.68 316.611C227.318 316.611 227.849 316.756 228.273 317.046C228.702 317.331 229.035 317.732 229.275 318.249H229.376C229.623 317.749 229.995 317.352 230.49 317.058C230.986 316.76 231.58 316.611 232.273 316.611C233.138 316.611 233.845 316.882 234.395 317.424C234.945 317.961 235.22 318.799 235.22 319.937V326.411H233.734V319.937C233.734 319.223 233.539 318.713 233.148 318.406C232.758 318.1 232.298 317.946 231.769 317.946C231.089 317.946 230.562 318.152 230.188 318.564C229.814 318.971 229.628 319.487 229.628 320.113V326.411H228.116V319.785C228.116 319.235 227.938 318.792 227.581 318.457C227.224 318.116 226.764 317.946 226.201 317.946C225.815 317.946 225.454 318.049 225.118 318.255C224.786 318.461 224.518 318.746 224.312 319.112C224.11 319.473 224.01 319.89 224.01 320.365V326.411H222.523ZM241.639 326.613C240.707 326.613 239.903 326.407 239.227 325.995C238.555 325.58 238.037 325 237.671 324.257C237.31 323.51 237.13 322.641 237.13 321.65C237.13 320.659 237.31 319.785 237.671 319.03C238.037 318.27 238.545 317.678 239.196 317.254C239.851 316.825 240.615 316.611 241.488 316.611C241.992 316.611 242.489 316.695 242.981 316.863C243.472 317.031 243.919 317.304 244.322 317.682C244.725 318.056 245.047 318.551 245.286 319.168C245.525 319.785 245.645 320.545 245.645 321.448V322.078H238.188V320.793H244.133C244.133 320.247 244.024 319.76 243.806 319.332C243.592 318.904 243.285 318.566 242.886 318.318C242.492 318.07 242.026 317.946 241.488 317.946C240.896 317.946 240.384 318.093 239.951 318.387C239.523 318.677 239.193 319.055 238.963 319.521C238.732 319.987 238.616 320.487 238.616 321.02V321.876C238.616 322.607 238.742 323.226 238.994 323.734C239.25 324.238 239.605 324.622 240.058 324.887C240.512 325.147 241.039 325.277 241.639 325.277C242.03 325.277 242.382 325.223 242.697 325.114C243.016 325 243.291 324.832 243.522 324.61C243.753 324.383 243.932 324.102 244.058 323.766L245.494 324.169C245.343 324.656 245.089 325.084 244.732 325.454C244.375 325.819 243.934 326.105 243.409 326.31C242.884 326.512 242.294 326.613 241.639 326.613ZM251.204 326.613C250.398 326.613 249.686 326.409 249.069 326.002C248.452 325.59 247.969 325.011 247.62 324.263C247.272 323.512 247.098 322.624 247.098 321.599C247.098 320.583 247.272 319.701 247.62 318.954C247.969 318.207 248.454 317.629 249.075 317.222C249.697 316.815 250.415 316.611 251.229 316.611C251.859 316.611 252.357 316.716 252.722 316.926C253.091 317.132 253.373 317.367 253.566 317.632C253.763 317.892 253.917 318.106 254.026 318.274H254.152V313.513H255.638V326.411H254.202V324.925H254.026C253.917 325.101 253.761 325.324 253.56 325.592C253.358 325.857 253.07 326.094 252.697 326.304C252.323 326.51 251.826 326.613 251.204 326.613ZM251.406 325.277C252.002 325.277 252.506 325.122 252.917 324.811C253.329 324.496 253.641 324.062 253.856 323.508C254.07 322.949 254.177 322.305 254.177 321.574C254.177 320.852 254.072 320.22 253.862 319.678C253.652 319.133 253.341 318.708 252.93 318.406C252.518 318.1 252.01 317.946 251.406 317.946C250.776 317.946 250.251 318.108 249.831 318.431C249.415 318.75 249.103 319.185 248.893 319.735C248.687 320.281 248.584 320.894 248.584 321.574C248.584 322.263 248.689 322.888 248.899 323.451C249.113 324.009 249.428 324.455 249.844 324.786C250.264 325.114 250.784 325.277 251.406 325.277ZM258.212 326.411V316.737H259.698V326.411H258.212ZM258.968 315.125C258.678 315.125 258.428 315.026 258.218 314.829C258.012 314.631 257.91 314.394 257.91 314.117C257.91 313.84 258.012 313.603 258.218 313.405C258.428 313.208 258.678 313.109 258.968 313.109C259.257 313.109 259.505 313.208 259.711 313.405C259.921 313.603 260.026 313.84 260.026 314.117C260.026 314.394 259.921 314.631 259.711 314.829C259.505 315.026 259.257 315.125 258.968 315.125ZM264.913 326.638C264.3 326.638 263.743 326.522 263.244 326.291C262.744 326.056 262.347 325.718 262.053 325.277C261.759 324.832 261.612 324.295 261.612 323.665C261.612 323.111 261.722 322.662 261.94 322.317C262.158 321.969 262.45 321.696 262.815 321.499C263.181 321.301 263.584 321.154 264.025 321.058C264.47 320.957 264.917 320.877 265.366 320.818C265.954 320.743 266.431 320.686 266.796 320.648C267.165 320.606 267.434 320.537 267.602 320.44C267.774 320.344 267.86 320.176 267.86 319.937V319.886C267.86 319.265 267.69 318.782 267.35 318.438C267.014 318.093 266.504 317.921 265.82 317.921C265.11 317.921 264.554 318.077 264.151 318.387C263.748 318.698 263.464 319.03 263.3 319.382L261.89 318.879C262.142 318.291 262.477 317.833 262.897 317.506C263.321 317.174 263.783 316.943 264.283 316.813C264.787 316.678 265.282 316.611 265.769 316.611C266.08 316.611 266.437 316.649 266.84 316.725C267.247 316.796 267.64 316.945 268.018 317.172C268.4 317.398 268.717 317.741 268.969 318.198C269.221 318.656 269.347 319.269 269.347 320.037V326.411H267.86V325.101H267.785C267.684 325.311 267.516 325.536 267.281 325.775C267.046 326.014 266.733 326.218 266.342 326.386C265.952 326.554 265.475 326.638 264.913 326.638ZM265.139 325.303C265.727 325.303 266.223 325.187 266.626 324.956C267.033 324.725 267.34 324.427 267.545 324.062C267.755 323.697 267.86 323.312 267.86 322.909V321.549C267.797 321.625 267.659 321.694 267.445 321.757C267.235 321.816 266.991 321.868 266.714 321.914C266.441 321.956 266.174 321.994 265.914 322.028C265.658 322.057 265.45 322.082 265.291 322.103C264.904 322.154 264.543 322.235 264.207 322.349C263.876 322.458 263.607 322.624 263.401 322.846C263.2 323.065 263.099 323.363 263.099 323.741C263.099 324.257 263.29 324.648 263.672 324.912C264.058 325.172 264.547 325.303 265.139 325.303ZM277.825 320.592V326.411H276.338V316.737H277.774V318.249H277.9C278.127 317.757 278.471 317.363 278.933 317.065C279.395 316.762 279.991 316.611 280.722 316.611C281.377 316.611 281.95 316.746 282.441 317.014C282.932 317.279 283.315 317.682 283.587 318.224C283.86 318.761 283.997 319.441 283.997 320.264V326.411H282.51V320.365C282.51 319.605 282.313 319.013 281.918 318.589C281.524 318.161 280.982 317.946 280.294 317.946C279.819 317.946 279.395 318.049 279.021 318.255C278.652 318.461 278.36 318.761 278.146 319.156C277.932 319.55 277.825 320.029 277.825 320.592ZM290.414 326.613C289.482 326.613 288.678 326.407 288.002 325.995C287.33 325.58 286.812 325 286.446 324.257C286.085 323.51 285.905 322.641 285.905 321.65C285.905 320.659 286.085 319.785 286.446 319.03C286.812 318.27 287.32 317.678 287.971 317.254C288.626 316.825 289.39 316.611 290.263 316.611C290.767 316.611 291.264 316.695 291.756 316.863C292.247 317.031 292.694 317.304 293.097 317.682C293.5 318.056 293.822 318.551 294.061 319.168C294.3 319.785 294.42 320.545 294.42 321.448V322.078H286.963V320.793H292.908C292.908 320.247 292.799 319.76 292.581 319.332C292.367 318.904 292.06 318.566 291.661 318.318C291.267 318.07 290.8 317.946 290.263 317.946C289.671 317.946 289.159 318.093 288.726 318.387C288.298 318.677 287.968 319.055 287.737 319.521C287.507 319.987 287.391 320.487 287.391 321.02V321.876C287.391 322.607 287.517 323.226 287.769 323.734C288.025 324.238 288.38 324.622 288.833 324.887C289.287 325.147 289.814 325.277 290.414 325.277C290.805 325.277 291.157 325.223 291.472 325.114C291.791 325 292.066 324.832 292.297 324.61C292.528 324.383 292.707 324.102 292.833 323.766L294.269 324.169C294.118 324.656 293.863 325.084 293.507 325.454C293.15 325.819 292.709 326.105 292.184 326.31C291.659 326.512 291.069 326.613 290.414 326.613ZM300.533 316.737V317.997H295.52V316.737H300.533ZM296.981 314.419H298.468V323.64C298.468 324.06 298.528 324.375 298.65 324.585C298.776 324.79 298.936 324.929 299.129 325C299.326 325.068 299.534 325.101 299.752 325.101C299.916 325.101 300.05 325.093 300.155 325.076C300.26 325.055 300.344 325.038 300.407 325.026L300.71 326.361C300.609 326.399 300.468 326.436 300.288 326.474C300.107 326.516 299.878 326.537 299.601 326.537C299.181 326.537 298.77 326.447 298.367 326.266C297.968 326.086 297.636 325.811 297.372 325.441C297.111 325.072 296.981 324.606 296.981 324.043V314.419ZM304.606 326.411L301.659 316.737H303.221L305.312 324.144H305.412L307.478 316.737H309.065L311.106 324.119H311.207L313.298 316.737H314.86L311.912 326.411H310.451L308.335 318.979H308.184L306.067 326.411H304.606ZM320.071 326.613C319.198 326.613 318.431 326.405 317.772 325.989C317.117 325.573 316.605 324.992 316.235 324.245C315.87 323.497 315.687 322.624 315.687 321.625C315.687 320.617 315.87 319.737 316.235 318.986C316.605 318.234 317.117 317.65 317.772 317.235C318.431 316.819 319.198 316.611 320.071 316.611C320.944 316.611 321.708 316.819 322.363 317.235C323.023 317.65 323.535 318.234 323.9 318.986C324.27 319.737 324.454 320.617 324.454 321.625C324.454 322.624 324.27 323.497 323.9 324.245C323.535 324.992 323.023 325.573 322.363 325.989C321.708 326.405 320.944 326.613 320.071 326.613ZM320.071 325.277C320.734 325.277 321.28 325.107 321.708 324.767C322.137 324.427 322.454 323.98 322.659 323.426C322.865 322.872 322.968 322.271 322.968 321.625C322.968 320.978 322.865 320.375 322.659 319.817C322.454 319.259 322.137 318.807 321.708 318.463C321.28 318.119 320.734 317.946 320.071 317.946C319.407 317.946 318.862 318.119 318.433 318.463C318.005 318.807 317.688 319.259 317.482 319.817C317.277 320.375 317.174 320.978 317.174 321.625C317.174 322.271 317.277 322.872 317.482 323.426C317.688 323.98 318.005 324.427 318.433 324.767C318.862 325.107 319.407 325.277 320.071 325.277ZM326.369 326.411V316.737H327.805V318.198H327.905C328.082 317.72 328.401 317.331 328.863 317.033C329.325 316.735 329.845 316.586 330.425 316.586C330.534 316.586 330.67 316.588 330.834 316.592C330.998 316.597 331.122 316.603 331.206 316.611V318.123C331.155 318.11 331.04 318.091 330.859 318.066C330.683 318.037 330.496 318.022 330.299 318.022C329.828 318.022 329.409 318.121 329.039 318.318C328.674 318.511 328.384 318.78 328.17 319.124C327.96 319.464 327.855 319.853 327.855 320.289V326.411H326.369ZM333.998 322.884L333.973 321.045H334.276L338.508 316.737H340.347L335.837 321.297H335.711L333.998 322.884ZM332.613 326.411V313.513H334.099V326.411H332.613ZM338.76 326.411L334.981 321.625L336.039 320.592L340.649 326.411H338.76Z" fill="#00C81E"/>
</g>
<defs>
<filter id="filter0_d_1630_19176" x="392.812" y="226.615" width="94.2781" height="123.04" filterUnits="userSpaceOnUse" color-interpolation-filters="sRGB">
<feFlood flood-opacity="0" result="BackgroundImageFix"/>
<feColorMatrix in="SourceAlpha" type="matrix" values="0 0 0 0 0 0 0 0 0 0 0 0 0 0 0 0 0 0 127 0" result="hardAlpha"/>
<feMorphology radius="4.64645" operator="erode" in="SourceAlpha" result="effect1_dropShadow_1630_19176"/>
<feOffset dy="9.2929"/>
<feGaussianBlur stdDeviation="9.2929"/>
<feColorMatrix type="matrix" values="0 0 0 0 0.0627451 0 0 0 0 0.0941176 0 0 0 0 0.156863 0 0 0 0.1 0"/>
<feBlend mode="normal" in2="BackgroundImageFix" result="effect1_dropShadow_1630_19176"/>
<feBlend mode="normal" in="SourceGraphic" in2="effect1_dropShadow_1630_19176" result="shape"/>
</filter>
<filter id="filter1_dd_1630_19176" x="417.857" y="273.532" width="52.8878" height="52.8879" filterUnits="userSpaceOnUse" color-interpolation-filters="sRGB">
<feFlood flood-opacity="0" result="BackgroundImageFix"/>
<feColorMatrix in="SourceAlpha" type="matrix" values="0 0 0 0 0 0 0 0 0 0 0 0 0 0 0 0 0 0 127 0" result="hardAlpha"/>
<feOffset dy="2.4036"/>
<feGaussianBlur stdDeviation="2.4036"/>
<feColorMatrix type="matrix" values="0 0 0 0 0.0627451 0 0 0 0 0.0941176 0 0 0 0 0.156863 0 0 0 0.06 0"/>
<feBlend mode="normal" in2="BackgroundImageFix" result="effect1_dropShadow_1630_19176"/>
<feColorMatrix in="SourceAlpha" type="matrix" values="0 0 0 0 0 0 0 0 0 0 0 0 0 0 0 0 0 0 127 0" result="hardAlpha"/>
<feOffset dy="2.4036"/>
<feGaussianBlur stdDeviation="3.6054"/>
<feColorMatrix type="matrix" values="0 0 0 0 0.0627451 0 0 0 0 0.0941176 0 0 0 0 0.156863 0 0 0 0.1 0"/>
<feBlend mode="normal" in2="effect1_dropShadow_1630_19176" result="effect2_dropShadow_1630_19176"/>
<feBlend mode="normal" in="SourceGraphic" in2="effect2_dropShadow_1630_19176" result="shape"/>
</filter>
<filter id="filter2_dd_1630_19176" x="390.275" y="301.399" width="159.3" height="159.3" filterUnits="userSpaceOnUse" color-interpolation-filters="sRGB">
<feFlood flood-opacity="0" result="BackgroundImageFix"/>
<feColorMatrix in="SourceAlpha" type="matrix" values="0 0 0 0 0 0 0 0 0 0 0 0 0 0 0 0 0 0 127 0" result="hardAlpha"/>
<feMorphology radius="4.64645" operator="erode" in="SourceAlpha" result="effect1_dropShadow_1630_19176"/>
<feOffset dy="4.64645"/>
<feGaussianBlur stdDeviation="4.64645"/>
<feColorMatrix type="matrix" values="0 0 0 0 0.0627451 0 0 0 0 0.0941176 0 0 0 0 0.156863 0 0 0 0.06 0"/>
<feBlend mode="normal" in2="BackgroundImageFix" result="effect1_dropShadow_1630_19176"/>
<feColorMatrix in="SourceAlpha" type="matrix" values="0 0 0 0 0 0 0 0 0 0 0 0 0 0 0 0 0 0 127 0" result="hardAlpha"/>
<feMorphology radius="4.64645" operator="erode" in="SourceAlpha" result="effect2_dropShadow_1630_19176"/>
<feOffset dy="9.2929"/>
<feGaussianBlur stdDeviation="9.2929"/>
<feColorMatrix type="matrix" values="0 0 0 0 0.0627451 0 0 0 0 0.0941176 0 0 0 0 0.156863 0 0 0 0.1 0"/>
<feBlend mode="normal" in2="effect1_dropShadow_1630_19176" result="effect2_dropShadow_1630_19176"/>
<feBlend mode="normal" in="SourceGraphic" in2="effect2_dropShadow_1630_19176" result="shape"/>
</filter>
<filter id="filter3_d_1630_19176" x="122.829" y="150.565" width="302.929" height="304.197" filterUnits="userSpaceOnUse" color-interpolation-filters="sRGB">
<feFlood flood-opacity="0" result="BackgroundImageFix"/>
<feColorMatrix in="SourceAlpha" type="matrix" values="0 0 0 0 0 0 0 0 0 0 0 0 0 0 0 0 0 0 127 0" result="hardAlpha"/>
<feMorphology radius="4.64645" operator="erode" in="SourceAlpha" result="effect1_dropShadow_1630_19176"/>
<feOffset dy="9.2929"/>
<feGaussianBlur stdDeviation="9.2929"/>
<feColorMatrix type="matrix" values="0 0 0 0 0.0627451 0 0 0 0 0.0941176 0 0 0 0 0.156863 0 0 0 0.1 0"/>
<feBlend mode="normal" in2="BackgroundImageFix" result="effect1_dropShadow_1630_19176"/>
<feBlend mode="normal" in="SourceGraphic" in2="effect1_dropShadow_1630_19176" result="shape"/>
</filter>
<clipPath id="clip0_1630_19176">
<rect width="886" height="1080" fill="white"/>
</clipPath>
<clipPath id="clip1_1630_19176">
<rect width="1104.14" height="599.723" fill="white" transform="translate(0 480)"/>
</clipPath>
<clipPath id="clip2_1630_19176">
<rect x="453.577" y="231.261" width="86.5297" height="48.0721" rx="24.036" transform="rotate(76.9263 453.577 231.261)" fill="white"/>
</clipPath>
</defs>
</svg>
