<svg width="75" height="74" viewBox="0 0 75 74" fill="none" xmlns="http://www.w3.org/2000/svg">
<g clip-path="url(#clip0_2134_30521)">
<path d="M52.3321 24.8576C51.9364 23.3913 51.3545 22.0996 50.5865 20.9825C49.8184 19.842 48.8758 18.8761 47.7587 18.0848C46.6415 17.2935 45.3614 16.7 43.9184 16.3043C42.4754 15.8854 40.8928 15.6759 39.1705 15.6759C35.7026 15.6759 32.7003 16.5138 30.1634 18.1895C27.6497 19.8653 25.7064 22.3091 24.3332 25.5209C22.96 28.7095 22.2734 32.5846 22.2734 37.1464C22.2734 41.7314 22.9367 45.6415 24.2634 48.8766C25.59 52.1117 27.5101 54.5788 30.0237 56.2778C32.5373 57.9768 35.5863 58.8263 39.1705 58.8263C42.3358 58.8263 45.0123 58.3143 47.2001 57.2902C49.4111 56.2429 51.0869 54.765 52.2273 52.8565C53.3678 50.948 53.938 48.702 53.938 46.1186L57.1498 46.5026H39.764V33.8996H70.5907V43.3606C70.5907 49.761 69.2291 55.2421 66.5061 59.8038C63.8062 64.3656 60.0824 67.8684 55.3344 70.3121C50.6098 72.7559 45.1752 73.9778 39.0308 73.9778C32.2115 73.9778 26.2184 72.4999 21.0515 69.5441C15.8846 66.5883 11.8582 62.3756 8.97219 56.9062C6.08619 51.4135 4.64319 44.8967 4.64319 37.3559C4.64319 31.4908 5.51597 26.289 7.26154 21.7505C9.0071 17.1888 11.4393 13.3252 14.558 10.1599C17.7 6.99465 21.3308 4.5974 25.4503 2.9682C29.5931 1.33901 34.0502 0.524414 38.8214 0.524414C42.9642 0.524414 46.8161 1.11791 50.377 2.30489C53.9613 3.49188 57.1265 5.16762 59.8729 7.33212C62.6425 9.49663 64.8885 12.0684 66.6108 15.0475C68.3331 18.0266 69.4037 21.2967 69.8226 24.8576H52.3321Z" fill="#00C81E"/>
</g>
<defs>
<clipPath id="clip0_2134_30521">
<rect width="73.45" height="73.4534" fill="white" transform="translate(0.643188 0.524414)"/>
</clipPath>
</defs>
</svg>
