<svg width="267" height="88" viewBox="0 0 267 88" fill="none" xmlns="http://www.w3.org/2000/svg">
<g clip-path="url(#clip0_2737_15423)">
<path d="M100.747 37.4166H102.944L106.575 45.6827H113.324L108.375 36.0134C110.693 34.8739 111.855 32.9327 111.855 30.187C111.855 29.0475 111.641 28.0373 111.212 27.1511C110.783 26.2675 110.153 25.529 109.317 24.9382C108.97 24.6929 108.623 24.4951 108.277 24.3447C107.93 24.1918 107.538 24.0652 107.099 23.9623C106.66 23.8594 106.162 23.7909 105.601 23.7487C105.04 23.7091 104.384 23.688 103.629 23.688H94.5542V45.6827H100.737V37.4166H100.747ZM100.747 28.4488H103.013C103.277 28.4488 103.502 28.4541 103.685 28.4646C103.868 28.4752 104.021 28.491 104.143 28.5095C104.611 28.5912 104.984 28.8154 105.26 29.1794C105.535 29.546 105.672 29.9918 105.672 30.5219C105.672 31.2341 105.458 31.7537 105.029 32.0781C104.601 32.4025 103.897 32.5661 102.917 32.5661H100.745V28.4488H100.747Z" fill="url(#paint0_linear_2737_15423)"/>
<path d="M120.8 28.2961C119.575 28.2961 118.469 28.5097 117.479 28.937C116.489 29.3643 115.642 29.9683 114.938 30.7517C114.234 31.535 113.694 32.474 113.316 33.5739C112.937 34.6711 112.75 35.9029 112.75 37.2638C112.75 38.6248 112.927 39.8882 113.284 40.9855C113.641 42.0827 114.16 43.0138 114.846 43.776C115.528 44.5383 116.357 45.1238 117.325 45.53C118.294 45.9362 119.392 46.1393 120.615 46.1393C122.534 46.1393 124.151 45.7014 125.466 44.8284C126.782 43.9554 127.748 42.663 128.359 40.9538L123.399 39.337C123.217 39.7247 123.042 40.0491 122.878 40.3129C122.714 40.5766 122.56 40.8008 122.42 40.9828C122.013 41.513 121.451 41.7767 120.737 41.7767C120.022 41.7767 119.422 41.4629 118.993 40.8298C118.564 40.1995 118.35 39.3159 118.35 38.1764H128.542C128.42 31.5878 125.837 28.2935 120.798 28.2935L120.8 28.2961ZM118.442 35.3727C118.482 34.3968 118.723 33.6451 119.162 33.1149C119.602 32.5874 120.176 32.321 120.89 32.321C121.605 32.321 122.161 32.5848 122.558 33.1149C122.955 33.6451 123.164 34.3968 123.185 35.3727H118.44H118.442Z" fill="url(#paint1_linear_2737_15423)"/>
<path d="M131.165 39.6427C131.165 40.2731 131.191 40.8217 131.241 41.2912C131.292 41.7581 131.368 42.1801 131.472 42.5573C131.575 42.9344 131.718 43.2694 131.903 43.5648C132.088 43.8602 132.313 44.1398 132.58 44.4036C133.708 45.543 135.349 46.1127 137.5 46.1127C137.908 46.1127 138.305 46.0916 138.694 46.052C139.08 46.0098 139.552 45.9386 140.102 45.8384L140.499 45.7777L140.653 45.7461V41.4442C140.327 41.526 140.044 41.5814 139.811 41.613C139.575 41.6447 139.316 41.6579 139.03 41.6579C138.419 41.6579 137.929 41.526 137.561 41.2622C137.193 40.9985 136.979 40.6213 136.918 40.1333C136.897 40.0331 136.886 39.896 136.886 39.7219V32.5371H140.653V28.7548H136.886V24.3633H131.133V28.7548H129.143V32.5371H131.162V39.6454L131.165 39.6427Z" fill="url(#paint2_linear_2737_15423)"/>
<path d="M149.174 35.4646L147.459 35.8919C145.54 36.3614 144.127 37.0261 143.219 37.8912C142.312 38.7563 141.856 39.8694 141.856 41.2304C141.856 41.9425 141.983 42.5993 142.24 43.198C142.494 43.7967 142.857 44.311 143.328 44.7383C143.796 45.1656 144.352 45.5006 144.995 45.7459C145.638 45.9912 146.348 46.1125 147.123 46.1125C147.838 46.1125 148.547 46.007 149.251 45.7934C149.955 45.5797 150.603 45.2711 151.194 44.8623C151.376 44.741 151.54 44.6144 151.683 44.4825C151.826 44.3506 152.009 44.1713 152.234 43.9497L152.509 45.6879H157.744C157.702 45.4848 157.678 45.3054 157.667 45.1551C157.657 45.0021 157.646 44.8465 157.638 44.6829C157.627 44.5194 157.622 44.3269 157.622 44.1027V34.2487C157.622 32.2758 157.013 30.7908 155.801 29.7938C154.586 28.7968 152.805 28.2983 150.46 28.2983C148.542 28.2983 146.972 28.6597 145.747 29.3824C144.522 30.1051 143.532 31.2471 142.777 32.8139L147.737 34.3384C148.266 33.0776 149.095 32.4472 150.217 32.4472C150.746 32.4472 151.159 32.5897 151.456 32.8745C151.752 33.1594 151.919 33.5366 151.961 34.0034L151.993 34.6127C151.461 34.8158 150.992 34.974 150.585 35.0848C150.177 35.1982 149.706 35.3248 149.177 35.4673L149.174 35.4646ZM151.485 38.3317C151.638 38.2499 151.805 38.1602 151.99 38.0574V39.6425C151.99 40.3151 151.694 40.9455 151.104 41.5337C150.818 41.8185 150.487 42.0375 150.108 42.1904C149.73 42.3434 149.349 42.4199 148.96 42.4199C147.959 42.4199 147.459 41.9821 147.459 41.109C147.459 40.6422 147.618 40.2597 147.933 39.9643C148.248 39.6689 148.846 39.3709 149.725 39.0649C150.032 38.9647 150.286 38.8724 150.49 38.7906C150.693 38.7088 150.873 38.6324 151.024 38.5611C151.178 38.4899 151.331 38.4134 151.482 38.3317H151.485Z" fill="url(#paint3_linear_2737_15423)"/>
<path d="M165.636 28.752H159.851V45.6825H165.636V28.752Z" fill="url(#paint4_linear_2737_15423)"/>
<path d="M165.634 21.9497H159.88V27.1062H165.634V21.9497Z" fill="url(#paint5_linear_2737_15423)"/>
<path d="M173.743 21.9497H168.018V45.6826H173.743V21.9497Z" fill="url(#paint6_linear_2737_15423)"/>
<path d="M189.17 34.7315C189.17 34.5891 189.154 34.3807 189.125 34.1064C189.093 33.8321 189.058 33.4918 189.016 33.0857C188.974 32.8615 188.939 32.5924 188.91 32.2786C188.878 31.9647 188.844 31.6033 188.802 31.1945L189.109 32.1414L189.416 33.0567C189.58 33.505 189.702 33.869 189.784 34.1539C189.866 34.4387 189.927 34.6313 189.966 34.7341L194.926 45.6854H196.456L201.323 34.7341C201.466 34.4282 201.587 34.1486 201.691 33.8954C201.791 33.6422 201.905 33.3732 202.027 33.0857C202.13 32.8008 202.22 32.5529 202.302 32.3392C202.384 32.1256 202.495 31.817 202.638 31.4082L202.545 32.2627L202.453 33.1463C202.41 33.6554 202.376 34.0273 202.347 34.2594C202.315 34.4941 202.302 34.6524 202.302 34.7315V45.6827H208.27V23.688H200.862L196.424 33.6316C196.241 34.0378 196.093 34.5311 195.979 35.1113C195.865 35.6916 195.77 36.3457 195.688 37.0789C195.545 36.3061 195.392 35.6045 195.228 34.9742C195.064 34.3438 194.921 33.8875 194.799 33.6026L190.421 23.688H183.228V45.6827H189.167V34.7315H189.17Z" fill="url(#paint7_linear_2737_15423)"/>
<path d="M217.718 28.2961C216.493 28.2961 215.386 28.5097 214.396 28.937C213.407 29.3643 212.56 29.9683 211.856 30.7517C211.152 31.535 210.612 32.474 210.233 33.5739C209.855 34.6711 209.667 35.9029 209.667 37.2638C209.667 38.6248 209.847 39.8882 210.202 40.9855C210.559 42.0827 211.078 43.0138 211.763 43.776C212.446 44.5383 213.272 45.1238 214.243 45.53C215.212 45.9362 216.31 46.1393 217.533 46.1393C219.451 46.1393 221.068 45.7014 222.384 44.8284C223.699 43.9554 224.665 42.663 225.277 40.9538L220.317 39.337C220.134 39.7247 219.96 40.0491 219.795 40.3129C219.631 40.5766 219.478 40.8008 219.335 40.9828C218.927 41.513 218.366 41.7767 217.652 41.7767C216.937 41.7767 216.336 41.4629 215.908 40.8298C215.479 40.1995 215.265 39.3159 215.265 38.1764H225.456C225.335 31.5878 222.752 28.2935 217.713 28.2935L217.718 28.2961ZM215.36 35.3727C215.399 34.3968 215.64 33.6451 216.08 33.1149C216.519 32.5874 217.093 32.321 217.811 32.321C218.528 32.321 219.081 32.5848 219.478 33.1149C219.875 33.6451 220.084 34.3968 220.105 35.3727H215.36Z" fill="url(#paint8_linear_2737_15423)"/>
<path d="M242.196 44.0341V21.9497H236.472V29.6989C235.961 29.1898 235.416 28.8259 234.834 28.6017C234.251 28.3775 233.603 28.2667 232.891 28.2667C231.87 28.2667 230.956 28.4751 230.152 28.8918C229.345 29.3085 228.657 29.9046 228.085 30.6774C227.513 31.4502 227.074 32.3866 226.77 33.4838C226.463 34.581 226.309 35.8128 226.309 37.1738C226.309 38.5348 226.457 39.7982 226.754 40.8954C227.05 41.9926 227.474 42.929 228.024 43.7018C228.575 44.4746 229.239 45.0707 230.014 45.4874C230.79 45.9041 231.666 46.1125 232.648 46.1125C233.444 46.1125 234.148 45.9754 234.76 45.7011C235.371 45.4267 235.974 44.9942 236.565 44.4034L236.901 45.6852H242.257C242.236 45.3001 242.223 44.9995 242.212 44.7858C242.202 44.5722 242.196 44.3242 242.196 44.0394V44.0341ZM236.533 40.1595C236.43 40.687 236.215 41.1117 235.89 41.4255C235.564 41.7421 235.175 41.8977 234.728 41.8977C233.198 41.8977 232.433 40.3125 232.433 37.1395C232.433 33.9665 233.169 32.3206 234.638 32.3206C235.106 32.3206 235.514 32.4683 235.863 32.7638C236.21 33.0592 236.435 33.439 236.535 33.9085V40.1622L236.533 40.1595Z" fill="url(#paint9_linear_2737_15423)"/>
<path d="M250.16 28.752H244.375V45.6825H250.16V28.752Z" fill="url(#paint10_linear_2737_15423)"/>
<path d="M250.157 21.9497H244.403V27.1062H250.157V21.9497Z" fill="url(#paint11_linear_2737_15423)"/>
<path d="M266.926 45.1473C266.915 44.9943 266.905 44.8387 266.894 44.6751C266.884 44.5116 266.878 44.3191 266.878 44.0949V34.2409C266.878 32.268 266.27 30.783 265.057 29.786C263.843 28.789 262.061 28.2905 259.717 28.2905C257.798 28.2905 256.228 28.6519 255.003 29.3746C253.778 30.0973 252.788 31.2393 252.034 32.8061L256.993 34.3306C257.523 33.0698 258.351 32.4394 259.473 32.4394C260.002 32.4394 260.418 32.5819 260.712 32.8667C261.008 33.1516 261.175 33.5287 261.217 33.9956L261.249 34.6049C260.717 34.808 260.249 34.9662 259.841 35.077C259.433 35.1904 258.965 35.317 258.433 35.4595L256.718 35.8867C254.799 36.3562 253.386 37.0209 252.478 37.886C251.57 38.7511 251.115 39.8642 251.115 41.2252C251.115 41.9373 251.242 42.5941 251.499 43.1928C251.753 43.7915 252.116 44.3059 252.587 44.7332C253.055 45.1604 253.611 45.4954 254.254 45.7407C254.897 45.986 255.606 46.1073 256.382 46.1073C257.096 46.1073 257.806 46.0018 258.51 45.7882C259.214 45.5745 259.862 45.266 260.452 44.8571C260.635 44.7358 260.799 44.6092 260.942 44.4773C261.085 44.3454 261.267 44.1661 261.492 43.9445L261.768 45.6827H267.003C266.96 45.4796 266.936 45.3002 266.926 45.1499V45.1473ZM261.249 39.64C261.249 40.3126 260.953 40.943 260.362 41.5311C260.077 41.816 259.746 42.0349 259.367 42.1879C258.989 42.3409 258.608 42.4174 258.219 42.4174C257.218 42.4174 256.718 41.9795 256.718 41.1065C256.718 40.6396 256.877 40.2572 257.192 39.9618C257.507 39.6664 258.105 39.3683 258.981 39.0624C259.288 38.9622 259.542 38.8698 259.746 38.7881C259.95 38.7063 260.127 38.6298 260.28 38.5586C260.434 38.4874 260.587 38.4109 260.741 38.3291C260.894 38.2474 261.061 38.1577 261.246 38.0548V39.64H261.249Z" fill="url(#paint12_linear_2737_15423)"/>
<path d="M107.925 60.2157C107.721 60.1128 107.451 59.9915 107.115 59.8491C106.779 59.7066 106.467 59.5853 106.181 59.4825L104.466 58.8415C104.201 58.7413 103.987 58.6595 103.823 58.5962C103.659 58.5356 103.526 58.4828 103.426 58.4432C103.323 58.4037 103.246 58.372 103.196 58.3509C103.145 58.3298 103.09 58.3087 103.026 58.2903L101.711 57.8313C101.078 57.6071 100.623 57.3777 100.348 57.1429C100.073 56.9082 99.935 56.618 99.935 56.2725C99.935 55.803 100.149 55.4259 100.578 55.1436C101.007 54.8588 101.547 54.7164 102.2 54.7164C103.076 54.7164 103.862 54.9748 104.559 55.4944C105.252 56.014 105.802 56.771 106.21 57.768L110.955 55.2676C110.648 54.6794 110.394 54.2337 110.19 53.9304C109.987 53.627 109.733 53.3132 109.426 52.9914C108.61 52.1447 107.671 51.517 106.61 51.1134C105.956 50.8523 105.273 50.6598 104.559 50.5384C103.844 50.4171 103.1 50.3564 102.325 50.3564C101.06 50.3564 99.9059 50.5305 98.8658 50.876C97.8256 51.2216 96.9232 51.699 96.1557 52.3083C95.3908 52.9175 94.798 53.656 94.3798 54.5185C93.9616 55.3837 93.7526 56.3332 93.7526 57.3698C93.7526 58.6701 94.0596 59.7383 94.6709 60.5718C95.2823 61.4052 96.2933 62.1279 97.7013 62.7372C98.1697 62.9403 98.7308 63.1592 99.3845 63.394C100.038 63.6287 100.639 63.8265 101.189 63.9874L102.629 64.3831C103.587 64.6468 104.246 64.9264 104.604 65.2218C104.961 65.5172 105.138 65.8891 105.138 66.3349C105.138 66.865 104.903 67.2817 104.434 67.5851C103.966 67.891 103.323 68.044 102.505 68.044C100.485 68.044 98.8922 67.0576 97.7304 65.0847L92.4346 67.891C92.6384 68.2366 92.8183 68.532 92.9692 68.7773C93.1227 69.0226 93.2762 69.2441 93.4297 69.4472C93.5832 69.6503 93.7393 69.8349 93.9034 69.9958C94.0675 70.1593 94.2501 70.3308 94.4539 70.5154C96.4732 72.3459 99.0457 73.2611 102.166 73.2611C103.574 73.2611 104.866 73.0765 106.038 72.7099C107.21 72.3433 108.216 71.8237 109.052 71.1511C109.889 70.4785 110.542 69.6793 111.011 68.7535C111.479 67.8277 111.715 66.7938 111.715 65.6517C111.715 63.2278 110.45 61.4158 107.92 60.2131L107.925 60.2157Z" fill="url(#paint13_linear_2737_15423)"/>
<path d="M120.8 55.4182C119.575 55.4182 118.469 55.6318 117.479 56.0591C116.489 56.4864 115.642 57.093 114.938 57.8737C114.234 58.6571 113.694 59.5987 113.316 60.6959C112.937 61.7932 112.75 63.0249 112.75 64.3859C112.75 65.7469 112.927 67.0103 113.284 68.1075C113.641 69.2048 114.16 70.1358 114.846 70.8981C115.528 71.6603 116.357 72.2459 117.325 72.6521C118.294 73.0583 119.392 73.2613 120.615 73.2613C122.534 73.2613 124.151 72.8235 125.466 71.9505C126.782 71.0774 127.748 69.785 128.359 68.0759L123.399 66.459C123.217 66.8468 123.042 67.1712 122.878 67.4349C122.714 67.6987 122.56 67.9229 122.42 68.1049C122.013 68.635 121.451 68.8988 120.737 68.8988C120.022 68.8988 119.422 68.5849 118.993 67.9519C118.564 67.3215 118.35 66.4379 118.35 65.2985H128.542C128.42 58.7099 125.837 55.4155 120.798 55.4155L120.8 55.4182ZM118.442 62.4948C118.482 61.5189 118.723 60.7672 119.162 60.237C119.602 59.7095 120.176 59.4431 120.89 59.4431C121.605 59.4431 122.161 59.7069 122.558 60.237C122.955 60.7672 123.164 61.5189 123.185 62.4948H118.44H118.442Z" fill="url(#paint14_linear_2737_15423)"/>
<path d="M140.512 55.418C138.411 55.418 136.696 56.3438 135.37 58.1927V55.8743H129.646V72.8049H135.37V63.8978C135.37 63.4705 135.502 63.059 135.767 62.6634C136.032 62.2677 136.389 61.9275 136.839 61.6426C137.286 61.3578 137.818 61.1283 138.429 60.9569C139.041 60.7854 139.695 60.6984 140.388 60.6984C140.552 60.6984 140.69 60.7037 140.801 60.7142C140.912 60.7248 141.081 60.7406 141.306 60.7591V55.4523C141.103 55.4312 140.949 55.4206 140.846 55.4206H140.51L140.512 55.418Z" fill="url(#paint15_linear_2737_15423)"/>
<path d="M151.445 63.1039C151.302 63.5708 151.186 63.9796 151.093 64.3251C151 64.6706 150.924 65.0161 150.863 65.3617C150.802 65.7072 150.752 66.0738 150.709 66.4589C150.667 66.8466 150.627 67.3029 150.588 67.8304C150.566 67.3847 150.545 66.997 150.527 66.6725C150.506 66.3481 150.476 66.0527 150.434 65.789C150.392 65.5252 150.347 65.2746 150.296 65.0425C150.246 64.8078 150.18 64.5704 150.098 64.3251L149.73 63.1356L147.557 55.877H141.679L147.679 72.8075H153.25L159.25 55.877H153.711L151.445 63.1065V63.1039Z" fill="url(#paint16_linear_2737_15423)"/>
<path d="M165.755 55.8745H159.97V72.8051H165.755V55.8745Z" fill="url(#paint17_linear_2737_15423)"/>
<path d="M165.755 49.0723H160.001V54.2287H165.755V49.0723Z" fill="url(#paint18_linear_2737_15423)"/>
<path d="M177.469 66.7043C177.426 66.8257 177.387 66.9391 177.347 67.0393C177.244 67.2846 177.164 67.4877 177.101 67.6486C177.04 67.8121 176.987 67.9229 176.947 67.9836C176.804 68.2473 176.569 68.4821 176.243 68.6852C176.079 68.7669 175.923 68.8329 175.77 68.883C175.616 68.9331 175.457 68.9595 175.296 68.9595C174.52 68.9595 173.949 68.5876 173.581 67.8464C173.213 67.1053 173.03 65.95 173.03 64.3833C173.03 61.1311 173.806 59.5038 175.357 59.5038C175.989 59.5038 176.489 59.7728 176.857 60.3109C177.225 60.8489 177.429 61.6085 177.469 62.5844L182.579 61.6376C182.233 59.604 181.441 58.0584 180.208 57.0007C178.972 55.943 177.376 55.4155 175.418 55.4155C174.174 55.4155 173.041 55.6344 172.019 56.0723C170.998 56.5101 170.132 57.1247 169.418 57.9186C168.703 58.7125 168.147 59.6726 167.75 60.8015C167.353 61.9303 167.152 63.1858 167.152 64.5679C167.152 65.95 167.335 67.1158 167.703 68.1814C168.071 69.2496 168.6 70.1596 169.293 70.9113C169.987 71.663 170.828 72.2432 171.818 72.6494C172.808 73.0556 173.925 73.2587 175.169 73.2587C177.045 73.2587 178.623 72.7998 179.898 71.8872C181.174 70.9719 182.087 69.6189 182.637 67.8306L177.678 66.1847C177.575 66.4089 177.503 66.5804 177.463 66.7043H177.469Z" fill="url(#paint19_linear_2737_15423)"/>
<path d="M191.295 55.4182C190.069 55.4182 188.963 55.6318 187.973 56.0591C186.983 56.4864 186.136 57.093 185.432 57.8737C184.728 58.6571 184.188 59.5987 183.81 60.6959C183.432 61.7932 183.244 63.0249 183.244 64.3859C183.244 65.7469 183.424 67.0103 183.778 68.1075C184.136 69.2048 184.654 70.1358 185.34 70.8981C186.023 71.6603 186.848 72.2459 187.82 72.6521C188.788 73.0583 189.887 73.2613 191.109 73.2613C193.028 73.2613 194.645 72.8235 195.96 71.9505C197.276 71.0774 198.242 69.785 198.853 68.0759L193.893 66.459C193.711 66.8468 193.536 67.1712 193.372 67.4349C193.208 67.6987 193.055 67.9229 192.912 68.1049C192.504 68.635 191.943 68.8988 191.228 68.8988C190.514 68.8988 189.913 68.5849 189.484 67.9519C189.056 67.3215 188.841 66.4379 188.841 65.2985H199.033C198.911 58.7099 196.328 55.4155 191.289 55.4155L191.295 55.4182ZM188.936 62.4948C188.976 61.5189 189.217 60.7672 189.656 60.237C190.096 59.7095 190.67 59.4431 191.387 59.4431C192.104 59.4431 192.658 59.7069 193.055 60.237C193.452 60.7672 193.661 61.5189 193.682 62.4948H188.936Z" fill="url(#paint20_linear_2737_15423)"/>
<path d="M212.385 63.5918C212.039 63.307 211.599 63.0432 211.07 62.7979C210.538 62.5526 209.927 62.3311 209.233 62.1253C209.09 62.0858 208.913 62.033 208.699 61.9724C208.484 61.9117 208.214 61.8405 207.889 61.7587C206.992 61.5134 206.388 61.3077 206.084 61.1336C205.777 60.9622 205.623 60.7432 205.623 60.4769C205.623 60.1709 205.771 59.9282 206.068 59.7436C206.364 59.5616 206.788 59.4693 207.338 59.4693C208.053 59.4693 208.802 59.6671 209.588 60.0628C210.374 60.4584 211.083 61.0044 211.716 61.6954L213.581 57.8525C213.092 57.4252 212.637 57.0744 212.218 56.8001C211.8 56.5258 211.387 56.2963 210.98 56.1143C210.448 55.8901 209.842 55.7081 209.159 55.5657C208.476 55.4233 207.796 55.3521 207.124 55.3521C206.145 55.3521 205.242 55.4945 204.416 55.7793C203.591 56.0642 202.881 56.4598 202.289 56.9689C201.696 57.4779 201.238 58.0872 200.912 58.7994C200.584 59.5115 200.423 60.2949 200.423 61.1494C200.423 62.5526 200.825 63.671 201.632 64.5044C202.439 65.3379 203.76 65.9683 205.597 66.3956L206.912 66.7015C207.606 66.8651 208.106 67.0418 208.413 67.2343C208.72 67.4269 208.871 67.6563 208.871 67.9201C208.871 68.6111 208.278 68.9567 207.095 68.9567C206.319 68.9567 205.504 68.743 204.647 68.3157C203.789 67.8884 202.932 67.2897 202.077 66.5169L200.147 70.5445C200.719 71.0324 201.285 71.4439 201.847 71.7789C202.408 72.1138 202.974 72.3934 203.546 72.6176C204.117 72.8418 204.702 73.0027 205.306 73.1056C205.909 73.2084 206.555 73.2585 207.248 73.2585C208.31 73.2585 209.262 73.1267 210.109 72.8629C210.956 72.5991 211.681 72.2114 212.282 71.705C212.883 71.1959 213.349 70.592 213.674 69.8904C214 69.1888 214.164 68.3922 214.164 67.4954C214.164 66.7015 214.005 65.9551 213.69 65.2535C213.372 64.5519 212.941 63.998 212.391 63.5918H212.385Z" fill="url(#paint21_linear_2737_15423)"/>
<path d="M26.5797 36.7888C23.3455 36.7888 23.0571 40.1965 23.0677 48.4073C23.0782 56.626 23.5255 59.8253 26.5611 59.8253C30.6871 59.8201 37.2189 49.3383 37.2189 49.3383C37.2189 49.3383 30.7613 36.7861 26.5797 36.7861V36.7888Z" fill="#00ADE6"/>
<path d="M62.523 4.27004C60.3846 0.289942 55.4673 -1.16864 51.545 1.01L14.2733 21.7281C12.5927 22.6777 11.0286 24.3499 10.314 26.7263L0.312571 61.3287C-0.881035 65.4723 1.45854 69.8164 5.5528 71.0217L64.2989 87.678C68.3878 88.9019 72.6832 86.5148 73.8795 82.3712L83.6004 48.4309C84.2303 46.4343 83.8756 43.9813 82.8911 42.0744L62.523 4.27004ZM66.9719 66.7779H60.0088L59.9956 40.4101C59.9956 36.7887 57.0578 36.7992 57.0208 36.7992C54.6653 36.7992 50.3355 42.681 45.5214 49.209V66.7779L38.4815 66.7911L38.4762 58.6542C38.4762 58.6542 33.8182 66.799 26.8604 66.8043C18.9577 66.8043 16.2688 61.3893 16.2556 48.4177C16.2397 36.0581 18.0049 29.4404 26.4608 29.4378C32.9211 29.4246 38.4524 38.7906 38.4524 38.7906V32.8561L45.5188 23.3687C45.5188 23.3687 45.4923 38.8987 45.5188 38.8565C48.827 34.1115 51.815 29.4087 57.4151 29.4087C63.6187 29.4087 66.9666 34.5705 66.9958 38.9198C66.9958 38.9647 66.9666 66.7752 66.9666 66.7752L66.9719 66.7779Z" fill="#00ADE6"/>
</g>
<defs>
<linearGradient id="paint0_linear_2737_15423" x1="73.3472" y1="34.6867" x2="262.3" y2="34.6867" gradientUnits="userSpaceOnUse">
<stop offset="0.09" stop-color="#00ADE6"/>
<stop offset="0.76" stop-color="#253964"/>
</linearGradient>
<linearGradient id="paint1_linear_2737_15423" x1="74.607" y1="37.2164" x2="263.559" y2="37.2164" gradientUnits="userSpaceOnUse">
<stop offset="0.09" stop-color="#00ADE6"/>
<stop offset="0.76" stop-color="#253964"/>
</linearGradient>
<linearGradient id="paint2_linear_2737_15423" x1="74.6495" y1="35.2354" x2="263.602" y2="35.2354" gradientUnits="userSpaceOnUse">
<stop offset="0.09" stop-color="#00ADE6"/>
<stop offset="0.76" stop-color="#253964"/>
</linearGradient>
<linearGradient id="paint3_linear_2737_15423" x1="74.636" y1="37.2028" x2="263.589" y2="37.2028" gradientUnits="userSpaceOnUse">
<stop offset="0.09" stop-color="#00ADE6"/>
<stop offset="0.76" stop-color="#253964"/>
</linearGradient>
<linearGradient id="paint4_linear_2737_15423" x1="74.7658" y1="37.2159" x2="263.721" y2="37.2159" gradientUnits="userSpaceOnUse">
<stop offset="0.09" stop-color="#00ADE6"/>
<stop offset="0.76" stop-color="#253964"/>
</linearGradient>
<linearGradient id="paint5_linear_2737_15423" x1="74.7657" y1="24.5266" x2="263.721" y2="24.5266" gradientUnits="userSpaceOnUse">
<stop offset="0.09" stop-color="#00ADE6"/>
<stop offset="0.76" stop-color="#253964"/>
</linearGradient>
<linearGradient id="paint6_linear_2737_15423" x1="74.9458" y1="33.8161" x2="263.898" y2="33.8161" gradientUnits="userSpaceOnUse">
<stop offset="0.09" stop-color="#00ADE6"/>
<stop offset="0.76" stop-color="#253964"/>
</linearGradient>
<linearGradient id="paint7_linear_2737_15423" x1="73.7365" y1="-5.58731e-05" x2="262.689" y2="-5.58731e-05" gradientUnits="userSpaceOnUse">
<stop offset="0.09" stop-color="#00ADE6"/>
<stop offset="0.76" stop-color="#253964"/>
</linearGradient>
<linearGradient id="paint8_linear_2737_15423" x1="73.736" y1="37.2164" x2="262.689" y2="37.2164" gradientUnits="userSpaceOnUse">
<stop offset="0.09" stop-color="#00ADE6"/>
<stop offset="0.76" stop-color="#253964"/>
</linearGradient>
<linearGradient id="paint9_linear_2737_15423" x1="73.7365" y1="34.0298" x2="262.689" y2="34.0298" gradientUnits="userSpaceOnUse">
<stop offset="0.09" stop-color="#00ADE6"/>
<stop offset="0.76" stop-color="#253964"/>
</linearGradient>
<linearGradient id="paint10_linear_2737_15423" x1="73.7365" y1="37.2159" x2="262.689" y2="37.2159" gradientUnits="userSpaceOnUse">
<stop offset="0.09" stop-color="#00ADE6"/>
<stop offset="0.76" stop-color="#253964"/>
</linearGradient>
<linearGradient id="paint11_linear_2737_15423" x1="73.7357" y1="24.5266" x2="262.689" y2="24.5266" gradientUnits="userSpaceOnUse">
<stop offset="0.09" stop-color="#00ADE6"/>
<stop offset="0.76" stop-color="#253964"/>
</linearGradient>
<linearGradient id="paint12_linear_2737_15423" x1="73.7364" y1="37.2029" x2="262.689" y2="37.2029" gradientUnits="userSpaceOnUse">
<stop stop-color="#00ADE6"/>
<stop offset="1" stop-color="#253964"/>
</linearGradient>
<linearGradient id="paint13_linear_2737_15423" x1="74.631" y1="61.8088" x2="263.586" y2="61.8088" gradientUnits="userSpaceOnUse">
<stop offset="0.09" stop-color="#00ADE6"/>
<stop offset="0.76" stop-color="#253964"/>
</linearGradient>
<linearGradient id="paint14_linear_2737_15423" x1="74.6308" y1="64.3411" x2="263.586" y2="64.3411" gradientUnits="userSpaceOnUse">
<stop offset="0.09" stop-color="#00ADE6"/>
<stop offset="0.76" stop-color="#253964"/>
</linearGradient>
<linearGradient id="paint15_linear_2737_15423" x1="74.5914" y1="64.1114" x2="263.544" y2="64.1114" gradientUnits="userSpaceOnUse">
<stop offset="0.09" stop-color="#00ADE6"/>
<stop offset="0.76" stop-color="#253964"/>
</linearGradient>
<linearGradient id="paint16_linear_2737_15423" x1="74.5911" y1="64.3409" x2="263.543" y2="64.3409" gradientUnits="userSpaceOnUse">
<stop offset="0.09" stop-color="#00ADE6"/>
<stop offset="0.76" stop-color="#253964"/>
</linearGradient>
<linearGradient id="paint17_linear_2737_15423" x1="74.8373" y1="64.3411" x2="263.79" y2="64.3411" gradientUnits="userSpaceOnUse">
<stop offset="0.09" stop-color="#00ADE6"/>
<stop offset="0.76" stop-color="#253964"/>
</linearGradient>
<linearGradient id="paint18_linear_2737_15423" x1="74.8373" y1="51.6518" x2="263.79" y2="51.6518" gradientUnits="userSpaceOnUse">
<stop offset="0.09" stop-color="#00ADE6"/>
<stop offset="0.76" stop-color="#253964"/>
</linearGradient>
<linearGradient id="paint19_linear_2737_15423" x1="74.837" y1="64.3411" x2="263.789" y2="64.3411" gradientUnits="userSpaceOnUse">
<stop offset="0.09" stop-color="#00ADE6"/>
<stop offset="0.76" stop-color="#253964"/>
</linearGradient>
<linearGradient id="paint20_linear_2737_15423" x1="74.8372" y1="64.3411" x2="263.79" y2="64.3411" gradientUnits="userSpaceOnUse">
<stop offset="0.09" stop-color="#00ADE6"/>
<stop offset="0.76" stop-color="#253964"/>
</linearGradient>
<linearGradient id="paint21_linear_2737_15423" x1="74.8372" y1="64.3092" x2="263.79" y2="64.3092" gradientUnits="userSpaceOnUse">
<stop offset="0.09" stop-color="#00ADE6"/>
<stop offset="0.76" stop-color="#253964"/>
</linearGradient>
<clipPath id="clip0_2737_15423">
<rect width="267" height="88" fill="white"/>
</clipPath>
</defs>
</svg>
