<?xml version="1.0" encoding="UTF-8"?>
<svg id="Layer_1" xmlns="http://www.w3.org/2000/svg" xmlns:xlink="http://www.w3.org/1999/xlink" version="1.1" viewBox="0 0 1685.4 493.4">
  <!-- Generator: Adobe Illustrator 29.5.1, SVG Export Plug-In . SVG Version: 2.1.0 Build 141)  -->
  <defs>
    <style>
      .st0 {
        fill: none;
      }

      .st1 {
        fill: #fff;
      }

      .st1, .st2 {
        fill-rule: evenodd;
      }

      .st3 {
        fill: #00aeef;
      }

      .st2 {
        fill: #1f9cd8;
      }

      .st4 {
        fill: #ed1c2e;
      }

      .st5 {
        clip-path: url(#clippath);
      }
    </style>
    <clipPath id="clippath">
      <rect class="st0" y="76.2" width="307" height="341.1"/>
    </clipPath>
  </defs>
  <g id="Layer_11" data-name="Layer_1">
    <g>
      <g>
        <path class="st3" d="M409.7,359.6c0,4.9-3.8,8.8-8.8,8.8s-8.8-3.8-8.8-8.8,3.9-8.8,8.8-8.8,8.8,3.8,8.8,8.8Z"/>
        <path class="st3" d="M436.1,359.6c0,4.9-3.8,8.8-8.8,8.8s-8.8-3.8-8.8-8.8,3.9-8.8,8.8-8.8,8.8,3.8,8.8,8.8Z"/>
        <path class="st3" d="M462.5,359.6c0,4.9-3.8,8.8-8.8,8.8s-8.8-3.8-8.8-8.8,3.9-8.8,8.8-8.8,8.8,3.8,8.8,8.8Z"/>
        <path class="st3" d="M1164.5,298.5c0,4.9-3.8,8.8-8.8,8.8s-8.8-3.8-8.8-8.8,3.9-8.8,8.8-8.8,8.8,3.8,8.8,8.8Z"/>
        <path class="st3" d="M1413,298.5c0,4.9-3.8,8.8-8.8,8.8s-8.8-3.8-8.8-8.8,3.9-8.8,8.8-8.8,8.8,3.8,8.8,8.8Z"/>
        <path class="st3" d="M509.3,368.3l-9.9-24.1-6.3,8.3v15.8h-14.3v-52.8h14.1v10.3c0,3,0,7.3,0,9.8,1.4-2.3,4.9-7.3,6.9-10.1l7.2-10h16.2l-13.6,16.8,15.1,36h-15.4,0Z"/>
        <path class="st3" d="M561.7,368.1v-4.3c-3.7,3.2-7.6,5.5-13.2,5.5-10.6,0-18.9-7.9-18.9-27.9s8.2-27.2,19.5-27.2,9.6,2.6,12.5,5.3v-4.2h14.3v52.7h-14.2,0ZM561.7,331.3c-2-2.3-5.3-4.8-9.4-4.8s-8.6,4-8.6,14.5,3.1,16.2,8.9,16.2,6.8-2.2,9.2-4.7v-21.1h-.1Z"/>
        <path class="st3" d="M589.5,368.3v-52.8h14.3v52.8h-14.3Z"/>
        <path class="st3" d="M637.7,315.4h30.6v11.9h-9v26.9c0,3.1,1.3,4.2,4.4,4.2s4.1-.4,6.1-1.1v10.4c-2.4,1-6.4,1.6-10.2,1.6-8.9,0-14.2-3.9-14.2-14.2v-27.9h-7.8v-11.8h.1Z"/>
        <path class="st3" d="M700.9,369.4c-13.9,0-24.1-10.2-24.1-27.5s10.4-27.6,24.2-27.6,24.4,9.9,24.4,27.4-10.5,27.7-24.5,27.7h0ZM700.9,326.6c-6.3,0-10,5.3-10,15.1s3.8,15.4,10.2,15.4,10.1-6,10.1-15.2-3.7-15.3-10.4-15.3h.1Z"/>
        <path class="st3" d="M782.4,343.7c0,17.2-10.2,25.6-24.1,25.6s-23.6-7.9-23.6-25.4v-28.4h14.3v28.4c0,9,3.5,14.1,9.9,14.1s9.4-6.5,9.4-14.1v-28.4h14.3v28.3h-.2Z"/>
        <path class="st3" d="M849.4,368.3v-41h-17.7v41h-14.3v-52.8h46.3v52.8h-14.3Z"/>
        <path class="st3" d="M898.3,369.4c-13.9,0-24.1-10.2-24.1-27.5s10.4-27.6,24.2-27.6,24.4,9.9,24.4,27.4-10.5,27.7-24.5,27.7h0ZM898.3,326.6c-6.3,0-10,5.3-10,15.1s3.8,15.4,10.2,15.4,10.1-6,10.1-15.2-3.7-15.3-10.4-15.3h.1Z"/>
        <path class="st3" d="M979.8,343.7c0,17.2-10.2,25.6-24.1,25.6s-23.6-7.9-23.6-25.4v-28.4h14.3v28.4c0,9,3.5,14.1,9.9,14.1s9.4-6.5,9.4-14.1v-28.4h14.3v28.3h-.2Z"/>
        <path class="st3" d="M1022.8,368.3v-26.7c0-7.6-3.1-11.1-8.4-11.1s-8.5,2.8-8.5,11.6v26.2h-14.4v-27.5c0-14.7,6-22.6,18-22.6s10.1,2.1,13.1,5.2v-3.8c0-13.1-10.8-13.9-18.5-10.6l-4.6-10c6.8-3,12.9-3.2,17.5-2.4,13.8,2.3,19.9,10.5,19.9,25.2v46.4h-14.1Z"/>
        <path class="st3" d="M1049.2,368.3v-52.8h14.3v52.8h-14.3Z"/>
        <path class="st3" d="M1098.3,369.4c-13.9,0-24.1-10.2-24.1-27.5s10.4-27.6,24.2-27.6,24.5,9.9,24.5,27.4-10.5,27.7-24.6,27.7ZM1098.3,326.6c-6.3,0-10,5.3-10,15.1s3.8,15.4,10.2,15.4,10.1-6,10.1-15.2-3.7-15.3-10.4-15.3h.1Z"/>
        <path class="st3" d="M1179.8,343.7c0,17.2-10.2,25.6-24.1,25.6s-23.6-7.9-23.6-25.4v-28.4h14.3v28.4c0,9,3.5,14.1,9.9,14.1s9.4-6.5,9.4-14.1v-28.4h14.3v28.3h-.2Z"/>
        <path class="st3" d="M1213.5,315.4h30.6v11.9h-9v26.9c0,3.1,1.3,4.2,4.4,4.2s4.1-.4,6.1-1.1v10.4c-2.4,1-6.4,1.6-10.2,1.6-8.8,0-14.2-3.9-14.2-14.2v-27.9h-7.8v-11.8h0Z"/>
        <path class="st3" d="M1276,369.4c-13.9,0-24.1-10.2-24.1-27.5s10.4-27.6,24.2-27.6,24.4,9.9,24.4,27.4-10.5,27.7-24.6,27.7h0ZM1276,326.6c-6.3,0-10,5.3-10,15.1s3.8,15.4,10.2,15.4,10.1-6,10.1-15.2-3.7-15.3-10.4-15.3h.1Z"/>
        <path class="st3" d="M1357.6,361.1v19.8h-14.2v-19.6h0c0-.1-18.5-45.9-18.5-45.9h15l10.7,31.6,10.5-31.6h15.1l-18.4,45.7h-.2Z"/>
        <path class="st3" d="M1412.6,368.3v-4.4c-3.7,3.2-7.7,5.5-13.2,5.5-10.6,0-18.9-7.9-18.9-27.9s8.2-27.2,19.5-27.2,9.6,2.6,12.5,5.3v-4.2h14.3v52.8h-14.2ZM1412.6,331.3c-2-2.3-5.3-4.8-9.4-4.8s-8.6,4-8.6,14.5,3.1,16.2,8.8,16.2,6.8-2.2,9.2-4.7v-21.1h0Z"/>
        <path class="st3" d="M1470.9,368.3v-26.7c0-7.6-3.1-11.1-8.4-11.1s-8.4,2.8-8.4,11.6v26.2h-14.4v-27.5c0-14.7,6-22.6,18-22.6s10.1,2.1,13.1,5.2v-3.8c0-13.1-10.8-13.9-18.5-10.6l-4.6-10c6.8-3,12.9-3.2,17.5-2.4,13.8,2.3,19.9,10.5,19.9,25.2v46.4h-14.2Z"/>
        <path class="st3" d="M1528.5,368.3v-4.4c-3.7,3.2-7.7,5.5-13.2,5.5-10.6,0-18.9-7.9-18.9-27.9s8.2-27.2,19.5-27.2,9.6,2.6,12.5,5.3v-4.2h14.3v52.8h-14.2ZM1528.5,331.3c-2-2.3-5.3-4.8-9.4-4.8s-8.7,4-8.7,14.5,3.1,16.2,8.8,16.2,6.8-2.2,9.2-4.7v-21.1h0Z"/>
        <path class="st3" d="M1567.2,351.4c5,0,9,3.9,9,9s-3.9,9.1-9,9.1-9-3.9-9-9,3.9-9,9-9h0ZM1572.2,345.5h-10l-2.6-19.4v-28.3h15.3v28.2l-2.7,19.5h0Z"/>
      </g>
      <g>
        <g>
          <path class="st4" d="M453.2,266.7h-61.6V124.1h62c31.9,0,44.9,13.2,44.9,37.1s-6.8,22.4-15.4,27.9c11.6,5.5,18.3,15.5,18.3,31.6,0,29.1-15.9,46-48.2,46h0ZM452.5,155.3h-26.8v22.4h26.8c8.2,0,11.2-4.5,11.2-11.2s-2.7-11.2-11.2-11.2ZM454,207.8h-28.2v27.7h28.1c8.8,0,12.8-5.9,12.8-14.1s-4.2-13.7-12.6-13.7h0Z"/>
          <path class="st4" d="M569.5,266.8v-7.6c-6.4,5.7-12.7,9.8-22.7,9.8-18,0-31.9-15.7-31.9-55.4s12.3-56,33.2-56,16.1,4.9,21.5,9.4v-7.1h33.2v107h-33.3ZM569.5,192.8c-3.3-3.1-6.6-5.1-11.7-5.1s-10.5,4.7-10.5,24.6,3.7,26.5,10.6,26.5,8.3-2,11.6-5.1v-40.9h0Z"/>
          <path class="st4" d="M717.6,188.5h-13.7c2.4,6.9,3.7,15.1,3.7,24.7,0,36.9-19.2,55.8-45.8,55.8s-45.7-18.9-45.7-55.8,19.8-53.4,45.7-53.4h55.8v28.7h0ZM661.7,189.3c-8.6,0-13.4,5.7-13.4,23.8s4.8,26.1,13.4,26.1,13-8.3,13-26.1-4.4-23.8-13-23.8Z"/>
          <path class="st4" d="M730.4,266.7v-107h33v107h-33Z"/>
          <path class="st4" d="M806.2,152l-10.4-24.9c8.8-4.9,19.3-8.2,31.9-5.9,27.3,4.9,41.8,22.2,41.8,54.6v90.9h-32.3v-52c0-13.4-4.2-17.1-11.2-17.1s-11,3.7-11,17.5v51.5h-33.2v-56.2c0-28.1,10.1-43.8,31.2-43.8s17.4,3.9,23.3,8.8v-7.5c0-21.4-19.8-22-30.1-15.9h0Z"/>
          <path class="st4" d="M929.2,269c-26.6,0-45.7-18.9-45.7-55.8s19.1-55.6,45.7-55.6,45.8,18.3,45.8,55.6-19.3,55.8-45.8,55.8ZM929.2,187.3c-8.6,0-13,7.7-13,25.9s4.4,26.1,13,26.1,13-8.3,13-26.1-4.4-25.9-13-25.9Z"/>
          <path class="st4" d="M1078.9,266.7h-33.2v-78.2h-23.3v78.2h-33v-107h89.5v107Z"/>
          <path class="st4" d="M1138.3,269c-26.6,0-45.7-18.9-45.7-55.8s19.1-55.6,45.7-55.6,45.8,18.3,45.8,55.6-19.3,55.8-45.8,55.8ZM1138.3,187.3c-8.6,0-13,7.7-13,25.9s4.4,26.1,13,26.1,13-8.3,13-26.1-4.4-25.9-13-25.9Z"/>
          <path class="st4" d="M1241.6,268.3c-25.3,0-43.8-13.5-43.8-47.3v-61.3h33.2v61.3c0,11,1.5,21.2,11.2,21.2s10.8-10.2,10.8-21.2v-61.3h33.2v61.3c0,33.8-18.5,47.3-44.6,47.3h0Z"/>
          <path class="st4" d="M1325.5,152l-10.5-24.9c8.8-4.9,19.3-8.2,31.9-5.9,27.3,4.9,41.8,22.2,41.8,54.6v90.9h-32.3v-52c0-13.4-4.2-17.1-11.2-17.1s-11,3.7-11,17.5v51.5h-33.2v-56.2c0-28.1,10.1-43.8,31.2-43.8s17.4,3.9,23.3,8.8v-7.5c0-21.4-19.8-22-30.1-15.9h0Z"/>
          <path class="st4" d="M1448.5,269c-26.6,0-45.7-18.9-45.7-55.8s19.1-55.6,45.7-55.6,45.8,18.3,45.8,55.6-19.3,55.8-45.8,55.8ZM1448.5,187.3c-8.6,0-13,7.7-13,25.9s4.4,26.1,13,26.1,13-8.3,13-26.1-4.4-25.9-13-25.9Z"/>
          <path class="st4" d="M1543.7,269c-14.1,0-27.9-3.5-40.2-8.8l7.7-27.7c11.5,5.7,24.8,9.4,33.2,9.4s8.8-1.6,8.8-4.9-1.5-4.9-7.7-6.7c-29.7-8.8-40-15.5-40-37.7s13-35,39.2-35,24.2,2.6,37,7.7l-7.3,28.3c-12.7-6.1-22.2-9-30.6-9s-8.1,1.4-8.1,4.7,1.1,4.7,9.5,7.3c27.1,8.1,38.1,15.1,38.1,36.3s-15.2,36.1-39.8,36.1h.2Z"/>
        </g>
        <path class="st4" d="M942.2,133.6c0,8.9-5.9,16.2-13.2,16.2s-13.2-7.3-13.2-16.2,5.9-16.2,13.2-16.2,13.2,7.2,13.2,16.2Z"/>
      </g>
    </g>
  </g>
  <g id="Layer_2">
    <g class="st5">
      <g>
        <path class="st2" d="M306.9,376.3c0,9-2.6,41-45.9,41H44.3c-10.5,0-44.3-6.7-44.3-43.1v-240.4c0-66.5,62.8-57.2,62.8-57.2h180.6c23.3,0,63.6,4.9,63.6,51.9v247.8h-.1Z"/>
        <path class="st1" d="M264.6,346.5c0,1.5-.2,3.1-.5,4.6-.3,1.4-.7,2.6-1.1,3.9s-.7,2.6-1.3,3.8c-.5,1.1-1.2,2.1-1.9,3.2-.6,1.1-1.2,2.2-1.9,3.2-.7,1-1.6,1.8-2.4,2.7-.8.9-1.6,1.8-2.5,2.6-.9.8-1.9,1.5-2.9,2.2s-1.9,1.5-2.9,2.1c-1.1.7-2.2,1.2-3.4,1.7-1.1.6-2.3,1.1-3.5,1.6-1.3.5-2.6.8-3.9,1.1-2.9.8-5.8,1.2-8.8,1.3-.5,0-1,.2-1.5.2H48.7v-124.3h172.1c4.2,0,8.4.9,12.4,2.3,10.1,3.8,17.8,11.6,21,21.3.7,2.1,1.2,4.3,1.5,6.5.1,1.2.4,2.3.4,3.6s-.2,1.1-.2,1.7c0,1.5-.2,3.1-.5,4.6-.3,1.4-.7,2.6-1.2,3.9-.4,1.2-.9,2.5-1.4,3.6-1.1,2.2-2.4,4.3-3.9,6.2-.8.9-1.5,1.9-2.3,2.7l-.6.6c1.2.7,2.2,1.4,3.3,2.1,3.7,2.6,6.8,5.8,9.3,9.4,2.1,3.1,3.8,6.4,4.8,10,.6,2,.9,4.1,1.1,6.2,0,1.1.2,2.1.2,3.2s-.2,1.2-.2,1.8M252.1,239.2H49.8c-14.4,0-27-7.6-34.4-19.1v145.1c0,17.7,14,32.1,31.2,32.1h213.4c17.2,0,31.2-14.4,31.2-32.1v-95.9c-.2-25.5-19-30.1-39.2-30.1h.1Z"/>
        <path class="st2" d="M176.2,290.2c0,.8-.1,1.5-.2,2.3-.2,1.4-.6,2.7-1.1,3.9-.5,1.1-1.2,2.2-2,3.1-1.5,1.9-3.5,3.4-5.6,4.5-2.5,1.2-5.2,1.9-7.9,1.9h-50.2v-31.6h50.2c1.5,0,3,.3,4.3.6,6.2,1.6,11.1,6.3,12.2,12.4.2.9.3,1.9.3,2.9M180.9,342.1c0,.3,0,.7-.1,1.1-.2,2.8-.9,5.5-2.2,7.9-.6,1.1-1.2,2.1-2,3.1-.8.9-1.6,1.8-2.4,2.6-.9.8-1.9,1.5-2.9,2.2-2.2,1.4-4.7,2.4-7.2,2.9-1.5.3-3,.5-4.5.5h-50.5v-40.6h50.6c2.1,0,4.1.4,6,1,7.3,2.2,13,7.8,14.7,14.8.4,1.4.6,2.9.6,4.4M264.5,341.3c-.2-2.1-.5-4.2-1.1-6.2-1.1-3.6-2.7-6.9-4.8-10-2.5-3.7-5.7-6.9-9.3-9.4-1.1-.8-2.2-1.5-3.3-2.2l.6-.6c.8-.9,1.6-1.8,2.3-2.7.8-1,1.5-1.9,2.1-3,.7-1,1.3-2.1,1.8-3.3.6-1.2,1-2.4,1.4-3.6.4-1.3.9-2.6,1.2-3.9.3-1.5.4-3,.5-4.6,0-.6.2-1.2.2-1.7,0-1.2-.2-2.4-.4-3.6-.3-2.2-.7-4.4-1.5-6.5-3.3-9.7-11-17.5-21.1-21.3-4-1.5-8.2-2.3-12.4-2.3H48.6v124.3h177.4c.5,0,1-.1,1.5-.1,3,0,5.9-.5,8.8-1.3,1.3-.4,2.7-.7,3.9-1.1,1.2-.5,2.3-1,3.5-1.6,1.1-.6,2.3-1.1,3.4-1.7,1-.6,2-1.4,2.9-2.1,1-.7,2-1.4,2.9-2.2.9-.8,1.6-1.7,2.4-2.6s1.7-1.7,2.4-2.7c.7-1,1.3-2.1,1.9-3.2s1.4-2.1,1.9-3.2c.6-1.2.9-2.5,1.3-3.8s.9-2.6,1.1-3.9c.3-1.5.4-3.1.5-4.6,0-.7.2-1.2.2-1.9,0-1,0-2.1-.2-3.1"/>
        <path class="st1" d="M158,274.3h-48.9v31.6h50.2c1.5,0,2.9-.2,4.2-.5,1.3-.3,2.5-.8,3.7-1.4,2.2-1.1,4.1-2.6,5.6-4.5.8-1,1.4-2,2-3.1.6-1.2.9-2.6,1.1-3.9.1-.7.2-1.5.2-2.3s-.1-1.9-.3-2.9c-1.2-6-6-10.8-12.2-12.4-1.4-.4-2.9-.6-4.4-.6h-1.3,0ZM159.1,321.8h-50.1v40.6h50.4c1.6,0,3.1-.2,4.5-.6,4.9-1,9.4-3.7,12.5-7.7.8-1,1.4-2,2-3.1,1.3-2.4,2.1-5.1,2.2-7.9,0-.4.1-.7.1-1.1,0-1.5-.2-3-.6-4.5-1.7-7.1-7.4-12.7-14.7-14.8-2-.6-4-.9-6-1h-.5M128.4,109.6l35.7,64.2h-71.4l35.7-64.2h0ZM87.1,187.5h86.7l19.8,34.1h69.1l-69.1-125.1h-75.3l-69.5,125.1h20.1l18.2-34.1h0Z"/>
      </g>
    </g>
  </g>
</svg>