<svg width="40" height="40" viewBox="0 0 40 40" fill="none" xmlns="http://www.w3.org/2000/svg">
<g clip-path="url(#clip0_4007_19652)">
<path d="M13.0135 5.41255H7.3988L7.19684 6.32971L3.07666 6.33305L3.98553 9.27866L7.31802 8.77322L8.37499 9.68368L0.720357 9.68033L0.13128 11.8895H1.37339L1.93554 10.8117L8.50627 10.805L6.36876 12.9506L4.15047 11.5782L3.30556 12.4887L4.83716 14.6577L1.49457 26.5406L3.75663 25.4527L4.95834 28.2912L2.07018 32.8167L0.844904 33.349L0 36H6.39906L5.86047 34.0452L9.93015 28.6192L11.7041 32.9573L9.78877 34.0418L9.26029 36H16.4066L16.8308 33.8243L14.9222 30.8753L17.2818 27.528H23.1389L30.053 24.1941L24.8489 33.2017L22.8259 33.764L22.2132 36H29.1105L29.4033 33.6502L33.1431 28.4686L35.7452 31.3372L34.87 33.2787L32.6483 33.754L31.7933 36H38.4785L40 31.4879L37.8659 23.1431L37.8423 12.4385L35.6509 10.6444L22.5869 10.6577L22.5835 7.65188H35.6509L37.8389 9.34561L37.8356 5.41255H20.17L20.1835 13.0142H35.2907L35.2941 16.0368L17.4333 16.0335L17.4266 6.86192L15.3901 7.9431L16.8409 4L13.0135 5.41255Z" fill="white"/>
</g>
<defs>
<clipPath id="clip0_4007_19652">
<path d="M0 8C0 3.58172 3.58172 0 8 0H32C36.4183 0 40 3.58172 40 8V32C40 36.4183 36.4183 40 32 40H8C3.58172 40 0 36.4183 0 32V8Z" fill="white"/>
</clipPath>
</defs>
</svg>