<svg width="880" height="1024" viewBox="0 0 880 1024" fill="none" xmlns="http://www.w3.org/2000/svg">
<g clip-path="url(#clip0_2134_31326)">
<rect width="880" height="1024" fill="#E2E8F0"/>
<path d="M71 429.001C-136 541.001 -155.772 620.292 -213.5 736.001L-247 831.001L1527.4 603.428C1531.07 316.728 1533.19 -193.153 1477.59 -105.599C1408.08 3.8436 1222.59 -20.5707 1035.5 -33.9992C848.414 -47.4277 820.639 228.714 574 261.001C299 297.001 219.318 348.751 71 429.001Z" fill="#334155" stroke="black"/>
<path d="M187 497.001C20.0412 533.571 -104.772 637.792 -162.5 753.501L-188 797.001H1595.4C1599.07 510.302 1618.38 161.855 1545.59 87.9741C1419 -40.4992 1327.7 90.4625 1146 137.001C921.5 194.501 915.775 410.301 661.5 438.501C407.225 466.701 351.731 460.918 187 497.001Z" fill="#1E293B"/>
<path d="M259.5 542.5C144.414 560.23 -52.6667 644.333 -102.5 730.5L-50 1066L1489.5 1174C1492.67 960.5 1617.67 410.44 1570 345C1430.5 153.5 1259.29 280.251 1105 329C942 380.5 903 521.5 683.5 542.5C464 563.5 438 515 259.5 542.5Z" fill="#0F172A" stroke="black"/>
<path d="M180.12 183.76H195.88C195.827 184.187 195.8 184.507 195.8 184.72C195.8 184.88 195.8 185.067 195.8 185.28C195.8 190.133 197.533 192.56 201 192.56C201.853 192.56 202.653 192.373 203.4 192C204.147 191.573 204.733 191.04 205.16 190.4C205.48 189.867 205.667 189.253 205.72 188.56C205.827 187.867 205.88 186.64 205.88 184.88V146.32H222.12V184.56C222.12 187.653 221.8 190.293 221.16 192.48C220.573 194.613 219.587 196.533 218.2 198.24C217.347 199.307 216.307 200.293 215.08 201.2C213.853 202.053 212.493 202.773 211 203.36C209.507 203.947 207.933 204.4 206.28 204.72C204.627 205.04 202.947 205.2 201.24 205.2C198.093 205.2 195.213 204.747 192.6 203.84C190.04 202.88 187.827 201.547 185.96 199.84C184.147 198.133 182.707 196.107 181.64 193.76C180.627 191.36 180.12 188.72 180.12 185.84V183.76ZM225.146 181.76C225.146 178.187 225.626 174.96 226.586 172.08C227.6 169.2 229.013 166.747 230.826 164.72C232.64 162.64 234.826 161.067 237.386 160C240 158.88 242.906 158.32 246.106 158.32C249.413 158.32 252.4 158.88 255.066 160C257.733 161.12 260 162.693 261.866 164.72C263.786 166.747 265.253 169.2 266.266 172.08C267.333 174.96 267.866 178.187 267.866 181.76C267.866 185.333 267.333 188.56 266.266 191.44C265.253 194.32 263.786 196.8 261.866 198.88C260 200.907 257.733 202.48 255.066 203.6C252.4 204.667 249.413 205.2 246.106 205.2C242.906 205.2 240 204.667 237.386 203.6C234.826 202.48 232.64 200.907 230.826 198.88C229.013 196.853 227.6 194.4 226.586 191.52C225.626 188.64 225.146 185.387 225.146 181.76ZM246.026 169.68C244.053 169.68 242.613 170.613 241.706 172.48C240.8 174.347 240.346 177.44 240.346 181.76C240.346 186.08 240.8 189.2 241.706 191.12C242.613 192.987 244.053 193.92 246.026 193.92C248.053 193.92 249.52 192.987 250.426 191.12C251.333 189.2 251.786 186.08 251.786 181.76C251.786 177.44 251.333 174.347 250.426 172.48C249.52 170.613 248.053 169.68 246.026 169.68ZM270.918 204V159.6H286.038V204H270.918ZM270.998 155.28V141.76H286.038V155.28H270.998ZM290.258 204V159.6H305.298V163.76L306.978 162.56C307.724 162.027 308.284 161.627 308.658 161.36C309.084 161.093 309.484 160.827 309.858 160.56C311.031 159.867 312.338 159.333 313.778 158.96C315.271 158.587 316.738 158.4 318.178 158.4C322.071 158.4 325.164 159.707 327.458 162.32C327.938 162.907 328.338 163.493 328.658 164.08C328.978 164.667 329.218 165.333 329.378 166.08C329.591 166.773 329.724 167.627 329.778 168.64C329.884 169.6 329.938 170.773 329.938 172.16V204H314.978V176.08C314.978 175.493 314.951 174.987 314.898 174.56C314.898 174.08 314.898 173.68 314.898 173.36C314.791 172.187 314.364 171.28 313.618 170.64C312.924 170 312.044 169.68 310.978 169.68C309.858 169.68 308.791 170.027 307.778 170.72C306.764 171.413 305.938 172.4 305.298 173.68V204H290.258ZM352.207 169.52V159.6H357.407V148.08H372.367V159.6H382.207V169.52H372.367V186.72C372.367 187.36 372.367 187.92 372.367 188.4C372.367 188.827 372.394 189.173 372.447 189.44C372.607 190.72 373.167 191.707 374.127 192.4C375.087 193.093 376.367 193.44 377.967 193.44C378.714 193.44 379.381 193.413 379.967 193.36C380.607 193.253 381.354 193.093 382.207 192.88V204.16L381.807 204.24L380.767 204.4C379.327 204.667 378.101 204.853 377.087 204.96C376.074 205.067 375.034 205.12 373.967 205.12C368.367 205.12 364.101 203.627 361.167 200.64C360.474 199.947 359.887 199.227 359.407 198.48C358.927 197.68 358.554 196.8 358.287 195.84C358.021 194.827 357.807 193.707 357.647 192.48C357.541 191.253 357.487 189.813 357.487 188.16V169.52H352.207ZM383.901 204V141.76H399.021V163.92C401.261 162 403.367 160.613 405.341 159.76C407.367 158.853 409.554 158.4 411.901 158.4C416.434 158.4 419.741 159.973 421.821 163.12C422.567 164.187 423.047 165.387 423.261 166.72C423.527 168.053 423.661 170.08 423.661 172.8V204H408.621V175.92V173.36C408.621 172.293 408.194 171.387 407.341 170.64C406.541 169.893 405.607 169.52 404.541 169.52C403.421 169.52 402.354 169.893 401.341 170.64C400.327 171.333 399.501 172.347 398.861 173.68V204H383.901ZM468.088 184.32H441.448C441.448 187.307 442.008 189.627 443.128 191.28C444.248 192.933 445.768 193.76 447.688 193.76C449.554 193.76 451.021 193.067 452.088 191.68C452.461 191.2 452.861 190.613 453.288 189.92C453.714 189.227 454.168 188.373 454.648 187.36L467.608 191.6C466.008 196.08 463.474 199.467 460.008 201.76C456.594 204.053 452.381 205.2 447.368 205.2C444.168 205.2 441.288 204.667 438.728 203.6C436.221 202.533 434.061 201.013 432.248 199.04C430.488 197.013 429.128 194.56 428.168 191.68C427.261 188.8 426.808 185.547 426.808 181.92C426.808 178.347 427.288 175.12 428.248 172.24C429.261 169.36 430.674 166.907 432.488 164.88C434.354 162.8 436.568 161.2 439.128 160.08C441.741 158.96 444.648 158.4 447.848 158.4C461.021 158.4 467.768 167.04 468.088 184.32ZM448.088 168.96C446.221 168.96 444.701 169.653 443.528 171.04C442.408 172.427 441.794 174.4 441.688 176.96H454.088C454.034 174.4 453.474 172.427 452.408 171.04C451.394 169.653 449.954 168.96 448.088 168.96ZM492.544 204V159.6H507.584V165.68C511.05 160.827 515.53 158.4 521.024 158.4C521.344 158.4 521.637 158.4 521.904 158.4C522.17 158.4 522.57 158.427 523.104 158.48V172.4C522.517 172.347 522.064 172.32 521.744 172.32C521.477 172.267 521.13 172.24 520.704 172.24C518.89 172.24 517.184 172.48 515.584 172.96C513.984 173.387 512.597 173.973 511.424 174.72C510.25 175.467 509.317 176.373 508.624 177.44C507.93 178.453 507.584 179.52 507.584 180.64V204H492.544ZM562.668 184.32H536.028C536.028 187.307 536.588 189.627 537.708 191.28C538.828 192.933 540.348 193.76 542.268 193.76C544.135 193.76 545.601 193.067 546.668 191.68C547.041 191.2 547.441 190.613 547.868 189.92C548.295 189.227 548.748 188.373 549.228 187.36L562.188 191.6C560.588 196.08 558.055 199.467 554.588 201.76C551.175 204.053 546.961 205.2 541.948 205.2C538.748 205.2 535.868 204.667 533.308 203.6C530.801 202.533 528.641 201.013 526.828 199.04C525.068 197.013 523.708 194.56 522.748 191.68C521.841 188.8 521.388 185.547 521.388 181.92C521.388 178.347 521.868 175.12 522.828 172.24C523.841 169.36 525.255 166.907 527.068 164.88C528.935 162.8 531.148 161.2 533.708 160.08C536.321 158.96 539.228 158.4 542.428 158.4C555.601 158.4 562.348 167.04 562.668 184.32ZM542.668 168.96C540.801 168.96 539.281 169.653 538.108 171.04C536.988 172.427 536.375 174.4 536.268 176.96H548.668C548.615 174.4 548.055 172.427 546.988 171.04C545.975 169.653 544.535 168.96 542.668 168.96ZM561.681 169.52V159.6H566.881V148.08H581.841V159.6H591.681V169.52H581.841V186.72C581.841 187.36 581.841 187.92 581.841 188.4C581.841 188.827 581.868 189.173 581.921 189.44C582.081 190.72 582.641 191.707 583.601 192.4C584.561 193.093 585.841 193.44 587.441 193.44C588.188 193.44 588.855 193.413 589.441 193.36C590.081 193.253 590.828 193.093 591.681 192.88V204.16L591.281 204.24L590.241 204.4C588.801 204.667 587.575 204.853 586.561 204.96C585.548 205.067 584.508 205.12 583.441 205.12C577.841 205.12 573.575 203.627 570.641 200.64C569.948 199.947 569.361 199.227 568.881 198.48C568.401 197.68 568.028 196.8 567.761 195.84C567.495 194.827 567.281 193.707 567.121 192.48C567.015 191.253 566.961 189.813 566.961 188.16V169.52H561.681ZM618.414 174.96L618.334 173.36C618.228 172.133 617.774 171.147 616.974 170.4C616.228 169.653 615.161 169.28 613.774 169.28C610.841 169.28 608.681 170.933 607.294 174.24L594.334 170.24C596.308 166.133 598.894 163.147 602.094 161.28C605.294 159.36 609.401 158.4 614.414 158.4C620.548 158.4 625.188 159.707 628.334 162.32C631.534 164.933 633.134 168.827 633.134 174V197.6C633.134 198.507 633.134 199.253 633.134 199.84C633.134 200.427 633.134 200.933 633.134 201.36C633.188 201.787 633.214 202.213 633.214 202.64C633.268 203.013 633.348 203.467 633.454 204H619.774L619.054 199.44C618.468 200.027 617.988 200.507 617.614 200.88C617.241 201.2 616.814 201.52 616.334 201.84C614.788 202.907 613.081 203.707 611.214 204.24C609.401 204.827 607.561 205.12 605.694 205.12C603.668 205.12 601.801 204.8 600.094 204.16C598.441 203.52 597.001 202.64 595.774 201.52C594.548 200.4 593.588 199.067 592.894 197.52C592.254 195.92 591.934 194.187 591.934 192.32C591.934 188.747 593.108 185.84 595.454 183.6C597.854 181.307 601.561 179.547 606.574 178.32L611.054 177.2C612.441 176.827 613.668 176.507 614.734 176.24C615.801 175.92 617.028 175.493 618.414 174.96ZM618.414 188.16V184C617.934 184.267 617.481 184.507 617.054 184.72C616.681 184.933 616.281 185.147 615.854 185.36C615.481 185.52 615.028 185.707 614.494 185.92C613.961 186.133 613.294 186.373 612.494 186.64C610.201 187.44 608.628 188.24 607.774 189.04C606.974 189.787 606.574 190.773 606.574 192C606.574 194.293 607.881 195.44 610.494 195.44C611.508 195.44 612.494 195.253 613.454 194.88C614.468 194.453 615.348 193.867 616.094 193.12C617.641 191.573 618.414 189.92 618.414 188.16ZM637.479 204V159.6H652.599V204H637.479ZM637.559 155.28V141.76H652.599V155.28H637.559ZM656.819 204V141.76H671.859V204H656.819ZM183.88 284V239.6H198.92V243.76C201.32 241.893 203.533 240.533 205.56 239.68C207.64 238.773 209.8 238.32 212.04 238.32C217 238.32 220.413 240.293 222.28 244.24C224.947 242.16 227.32 240.667 229.4 239.76C231.533 238.8 233.747 238.32 236.04 238.32C238.067 238.32 239.933 238.747 241.64 239.6C243.347 240.4 244.733 241.547 245.8 243.04C246.227 243.627 246.573 244.187 246.84 244.72C247.107 245.253 247.293 245.867 247.4 246.56C247.56 247.253 247.667 248.107 247.72 249.12C247.773 250.08 247.8 251.333 247.8 252.88V284H232.84V256V253.28C232.733 252.213 232.28 251.36 231.48 250.72C230.733 250.027 229.8 249.68 228.68 249.68C227.453 249.68 226.36 250.053 225.4 250.8C224.493 251.547 223.827 252.587 223.4 253.92V284H208.44V256.08L208.36 254.72C208.253 252.96 207.933 251.68 207.4 250.88C206.867 250.08 205.907 249.68 204.52 249.68C203.347 249.68 202.28 250.053 201.32 250.8C200.36 251.493 199.587 252.533 199 253.92V284H183.88ZM292.208 264.32H265.568C265.568 267.307 266.128 269.627 267.248 271.28C268.368 272.933 269.888 273.76 271.808 273.76C273.674 273.76 275.141 273.067 276.208 271.68C276.581 271.2 276.981 270.613 277.408 269.92C277.834 269.227 278.288 268.373 278.768 267.36L291.728 271.6C290.128 276.08 287.594 279.467 284.128 281.76C280.714 284.053 276.501 285.2 271.488 285.2C268.288 285.2 265.408 284.667 262.848 283.6C260.341 282.533 258.181 281.013 256.368 279.04C254.608 277.013 253.248 274.56 252.288 271.68C251.381 268.8 250.928 265.547 250.928 261.92C250.928 258.347 251.408 255.12 252.368 252.24C253.381 249.36 254.794 246.907 256.608 244.88C258.474 242.8 260.688 241.2 263.248 240.08C265.861 238.96 268.768 238.4 271.968 238.4C285.141 238.4 291.888 247.04 292.208 264.32ZM272.208 248.96C270.341 248.96 268.821 249.653 267.648 251.04C266.528 252.427 265.914 254.4 265.808 256.96H278.208C278.154 254.4 277.594 252.427 276.528 251.04C275.514 249.653 274.074 248.96 272.208 248.96ZM320.421 242.08V221.76H335.381V274.08V279.68C335.381 280.427 335.381 281.093 335.381 281.68C335.434 282.213 335.487 282.987 335.541 284H321.541L320.661 280.64C319.114 282.187 317.541 283.307 315.941 284C314.341 284.747 312.501 285.12 310.421 285.12C307.861 285.12 305.567 284.587 303.541 283.52C301.514 282.4 299.781 280.827 298.341 278.8C296.901 276.773 295.781 274.32 294.981 271.44C294.234 268.56 293.861 265.307 293.861 261.68C293.861 258.107 294.261 254.88 295.061 252C295.861 249.12 297.007 246.667 298.501 244.64C299.994 242.613 301.781 241.067 303.861 240C305.994 238.88 308.394 238.32 311.061 238.32C312.927 238.32 314.607 238.613 316.101 239.2C317.647 239.787 319.087 240.747 320.421 242.08ZM320.581 269.52V253.12C320.314 251.893 319.727 250.907 318.821 250.16C317.914 249.36 316.847 248.96 315.621 248.96C311.781 248.96 309.861 253.173 309.861 261.6C309.861 269.92 311.861 274.08 315.861 274.08C317.034 274.08 318.047 273.68 318.901 272.88C319.754 272.027 320.314 270.907 320.581 269.52ZM339.711 284V239.6H354.831V284H339.711ZM339.791 235.28V221.76H354.831V235.28H339.791ZM384.09 254.96L384.01 253.36C383.903 252.133 383.45 251.147 382.65 250.4C381.903 249.653 380.837 249.28 379.45 249.28C376.517 249.28 374.357 250.933 372.97 254.24L360.01 250.24C361.983 246.133 364.57 243.147 367.77 241.28C370.97 239.36 375.077 238.4 380.09 238.4C386.223 238.4 390.863 239.707 394.01 242.32C397.21 244.933 398.81 248.827 398.81 254V277.6C398.81 278.507 398.81 279.253 398.81 279.84C398.81 280.427 398.81 280.933 398.81 281.36C398.863 281.787 398.89 282.213 398.89 282.64C398.943 283.013 399.023 283.467 399.13 284H385.45L384.73 279.44C384.143 280.027 383.663 280.507 383.29 280.88C382.917 281.2 382.49 281.52 382.01 281.84C380.463 282.907 378.757 283.707 376.89 284.24C375.077 284.827 373.237 285.12 371.37 285.12C369.343 285.12 367.477 284.8 365.77 284.16C364.117 283.52 362.677 282.64 361.45 281.52C360.223 280.4 359.263 279.067 358.57 277.52C357.93 275.92 357.61 274.187 357.61 272.32C357.61 268.747 358.783 265.84 361.13 263.6C363.53 261.307 367.237 259.547 372.25 258.32L376.73 257.2C378.117 256.827 379.343 256.507 380.41 256.24C381.477 255.92 382.703 255.493 384.09 254.96ZM384.09 268.16V264C383.61 264.267 383.157 264.507 382.73 264.72C382.357 264.933 381.957 265.147 381.53 265.36C381.157 265.52 380.703 265.707 380.17 265.92C379.637 266.133 378.97 266.373 378.17 266.64C375.877 267.44 374.303 268.24 373.45 269.04C372.65 269.787 372.25 270.773 372.25 272C372.25 274.293 373.557 275.44 376.17 275.44C377.183 275.44 378.17 275.253 379.13 274.88C380.143 274.453 381.023 273.867 381.77 273.12C383.317 271.573 384.09 269.92 384.09 268.16ZM421.318 239.6H436.438L440.758 256.4C440.865 256.827 440.971 257.387 441.078 258.08C441.185 258.72 441.318 259.573 441.478 260.64C441.638 261.6 441.745 262.427 441.798 263.12C441.905 263.76 441.985 264.427 442.038 265.12C442.145 265.76 442.225 266.453 442.278 267.2C442.331 267.947 442.411 268.827 442.518 269.84C442.625 268.773 442.705 267.867 442.758 267.12C442.865 266.32 442.945 265.6 442.998 264.96C443.105 264.267 443.185 263.6 443.238 262.96C443.345 262.267 443.478 261.493 443.638 260.64C443.798 259.68 443.931 258.853 444.038 258.16C444.198 257.467 444.331 256.907 444.438 256.48L449.078 239.6H464.598L469.238 256.48C469.345 256.747 469.451 257.253 469.558 258C469.665 258.693 469.798 259.6 469.958 260.72C470.118 261.68 470.225 262.507 470.278 263.2C470.385 263.893 470.465 264.56 470.518 265.2C470.625 265.84 470.705 266.533 470.758 267.28C470.811 267.973 470.891 268.827 470.998 269.84C471.051 268.773 471.105 267.867 471.158 267.12C471.265 266.32 471.345 265.573 471.398 264.88C471.505 264.187 471.585 263.52 471.638 262.88C471.745 262.187 471.878 261.44 472.038 260.64C472.198 259.68 472.331 258.827 472.438 258.08C472.598 257.333 472.731 256.8 472.838 256.48L477.398 239.6H491.398L478.278 284H463.158L458.358 266.56C458.251 266.187 458.118 265.68 457.958 265.04C457.851 264.347 457.718 263.467 457.558 262.4C457.398 261.387 457.238 260.48 457.078 259.68C456.971 258.88 456.865 258.133 456.758 257.44C456.651 256.693 456.545 255.92 456.438 255.12C456.385 254.267 456.278 253.28 456.118 252.16C456.118 253.333 456.091 254.373 456.038 255.28C455.985 256.133 455.905 256.933 455.798 257.68C455.745 258.427 455.665 259.173 455.558 259.92C455.505 260.667 455.398 261.493 455.238 262.4C454.918 264.32 454.651 265.707 454.438 266.56L449.638 284H434.518L421.318 239.6ZM515.546 254.96L515.466 253.36C515.359 252.133 514.906 251.147 514.106 250.4C513.359 249.653 512.292 249.28 510.906 249.28C507.972 249.28 505.812 250.933 504.426 254.24L491.466 250.24C493.439 246.133 496.026 243.147 499.226 241.28C502.426 239.36 506.532 238.4 511.546 238.4C517.679 238.4 522.319 239.707 525.466 242.32C528.666 244.933 530.266 248.827 530.266 254V277.6C530.266 278.507 530.266 279.253 530.266 279.84C530.266 280.427 530.266 280.933 530.266 281.36C530.319 281.787 530.346 282.213 530.346 282.64C530.399 283.013 530.479 283.467 530.586 284H516.906L516.186 279.44C515.599 280.027 515.119 280.507 514.746 280.88C514.372 281.2 513.946 281.52 513.466 281.84C511.919 282.907 510.212 283.707 508.346 284.24C506.532 284.827 504.692 285.12 502.826 285.12C500.799 285.12 498.932 284.8 497.226 284.16C495.572 283.52 494.132 282.64 492.906 281.52C491.679 280.4 490.719 279.067 490.026 277.52C489.386 275.92 489.066 274.187 489.066 272.32C489.066 268.747 490.239 265.84 492.586 263.6C494.986 261.307 498.692 259.547 503.706 258.32L508.186 257.2C509.572 256.827 510.799 256.507 511.866 256.24C512.932 255.92 514.159 255.493 515.546 254.96ZM515.546 268.16V264C515.066 264.267 514.612 264.507 514.186 264.72C513.812 264.933 513.412 265.147 512.986 265.36C512.612 265.52 512.159 265.707 511.626 265.92C511.092 266.133 510.426 266.373 509.626 266.64C507.332 267.44 505.759 268.24 504.906 269.04C504.106 269.787 503.706 270.773 503.706 272C503.706 274.293 505.012 275.44 507.626 275.44C508.639 275.44 509.626 275.253 510.586 274.88C511.599 274.453 512.479 273.867 513.226 273.12C514.772 271.573 515.546 269.92 515.546 268.16ZM529.424 239.6H544.784L550.464 258.64L551.424 261.76C551.637 262.4 551.797 263.04 551.904 263.68C552.064 264.267 552.197 264.907 552.304 265.6C552.41 266.293 552.49 267.067 552.544 267.92C552.597 268.773 552.65 269.787 552.704 270.96C552.81 269.573 552.917 268.373 553.024 267.36C553.13 266.347 553.264 265.387 553.424 264.48C553.584 263.573 553.77 262.667 553.984 261.76C554.25 260.853 554.57 259.787 554.944 258.56L560.864 239.6H575.344L559.664 284H545.104L529.424 239.6ZM615.204 264.32H588.564C588.564 267.307 589.124 269.627 590.244 271.28C591.364 272.933 592.884 273.76 594.804 273.76C596.67 273.76 598.137 273.067 599.204 271.68C599.577 271.2 599.977 270.613 600.404 269.92C600.83 269.227 601.284 268.373 601.764 267.36L614.724 271.6C613.124 276.08 610.59 279.467 607.124 281.76C603.71 284.053 599.497 285.2 594.484 285.2C591.284 285.2 588.404 284.667 585.844 283.6C583.337 282.533 581.177 281.013 579.364 279.04C577.604 277.013 576.244 274.56 575.284 271.68C574.377 268.8 573.924 265.547 573.924 261.92C573.924 258.347 574.404 255.12 575.364 252.24C576.377 249.36 577.79 246.907 579.604 244.88C581.47 242.8 583.684 241.2 586.244 240.08C588.857 238.96 591.764 238.4 594.964 238.4C608.137 238.4 614.884 247.04 615.204 264.32ZM595.204 248.96C593.337 248.96 591.817 249.653 590.644 251.04C589.524 252.427 588.91 254.4 588.804 256.96H601.204C601.15 254.4 600.59 252.427 599.524 251.04C598.51 249.653 597.07 248.96 595.204 248.96ZM180.36 319.6H195.48L199.8 336.4C199.907 336.827 200.013 337.387 200.12 338.08C200.227 338.72 200.36 339.573 200.52 340.64C200.68 341.6 200.787 342.427 200.84 343.12C200.947 343.76 201.027 344.427 201.08 345.12C201.187 345.76 201.267 346.453 201.32 347.2C201.373 347.947 201.453 348.827 201.56 349.84C201.667 348.773 201.747 347.867 201.8 347.12C201.907 346.32 201.987 345.6 202.04 344.96C202.147 344.267 202.227 343.6 202.28 342.96C202.387 342.267 202.52 341.493 202.68 340.64C202.84 339.68 202.973 338.853 203.08 338.16C203.24 337.467 203.373 336.907 203.48 336.48L208.12 319.6H223.64L228.28 336.48C228.387 336.747 228.493 337.253 228.6 338C228.707 338.693 228.84 339.6 229 340.72C229.16 341.68 229.267 342.507 229.32 343.2C229.427 343.893 229.507 344.56 229.56 345.2C229.667 345.84 229.747 346.533 229.8 347.28C229.853 347.973 229.933 348.827 230.04 349.84C230.093 348.773 230.147 347.867 230.2 347.12C230.307 346.32 230.387 345.573 230.44 344.88C230.547 344.187 230.627 343.52 230.68 342.88C230.787 342.187 230.92 341.44 231.08 340.64C231.24 339.68 231.373 338.827 231.48 338.08C231.64 337.333 231.773 336.8 231.88 336.48L236.44 319.6H250.44L237.32 364H222.2L217.4 346.56C217.293 346.187 217.16 345.68 217 345.04C216.893 344.347 216.76 343.467 216.6 342.4C216.44 341.387 216.28 340.48 216.12 339.68C216.013 338.88 215.907 338.133 215.8 337.44C215.693 336.693 215.587 335.92 215.48 335.12C215.427 334.267 215.32 333.28 215.16 332.16C215.16 333.333 215.133 334.373 215.08 335.28C215.027 336.133 214.947 336.933 214.84 337.68C214.787 338.427 214.707 339.173 214.6 339.92C214.547 340.667 214.44 341.493 214.28 342.4C213.96 344.32 213.693 345.707 213.48 346.56L208.68 364H193.56L180.36 319.6ZM251.266 364V319.6H266.386V364H251.266ZM251.346 315.28V301.76H266.386V315.28H251.346ZM266.846 329.52V319.6H272.046V308.08H287.006V319.6H296.846V329.52H287.006V346.72C287.006 347.36 287.006 347.92 287.006 348.4C287.006 348.827 287.032 349.173 287.086 349.44C287.246 350.72 287.806 351.707 288.766 352.4C289.726 353.093 291.006 353.44 292.606 353.44C293.352 353.44 294.019 353.413 294.606 353.36C295.246 353.253 295.992 353.093 296.846 352.88V364.16L296.446 364.24L295.406 364.4C293.966 364.667 292.739 364.853 291.726 364.96C290.712 365.067 289.672 365.12 288.606 365.12C283.006 365.12 278.739 363.627 275.806 360.64C275.112 359.947 274.526 359.227 274.046 358.48C273.566 357.68 273.192 356.8 272.926 355.84C272.659 354.827 272.446 353.707 272.286 352.48C272.179 351.253 272.126 349.813 272.126 348.16V329.52H266.846ZM298.539 364V301.76H313.659V323.92C315.899 322 318.005 320.613 319.979 319.76C322.005 318.853 324.192 318.4 326.539 318.4C331.072 318.4 334.379 319.973 336.459 323.12C337.205 324.187 337.685 325.387 337.899 326.72C338.165 328.053 338.299 330.08 338.299 332.8V364H323.259V335.92V333.36C323.259 332.293 322.832 331.387 321.979 330.64C321.179 329.893 320.245 329.52 319.179 329.52C318.059 329.52 316.992 329.893 315.979 330.64C314.965 331.333 314.139 332.347 313.499 333.68V364H298.539ZM414.889 323.68L398.009 326C396.942 320.293 394.302 317.44 390.089 317.44C387.102 317.44 384.835 318.96 383.289 322C381.742 324.987 380.969 329.333 380.969 335.04C380.969 346.827 384.195 352.72 390.649 352.72C393.209 352.72 395.235 352 396.729 350.56C398.275 349.12 399.129 347.04 399.289 344.32H389.529V333.52H414.729V364H404.169L402.729 360C400.755 361.867 398.702 363.2 396.569 364C394.489 364.747 391.849 365.12 388.649 365.12C380.329 365.12 373.982 362.507 369.609 357.28C365.289 352 363.129 344.373 363.129 334.4C363.129 329.867 363.742 325.787 364.969 322.16C366.195 318.533 367.955 315.467 370.249 312.96C372.595 310.453 375.422 308.533 378.729 307.2C382.089 305.867 385.875 305.2 390.089 305.2C403.795 305.2 412.062 311.36 414.889 323.68ZM444.253 334.96L444.173 333.36C444.066 332.133 443.613 331.147 442.813 330.4C442.066 329.653 441 329.28 439.613 329.28C436.68 329.28 434.52 330.933 433.133 334.24L420.173 330.24C422.146 326.133 424.733 323.147 427.933 321.28C431.133 319.36 435.24 318.4 440.253 318.4C446.386 318.4 451.026 319.707 454.173 322.32C457.373 324.933 458.973 328.827 458.973 334V357.6C458.973 358.507 458.973 359.253 458.973 359.84C458.973 360.427 458.973 360.933 458.973 361.36C459.026 361.787 459.053 362.213 459.053 362.64C459.106 363.013 459.186 363.467 459.293 364H445.613L444.893 359.44C444.306 360.027 443.826 360.507 443.453 360.88C443.08 361.2 442.653 361.52 442.173 361.84C440.626 362.907 438.92 363.707 437.053 364.24C435.24 364.827 433.4 365.12 431.533 365.12C429.506 365.12 427.64 364.8 425.933 364.16C424.28 363.52 422.84 362.64 421.613 361.52C420.386 360.4 419.426 359.067 418.733 357.52C418.093 355.92 417.773 354.187 417.773 352.32C417.773 348.747 418.946 345.84 421.293 343.6C423.693 341.307 427.4 339.547 432.413 338.32L436.893 337.2C438.28 336.827 439.506 336.507 440.573 336.24C441.64 335.92 442.866 335.493 444.253 334.96ZM444.253 348.16V344C443.773 344.267 443.32 344.507 442.893 344.72C442.52 344.933 442.12 345.147 441.693 345.36C441.32 345.52 440.866 345.707 440.333 345.92C439.8 346.133 439.133 346.373 438.333 346.64C436.04 347.44 434.466 348.24 433.613 349.04C432.813 349.787 432.413 350.773 432.413 352C432.413 354.293 433.72 355.44 436.333 355.44C437.346 355.44 438.333 355.253 439.293 354.88C440.306 354.453 441.186 353.867 441.933 353.12C443.48 351.573 444.253 349.92 444.253 348.16ZM463.318 364V319.6H478.358V323.76C480.758 321.893 482.971 320.533 484.998 319.68C487.078 318.773 489.238 318.32 491.478 318.32C496.438 318.32 499.851 320.293 501.718 324.24C504.385 322.16 506.758 320.667 508.838 319.76C510.971 318.8 513.185 318.32 515.478 318.32C517.505 318.32 519.371 318.747 521.078 319.6C522.785 320.4 524.171 321.547 525.238 323.04C525.665 323.627 526.011 324.187 526.278 324.72C526.545 325.253 526.731 325.867 526.838 326.56C526.998 327.253 527.105 328.107 527.158 329.12C527.211 330.08 527.238 331.333 527.238 332.88V364H512.278V336V333.28C512.171 332.213 511.718 331.36 510.918 330.72C510.171 330.027 509.238 329.68 508.118 329.68C506.891 329.68 505.798 330.053 504.838 330.8C503.931 331.547 503.265 332.587 502.838 333.92V364H487.878V336.08L487.798 334.72C487.691 332.96 487.371 331.68 486.838 330.88C486.305 330.08 485.345 329.68 483.958 329.68C482.785 329.68 481.718 330.053 480.758 330.8C479.798 331.493 479.025 332.533 478.438 333.92V364H463.318ZM531.486 364L531.566 361.52C531.619 360.4 531.646 359.067 531.646 357.52C531.646 355.92 531.646 354.32 531.646 352.72V301.76H546.686V322.8C547.059 322.373 547.352 322.053 547.566 321.84C547.779 321.573 548.019 321.333 548.286 321.12C549.352 320.267 550.606 319.6 552.046 319.12C553.539 318.64 555.032 318.4 556.526 318.4C559.086 318.4 561.379 318.933 563.406 320C565.486 321.067 567.246 322.613 568.686 324.64C570.179 326.613 571.299 329.013 572.046 331.84C572.846 334.613 573.246 337.76 573.246 341.28C573.246 344.853 572.846 348.107 572.046 351.04C571.246 353.973 570.099 356.507 568.606 358.64C567.112 360.72 565.326 362.347 563.246 363.52C561.219 364.64 558.926 365.2 556.366 365.2C552.952 365.2 550.152 364.16 547.966 362.08C547.699 361.813 547.432 361.52 547.166 361.2C546.952 360.827 546.712 360.32 546.446 359.68L545.326 364H531.486ZM546.686 333.36V349.76C546.899 351.2 547.432 352.347 548.286 353.2C549.139 354.053 550.206 354.48 551.486 354.48C553.459 354.48 554.926 353.467 555.886 351.44C556.846 349.413 557.326 346.267 557.326 342C557.326 333.36 555.486 329.04 551.806 329.04C550.579 329.04 549.486 329.44 548.526 330.24C547.619 331.04 547.006 332.08 546.686 333.36ZM576.294 364V319.6H591.414V364H576.294ZM576.374 315.28V301.76H591.414V315.28H576.374ZM591.873 329.52V319.6H597.073V308.08H612.033V319.6H621.873V329.52H612.033V346.72C612.033 347.36 612.033 347.92 612.033 348.4C612.033 348.827 612.06 349.173 612.113 349.44C612.273 350.72 612.833 351.707 613.793 352.4C614.753 353.093 616.033 353.44 617.633 353.44C618.38 353.44 619.046 353.413 619.633 353.36C620.273 353.253 621.02 353.093 621.873 352.88V364.16L621.473 364.24L620.433 364.4C618.993 364.667 617.766 364.853 616.753 364.96C615.74 365.067 614.7 365.12 613.633 365.12C608.033 365.12 603.766 363.627 600.833 360.64C600.14 359.947 599.553 359.227 599.073 358.48C598.593 357.68 598.22 356.8 597.953 355.84C597.686 354.827 597.473 353.707 597.313 352.48C597.206 351.253 597.153 349.813 597.153 348.16V329.52H591.873Z" fill="#0F172A"/>
<mask id="mask0_2134_31326" style="mask-type:alpha" maskUnits="userSpaceOnUse" x="-248" y="-117" width="1778" height="949">
<path d="M71 429.001C-136 541.001 -155.772 620.292 -213.5 736.001L-247 831.001L1527.4 603.428C1531.07 316.728 1533.19 -193.153 1477.59 -105.599C1408.08 3.8436 1222.59 -20.5707 1035.5 -33.9992C848.414 -47.4277 820.639 228.714 574 261.001C299 297.001 219.318 348.751 71 429.001Z" fill="#334155" stroke="black"/>
</mask>
<g mask="url(#mask0_2134_31326)">
<path d="M180.12 183.76H195.88C195.827 184.187 195.8 184.507 195.8 184.72C195.8 184.88 195.8 185.067 195.8 185.28C195.8 190.133 197.533 192.56 201 192.56C201.853 192.56 202.653 192.373 203.4 192C204.147 191.573 204.733 191.04 205.16 190.4C205.48 189.867 205.667 189.253 205.72 188.56C205.827 187.867 205.88 186.64 205.88 184.88V146.32H222.12V184.56C222.12 187.653 221.8 190.293 221.16 192.48C220.573 194.613 219.587 196.533 218.2 198.24C217.347 199.307 216.307 200.293 215.08 201.2C213.853 202.053 212.493 202.773 211 203.36C209.507 203.947 207.933 204.4 206.28 204.72C204.627 205.04 202.947 205.2 201.24 205.2C198.093 205.2 195.213 204.747 192.6 203.84C190.04 202.88 187.827 201.547 185.96 199.84C184.147 198.133 182.707 196.107 181.64 193.76C180.627 191.36 180.12 188.72 180.12 185.84V183.76ZM225.146 181.76C225.146 178.187 225.626 174.96 226.586 172.08C227.6 169.2 229.013 166.747 230.826 164.72C232.64 162.64 234.826 161.067 237.386 160C240 158.88 242.906 158.32 246.106 158.32C249.413 158.32 252.4 158.88 255.066 160C257.733 161.12 260 162.693 261.866 164.72C263.786 166.747 265.253 169.2 266.266 172.08C267.333 174.96 267.866 178.187 267.866 181.76C267.866 185.333 267.333 188.56 266.266 191.44C265.253 194.32 263.786 196.8 261.866 198.88C260 200.907 257.733 202.48 255.066 203.6C252.4 204.667 249.413 205.2 246.106 205.2C242.906 205.2 240 204.667 237.386 203.6C234.826 202.48 232.64 200.907 230.826 198.88C229.013 196.853 227.6 194.4 226.586 191.52C225.626 188.64 225.146 185.387 225.146 181.76ZM246.026 169.68C244.053 169.68 242.613 170.613 241.706 172.48C240.8 174.347 240.346 177.44 240.346 181.76C240.346 186.08 240.8 189.2 241.706 191.12C242.613 192.987 244.053 193.92 246.026 193.92C248.053 193.92 249.52 192.987 250.426 191.12C251.333 189.2 251.786 186.08 251.786 181.76C251.786 177.44 251.333 174.347 250.426 172.48C249.52 170.613 248.053 169.68 246.026 169.68ZM270.918 204V159.6H286.038V204H270.918ZM270.998 155.28V141.76H286.038V155.28H270.998ZM290.258 204V159.6H305.298V163.76L306.978 162.56C307.724 162.027 308.284 161.627 308.658 161.36C309.084 161.093 309.484 160.827 309.858 160.56C311.031 159.867 312.338 159.333 313.778 158.96C315.271 158.587 316.738 158.4 318.178 158.4C322.071 158.4 325.164 159.707 327.458 162.32C327.938 162.907 328.338 163.493 328.658 164.08C328.978 164.667 329.218 165.333 329.378 166.08C329.591 166.773 329.724 167.627 329.778 168.64C329.884 169.6 329.938 170.773 329.938 172.16V204H314.978V176.08C314.978 175.493 314.951 174.987 314.898 174.56C314.898 174.08 314.898 173.68 314.898 173.36C314.791 172.187 314.364 171.28 313.618 170.64C312.924 170 312.044 169.68 310.978 169.68C309.858 169.68 308.791 170.027 307.778 170.72C306.764 171.413 305.938 172.4 305.298 173.68V204H290.258ZM352.207 169.52V159.6H357.407V148.08H372.367V159.6H382.207V169.52H372.367V186.72C372.367 187.36 372.367 187.92 372.367 188.4C372.367 188.827 372.394 189.173 372.447 189.44C372.607 190.72 373.167 191.707 374.127 192.4C375.087 193.093 376.367 193.44 377.967 193.44C378.714 193.44 379.381 193.413 379.967 193.36C380.607 193.253 381.354 193.093 382.207 192.88V204.16L381.807 204.24L380.767 204.4C379.327 204.667 378.101 204.853 377.087 204.96C376.074 205.067 375.034 205.12 373.967 205.12C368.367 205.12 364.101 203.627 361.167 200.64C360.474 199.947 359.887 199.227 359.407 198.48C358.927 197.68 358.554 196.8 358.287 195.84C358.021 194.827 357.807 193.707 357.647 192.48C357.541 191.253 357.487 189.813 357.487 188.16V169.52H352.207ZM383.901 204V141.76H399.021V163.92C401.261 162 403.367 160.613 405.341 159.76C407.367 158.853 409.554 158.4 411.901 158.4C416.434 158.4 419.741 159.973 421.821 163.12C422.567 164.187 423.047 165.387 423.261 166.72C423.527 168.053 423.661 170.08 423.661 172.8V204H408.621V175.92V173.36C408.621 172.293 408.194 171.387 407.341 170.64C406.541 169.893 405.607 169.52 404.541 169.52C403.421 169.52 402.354 169.893 401.341 170.64C400.327 171.333 399.501 172.347 398.861 173.68V204H383.901ZM468.088 184.32H441.448C441.448 187.307 442.008 189.627 443.128 191.28C444.248 192.933 445.768 193.76 447.688 193.76C449.554 193.76 451.021 193.067 452.088 191.68C452.461 191.2 452.861 190.613 453.288 189.92C453.714 189.227 454.168 188.373 454.648 187.36L467.608 191.6C466.008 196.08 463.474 199.467 460.008 201.76C456.594 204.053 452.381 205.2 447.368 205.2C444.168 205.2 441.288 204.667 438.728 203.6C436.221 202.533 434.061 201.013 432.248 199.04C430.488 197.013 429.128 194.56 428.168 191.68C427.261 188.8 426.808 185.547 426.808 181.92C426.808 178.347 427.288 175.12 428.248 172.24C429.261 169.36 430.674 166.907 432.488 164.88C434.354 162.8 436.568 161.2 439.128 160.08C441.741 158.96 444.648 158.4 447.848 158.4C461.021 158.4 467.768 167.04 468.088 184.32ZM448.088 168.96C446.221 168.96 444.701 169.653 443.528 171.04C442.408 172.427 441.794 174.4 441.688 176.96H454.088C454.034 174.4 453.474 172.427 452.408 171.04C451.394 169.653 449.954 168.96 448.088 168.96ZM492.544 204V159.6H507.584V165.68C511.05 160.827 515.53 158.4 521.024 158.4C521.344 158.4 521.637 158.4 521.904 158.4C522.17 158.4 522.57 158.427 523.104 158.48V172.4C522.517 172.347 522.064 172.32 521.744 172.32C521.477 172.267 521.13 172.24 520.704 172.24C518.89 172.24 517.184 172.48 515.584 172.96C513.984 173.387 512.597 173.973 511.424 174.72C510.25 175.467 509.317 176.373 508.624 177.44C507.93 178.453 507.584 179.52 507.584 180.64V204H492.544ZM562.668 184.32H536.028C536.028 187.307 536.588 189.627 537.708 191.28C538.828 192.933 540.348 193.76 542.268 193.76C544.135 193.76 545.601 193.067 546.668 191.68C547.041 191.2 547.441 190.613 547.868 189.92C548.295 189.227 548.748 188.373 549.228 187.36L562.188 191.6C560.588 196.08 558.055 199.467 554.588 201.76C551.175 204.053 546.961 205.2 541.948 205.2C538.748 205.2 535.868 204.667 533.308 203.6C530.801 202.533 528.641 201.013 526.828 199.04C525.068 197.013 523.708 194.56 522.748 191.68C521.841 188.8 521.388 185.547 521.388 181.92C521.388 178.347 521.868 175.12 522.828 172.24C523.841 169.36 525.255 166.907 527.068 164.88C528.935 162.8 531.148 161.2 533.708 160.08C536.321 158.96 539.228 158.4 542.428 158.4C555.601 158.4 562.348 167.04 562.668 184.32ZM542.668 168.96C540.801 168.96 539.281 169.653 538.108 171.04C536.988 172.427 536.375 174.4 536.268 176.96H548.668C548.615 174.4 548.055 172.427 546.988 171.04C545.975 169.653 544.535 168.96 542.668 168.96ZM561.681 169.52V159.6H566.881V148.08H581.841V159.6H591.681V169.52H581.841V186.72C581.841 187.36 581.841 187.92 581.841 188.4C581.841 188.827 581.868 189.173 581.921 189.44C582.081 190.72 582.641 191.707 583.601 192.4C584.561 193.093 585.841 193.44 587.441 193.44C588.188 193.44 588.855 193.413 589.441 193.36C590.081 193.253 590.828 193.093 591.681 192.88V204.16L591.281 204.24L590.241 204.4C588.801 204.667 587.575 204.853 586.561 204.96C585.548 205.067 584.508 205.12 583.441 205.12C577.841 205.12 573.575 203.627 570.641 200.64C569.948 199.947 569.361 199.227 568.881 198.48C568.401 197.68 568.028 196.8 567.761 195.84C567.495 194.827 567.281 193.707 567.121 192.48C567.015 191.253 566.961 189.813 566.961 188.16V169.52H561.681ZM618.414 174.96L618.334 173.36C618.228 172.133 617.774 171.147 616.974 170.4C616.228 169.653 615.161 169.28 613.774 169.28C610.841 169.28 608.681 170.933 607.294 174.24L594.334 170.24C596.308 166.133 598.894 163.147 602.094 161.28C605.294 159.36 609.401 158.4 614.414 158.4C620.548 158.4 625.188 159.707 628.334 162.32C631.534 164.933 633.134 168.827 633.134 174V197.6C633.134 198.507 633.134 199.253 633.134 199.84C633.134 200.427 633.134 200.933 633.134 201.36C633.188 201.787 633.214 202.213 633.214 202.64C633.268 203.013 633.348 203.467 633.454 204H619.774L619.054 199.44C618.468 200.027 617.988 200.507 617.614 200.88C617.241 201.2 616.814 201.52 616.334 201.84C614.788 202.907 613.081 203.707 611.214 204.24C609.401 204.827 607.561 205.12 605.694 205.12C603.668 205.12 601.801 204.8 600.094 204.16C598.441 203.52 597.001 202.64 595.774 201.52C594.548 200.4 593.588 199.067 592.894 197.52C592.254 195.92 591.934 194.187 591.934 192.32C591.934 188.747 593.108 185.84 595.454 183.6C597.854 181.307 601.561 179.547 606.574 178.32L611.054 177.2C612.441 176.827 613.668 176.507 614.734 176.24C615.801 175.92 617.028 175.493 618.414 174.96ZM618.414 188.16V184C617.934 184.267 617.481 184.507 617.054 184.72C616.681 184.933 616.281 185.147 615.854 185.36C615.481 185.52 615.028 185.707 614.494 185.92C613.961 186.133 613.294 186.373 612.494 186.64C610.201 187.44 608.628 188.24 607.774 189.04C606.974 189.787 606.574 190.773 606.574 192C606.574 194.293 607.881 195.44 610.494 195.44C611.508 195.44 612.494 195.253 613.454 194.88C614.468 194.453 615.348 193.867 616.094 193.12C617.641 191.573 618.414 189.92 618.414 188.16ZM637.479 204V159.6H652.599V204H637.479ZM637.559 155.28V141.76H652.599V155.28H637.559ZM656.819 204V141.76H671.859V204H656.819ZM183.88 284V239.6H198.92V243.76C201.32 241.893 203.533 240.533 205.56 239.68C207.64 238.773 209.8 238.32 212.04 238.32C217 238.32 220.413 240.293 222.28 244.24C224.947 242.16 227.32 240.667 229.4 239.76C231.533 238.8 233.747 238.32 236.04 238.32C238.067 238.32 239.933 238.747 241.64 239.6C243.347 240.4 244.733 241.547 245.8 243.04C246.227 243.627 246.573 244.187 246.84 244.72C247.107 245.253 247.293 245.867 247.4 246.56C247.56 247.253 247.667 248.107 247.72 249.12C247.773 250.08 247.8 251.333 247.8 252.88V284H232.84V256V253.28C232.733 252.213 232.28 251.36 231.48 250.72C230.733 250.027 229.8 249.68 228.68 249.68C227.453 249.68 226.36 250.053 225.4 250.8C224.493 251.547 223.827 252.587 223.4 253.92V284H208.44V256.08L208.36 254.72C208.253 252.96 207.933 251.68 207.4 250.88C206.867 250.08 205.907 249.68 204.52 249.68C203.347 249.68 202.28 250.053 201.32 250.8C200.36 251.493 199.587 252.533 199 253.92V284H183.88ZM292.208 264.32H265.568C265.568 267.307 266.128 269.627 267.248 271.28C268.368 272.933 269.888 273.76 271.808 273.76C273.674 273.76 275.141 273.067 276.208 271.68C276.581 271.2 276.981 270.613 277.408 269.92C277.834 269.227 278.288 268.373 278.768 267.36L291.728 271.6C290.128 276.08 287.594 279.467 284.128 281.76C280.714 284.053 276.501 285.2 271.488 285.2C268.288 285.2 265.408 284.667 262.848 283.6C260.341 282.533 258.181 281.013 256.368 279.04C254.608 277.013 253.248 274.56 252.288 271.68C251.381 268.8 250.928 265.547 250.928 261.92C250.928 258.347 251.408 255.12 252.368 252.24C253.381 249.36 254.794 246.907 256.608 244.88C258.474 242.8 260.688 241.2 263.248 240.08C265.861 238.96 268.768 238.4 271.968 238.4C285.141 238.4 291.888 247.04 292.208 264.32ZM272.208 248.96C270.341 248.96 268.821 249.653 267.648 251.04C266.528 252.427 265.914 254.4 265.808 256.96H278.208C278.154 254.4 277.594 252.427 276.528 251.04C275.514 249.653 274.074 248.96 272.208 248.96ZM320.421 242.08V221.76H335.381V274.08V279.68C335.381 280.427 335.381 281.093 335.381 281.68C335.434 282.213 335.487 282.987 335.541 284H321.541L320.661 280.64C319.114 282.187 317.541 283.307 315.941 284C314.341 284.747 312.501 285.12 310.421 285.12C307.861 285.12 305.567 284.587 303.541 283.52C301.514 282.4 299.781 280.827 298.341 278.8C296.901 276.773 295.781 274.32 294.981 271.44C294.234 268.56 293.861 265.307 293.861 261.68C293.861 258.107 294.261 254.88 295.061 252C295.861 249.12 297.007 246.667 298.501 244.64C299.994 242.613 301.781 241.067 303.861 240C305.994 238.88 308.394 238.32 311.061 238.32C312.927 238.32 314.607 238.613 316.101 239.2C317.647 239.787 319.087 240.747 320.421 242.08ZM320.581 269.52V253.12C320.314 251.893 319.727 250.907 318.821 250.16C317.914 249.36 316.847 248.96 315.621 248.96C311.781 248.96 309.861 253.173 309.861 261.6C309.861 269.92 311.861 274.08 315.861 274.08C317.034 274.08 318.047 273.68 318.901 272.88C319.754 272.027 320.314 270.907 320.581 269.52ZM339.711 284V239.6H354.831V284H339.711ZM339.791 235.28V221.76H354.831V235.28H339.791ZM384.09 254.96L384.01 253.36C383.903 252.133 383.45 251.147 382.65 250.4C381.903 249.653 380.837 249.28 379.45 249.28C376.517 249.28 374.357 250.933 372.97 254.24L360.01 250.24C361.983 246.133 364.57 243.147 367.77 241.28C370.97 239.36 375.077 238.4 380.09 238.4C386.223 238.4 390.863 239.707 394.01 242.32C397.21 244.933 398.81 248.827 398.81 254V277.6C398.81 278.507 398.81 279.253 398.81 279.84C398.81 280.427 398.81 280.933 398.81 281.36C398.863 281.787 398.89 282.213 398.89 282.64C398.943 283.013 399.023 283.467 399.13 284H385.45L384.73 279.44C384.143 280.027 383.663 280.507 383.29 280.88C382.917 281.2 382.49 281.52 382.01 281.84C380.463 282.907 378.757 283.707 376.89 284.24C375.077 284.827 373.237 285.12 371.37 285.12C369.343 285.12 367.477 284.8 365.77 284.16C364.117 283.52 362.677 282.64 361.45 281.52C360.223 280.4 359.263 279.067 358.57 277.52C357.93 275.92 357.61 274.187 357.61 272.32C357.61 268.747 358.783 265.84 361.13 263.6C363.53 261.307 367.237 259.547 372.25 258.32L376.73 257.2C378.117 256.827 379.343 256.507 380.41 256.24C381.477 255.92 382.703 255.493 384.09 254.96ZM384.09 268.16V264C383.61 264.267 383.157 264.507 382.73 264.72C382.357 264.933 381.957 265.147 381.53 265.36C381.157 265.52 380.703 265.707 380.17 265.92C379.637 266.133 378.97 266.373 378.17 266.64C375.877 267.44 374.303 268.24 373.45 269.04C372.65 269.787 372.25 270.773 372.25 272C372.25 274.293 373.557 275.44 376.17 275.44C377.183 275.44 378.17 275.253 379.13 274.88C380.143 274.453 381.023 273.867 381.77 273.12C383.317 271.573 384.09 269.92 384.09 268.16ZM421.318 239.6H436.438L440.758 256.4C440.865 256.827 440.971 257.387 441.078 258.08C441.185 258.72 441.318 259.573 441.478 260.64C441.638 261.6 441.745 262.427 441.798 263.12C441.905 263.76 441.985 264.427 442.038 265.12C442.145 265.76 442.225 266.453 442.278 267.2C442.331 267.947 442.411 268.827 442.518 269.84C442.625 268.773 442.705 267.867 442.758 267.12C442.865 266.32 442.945 265.6 442.998 264.96C443.105 264.267 443.185 263.6 443.238 262.96C443.345 262.267 443.478 261.493 443.638 260.64C443.798 259.68 443.931 258.853 444.038 258.16C444.198 257.467 444.331 256.907 444.438 256.48L449.078 239.6H464.598L469.238 256.48C469.345 256.747 469.451 257.253 469.558 258C469.665 258.693 469.798 259.6 469.958 260.72C470.118 261.68 470.225 262.507 470.278 263.2C470.385 263.893 470.465 264.56 470.518 265.2C470.625 265.84 470.705 266.533 470.758 267.28C470.811 267.973 470.891 268.827 470.998 269.84C471.051 268.773 471.105 267.867 471.158 267.12C471.265 266.32 471.345 265.573 471.398 264.88C471.505 264.187 471.585 263.52 471.638 262.88C471.745 262.187 471.878 261.44 472.038 260.64C472.198 259.68 472.331 258.827 472.438 258.08C472.598 257.333 472.731 256.8 472.838 256.48L477.398 239.6H491.398L478.278 284H463.158L458.358 266.56C458.251 266.187 458.118 265.68 457.958 265.04C457.851 264.347 457.718 263.467 457.558 262.4C457.398 261.387 457.238 260.48 457.078 259.68C456.971 258.88 456.865 258.133 456.758 257.44C456.651 256.693 456.545 255.92 456.438 255.12C456.385 254.267 456.278 253.28 456.118 252.16C456.118 253.333 456.091 254.373 456.038 255.28C455.985 256.133 455.905 256.933 455.798 257.68C455.745 258.427 455.665 259.173 455.558 259.92C455.505 260.667 455.398 261.493 455.238 262.4C454.918 264.32 454.651 265.707 454.438 266.56L449.638 284H434.518L421.318 239.6ZM515.546 254.96L515.466 253.36C515.359 252.133 514.906 251.147 514.106 250.4C513.359 249.653 512.292 249.28 510.906 249.28C507.972 249.28 505.812 250.933 504.426 254.24L491.466 250.24C493.439 246.133 496.026 243.147 499.226 241.28C502.426 239.36 506.532 238.4 511.546 238.4C517.679 238.4 522.319 239.707 525.466 242.32C528.666 244.933 530.266 248.827 530.266 254V277.6C530.266 278.507 530.266 279.253 530.266 279.84C530.266 280.427 530.266 280.933 530.266 281.36C530.319 281.787 530.346 282.213 530.346 282.64C530.399 283.013 530.479 283.467 530.586 284H516.906L516.186 279.44C515.599 280.027 515.119 280.507 514.746 280.88C514.372 281.2 513.946 281.52 513.466 281.84C511.919 282.907 510.212 283.707 508.346 284.24C506.532 284.827 504.692 285.12 502.826 285.12C500.799 285.12 498.932 284.8 497.226 284.16C495.572 283.52 494.132 282.64 492.906 281.52C491.679 280.4 490.719 279.067 490.026 277.52C489.386 275.92 489.066 274.187 489.066 272.32C489.066 268.747 490.239 265.84 492.586 263.6C494.986 261.307 498.692 259.547 503.706 258.32L508.186 257.2C509.572 256.827 510.799 256.507 511.866 256.24C512.932 255.92 514.159 255.493 515.546 254.96ZM515.546 268.16V264C515.066 264.267 514.612 264.507 514.186 264.72C513.812 264.933 513.412 265.147 512.986 265.36C512.612 265.52 512.159 265.707 511.626 265.92C511.092 266.133 510.426 266.373 509.626 266.64C507.332 267.44 505.759 268.24 504.906 269.04C504.106 269.787 503.706 270.773 503.706 272C503.706 274.293 505.012 275.44 507.626 275.44C508.639 275.44 509.626 275.253 510.586 274.88C511.599 274.453 512.479 273.867 513.226 273.12C514.772 271.573 515.546 269.92 515.546 268.16ZM529.424 239.6H544.784L550.464 258.64L551.424 261.76C551.637 262.4 551.797 263.04 551.904 263.68C552.064 264.267 552.197 264.907 552.304 265.6C552.41 266.293 552.49 267.067 552.544 267.92C552.597 268.773 552.65 269.787 552.704 270.96C552.81 269.573 552.917 268.373 553.024 267.36C553.13 266.347 553.264 265.387 553.424 264.48C553.584 263.573 553.77 262.667 553.984 261.76C554.25 260.853 554.57 259.787 554.944 258.56L560.864 239.6H575.344L559.664 284H545.104L529.424 239.6ZM615.204 264.32H588.564C588.564 267.307 589.124 269.627 590.244 271.28C591.364 272.933 592.884 273.76 594.804 273.76C596.67 273.76 598.137 273.067 599.204 271.68C599.577 271.2 599.977 270.613 600.404 269.92C600.83 269.227 601.284 268.373 601.764 267.36L614.724 271.6C613.124 276.08 610.59 279.467 607.124 281.76C603.71 284.053 599.497 285.2 594.484 285.2C591.284 285.2 588.404 284.667 585.844 283.6C583.337 282.533 581.177 281.013 579.364 279.04C577.604 277.013 576.244 274.56 575.284 271.68C574.377 268.8 573.924 265.547 573.924 261.92C573.924 258.347 574.404 255.12 575.364 252.24C576.377 249.36 577.79 246.907 579.604 244.88C581.47 242.8 583.684 241.2 586.244 240.08C588.857 238.96 591.764 238.4 594.964 238.4C608.137 238.4 614.884 247.04 615.204 264.32ZM595.204 248.96C593.337 248.96 591.817 249.653 590.644 251.04C589.524 252.427 588.91 254.4 588.804 256.96H601.204C601.15 254.4 600.59 252.427 599.524 251.04C598.51 249.653 597.07 248.96 595.204 248.96ZM180.36 319.6H195.48L199.8 336.4C199.907 336.827 200.013 337.387 200.12 338.08C200.227 338.72 200.36 339.573 200.52 340.64C200.68 341.6 200.787 342.427 200.84 343.12C200.947 343.76 201.027 344.427 201.08 345.12C201.187 345.76 201.267 346.453 201.32 347.2C201.373 347.947 201.453 348.827 201.56 349.84C201.667 348.773 201.747 347.867 201.8 347.12C201.907 346.32 201.987 345.6 202.04 344.96C202.147 344.267 202.227 343.6 202.28 342.96C202.387 342.267 202.52 341.493 202.68 340.64C202.84 339.68 202.973 338.853 203.08 338.16C203.24 337.467 203.373 336.907 203.48 336.48L208.12 319.6H223.64L228.28 336.48C228.387 336.747 228.493 337.253 228.6 338C228.707 338.693 228.84 339.6 229 340.72C229.16 341.68 229.267 342.507 229.32 343.2C229.427 343.893 229.507 344.56 229.56 345.2C229.667 345.84 229.747 346.533 229.8 347.28C229.853 347.973 229.933 348.827 230.04 349.84C230.093 348.773 230.147 347.867 230.2 347.12C230.307 346.32 230.387 345.573 230.44 344.88C230.547 344.187 230.627 343.52 230.68 342.88C230.787 342.187 230.92 341.44 231.08 340.64C231.24 339.68 231.373 338.827 231.48 338.08C231.64 337.333 231.773 336.8 231.88 336.48L236.44 319.6H250.44L237.32 364H222.2L217.4 346.56C217.293 346.187 217.16 345.68 217 345.04C216.893 344.347 216.76 343.467 216.6 342.4C216.44 341.387 216.28 340.48 216.12 339.68C216.013 338.88 215.907 338.133 215.8 337.44C215.693 336.693 215.587 335.92 215.48 335.12C215.427 334.267 215.32 333.28 215.16 332.16C215.16 333.333 215.133 334.373 215.08 335.28C215.027 336.133 214.947 336.933 214.84 337.68C214.787 338.427 214.707 339.173 214.6 339.92C214.547 340.667 214.44 341.493 214.28 342.4C213.96 344.32 213.693 345.707 213.48 346.56L208.68 364H193.56L180.36 319.6ZM251.266 364V319.6H266.386V364H251.266ZM251.346 315.28V301.76H266.386V315.28H251.346ZM266.846 329.52V319.6H272.046V308.08H287.006V319.6H296.846V329.52H287.006V346.72C287.006 347.36 287.006 347.92 287.006 348.4C287.006 348.827 287.032 349.173 287.086 349.44C287.246 350.72 287.806 351.707 288.766 352.4C289.726 353.093 291.006 353.44 292.606 353.44C293.352 353.44 294.019 353.413 294.606 353.36C295.246 353.253 295.992 353.093 296.846 352.88V364.16L296.446 364.24L295.406 364.4C293.966 364.667 292.739 364.853 291.726 364.96C290.712 365.067 289.672 365.12 288.606 365.12C283.006 365.12 278.739 363.627 275.806 360.64C275.112 359.947 274.526 359.227 274.046 358.48C273.566 357.68 273.192 356.8 272.926 355.84C272.659 354.827 272.446 353.707 272.286 352.48C272.179 351.253 272.126 349.813 272.126 348.16V329.52H266.846ZM298.539 364V301.76H313.659V323.92C315.899 322 318.005 320.613 319.979 319.76C322.005 318.853 324.192 318.4 326.539 318.4C331.072 318.4 334.379 319.973 336.459 323.12C337.205 324.187 337.685 325.387 337.899 326.72C338.165 328.053 338.299 330.08 338.299 332.8V364H323.259V335.92V333.36C323.259 332.293 322.832 331.387 321.979 330.64C321.179 329.893 320.245 329.52 319.179 329.52C318.059 329.52 316.992 329.893 315.979 330.64C314.965 331.333 314.139 332.347 313.499 333.68V364H298.539ZM414.889 323.68L398.009 326C396.942 320.293 394.302 317.44 390.089 317.44C387.102 317.44 384.835 318.96 383.289 322C381.742 324.987 380.969 329.333 380.969 335.04C380.969 346.827 384.195 352.72 390.649 352.72C393.209 352.72 395.235 352 396.729 350.56C398.275 349.12 399.129 347.04 399.289 344.32H389.529V333.52H414.729V364H404.169L402.729 360C400.755 361.867 398.702 363.2 396.569 364C394.489 364.747 391.849 365.12 388.649 365.12C380.329 365.12 373.982 362.507 369.609 357.28C365.289 352 363.129 344.373 363.129 334.4C363.129 329.867 363.742 325.787 364.969 322.16C366.195 318.533 367.955 315.467 370.249 312.96C372.595 310.453 375.422 308.533 378.729 307.2C382.089 305.867 385.875 305.2 390.089 305.2C403.795 305.2 412.062 311.36 414.889 323.68ZM444.253 334.96L444.173 333.36C444.066 332.133 443.613 331.147 442.813 330.4C442.066 329.653 441 329.28 439.613 329.28C436.68 329.28 434.52 330.933 433.133 334.24L420.173 330.24C422.146 326.133 424.733 323.147 427.933 321.28C431.133 319.36 435.24 318.4 440.253 318.4C446.386 318.4 451.026 319.707 454.173 322.32C457.373 324.933 458.973 328.827 458.973 334V357.6C458.973 358.507 458.973 359.253 458.973 359.84C458.973 360.427 458.973 360.933 458.973 361.36C459.026 361.787 459.053 362.213 459.053 362.64C459.106 363.013 459.186 363.467 459.293 364H445.613L444.893 359.44C444.306 360.027 443.826 360.507 443.453 360.88C443.08 361.2 442.653 361.52 442.173 361.84C440.626 362.907 438.92 363.707 437.053 364.24C435.24 364.827 433.4 365.12 431.533 365.12C429.506 365.12 427.64 364.8 425.933 364.16C424.28 363.52 422.84 362.64 421.613 361.52C420.386 360.4 419.426 359.067 418.733 357.52C418.093 355.92 417.773 354.187 417.773 352.32C417.773 348.747 418.946 345.84 421.293 343.6C423.693 341.307 427.4 339.547 432.413 338.32L436.893 337.2C438.28 336.827 439.506 336.507 440.573 336.24C441.64 335.92 442.866 335.493 444.253 334.96ZM444.253 348.16V344C443.773 344.267 443.32 344.507 442.893 344.72C442.52 344.933 442.12 345.147 441.693 345.36C441.32 345.52 440.866 345.707 440.333 345.92C439.8 346.133 439.133 346.373 438.333 346.64C436.04 347.44 434.466 348.24 433.613 349.04C432.813 349.787 432.413 350.773 432.413 352C432.413 354.293 433.72 355.44 436.333 355.44C437.346 355.44 438.333 355.253 439.293 354.88C440.306 354.453 441.186 353.867 441.933 353.12C443.48 351.573 444.253 349.92 444.253 348.16ZM463.318 364V319.6H478.358V323.76C480.758 321.893 482.971 320.533 484.998 319.68C487.078 318.773 489.238 318.32 491.478 318.32C496.438 318.32 499.851 320.293 501.718 324.24C504.385 322.16 506.758 320.667 508.838 319.76C510.971 318.8 513.185 318.32 515.478 318.32C517.505 318.32 519.371 318.747 521.078 319.6C522.785 320.4 524.171 321.547 525.238 323.04C525.665 323.627 526.011 324.187 526.278 324.72C526.545 325.253 526.731 325.867 526.838 326.56C526.998 327.253 527.105 328.107 527.158 329.12C527.211 330.08 527.238 331.333 527.238 332.88V364H512.278V336V333.28C512.171 332.213 511.718 331.36 510.918 330.72C510.171 330.027 509.238 329.68 508.118 329.68C506.891 329.68 505.798 330.053 504.838 330.8C503.931 331.547 503.265 332.587 502.838 333.92V364H487.878V336.08L487.798 334.72C487.691 332.96 487.371 331.68 486.838 330.88C486.305 330.08 485.345 329.68 483.958 329.68C482.785 329.68 481.718 330.053 480.758 330.8C479.798 331.493 479.025 332.533 478.438 333.92V364H463.318ZM531.486 364L531.566 361.52C531.619 360.4 531.646 359.067 531.646 357.52C531.646 355.92 531.646 354.32 531.646 352.72V301.76H546.686V322.8C547.059 322.373 547.352 322.053 547.566 321.84C547.779 321.573 548.019 321.333 548.286 321.12C549.352 320.267 550.606 319.6 552.046 319.12C553.539 318.64 555.032 318.4 556.526 318.4C559.086 318.4 561.379 318.933 563.406 320C565.486 321.067 567.246 322.613 568.686 324.64C570.179 326.613 571.299 329.013 572.046 331.84C572.846 334.613 573.246 337.76 573.246 341.28C573.246 344.853 572.846 348.107 572.046 351.04C571.246 353.973 570.099 356.507 568.606 358.64C567.112 360.72 565.326 362.347 563.246 363.52C561.219 364.64 558.926 365.2 556.366 365.2C552.952 365.2 550.152 364.16 547.966 362.08C547.699 361.813 547.432 361.52 547.166 361.2C546.952 360.827 546.712 360.32 546.446 359.68L545.326 364H531.486ZM546.686 333.36V349.76C546.899 351.2 547.432 352.347 548.286 353.2C549.139 354.053 550.206 354.48 551.486 354.48C553.459 354.48 554.926 353.467 555.886 351.44C556.846 349.413 557.326 346.267 557.326 342C557.326 333.36 555.486 329.04 551.806 329.04C550.579 329.04 549.486 329.44 548.526 330.24C547.619 331.04 547.006 332.08 546.686 333.36ZM576.294 364V319.6H591.414V364H576.294ZM576.374 315.28V301.76H591.414V315.28H576.374ZM591.873 329.52V319.6H597.073V308.08H612.033V319.6H621.873V329.52H612.033V346.72C612.033 347.36 612.033 347.92 612.033 348.4C612.033 348.827 612.06 349.173 612.113 349.44C612.273 350.72 612.833 351.707 613.793 352.4C614.753 353.093 616.033 353.44 617.633 353.44C618.38 353.44 619.046 353.413 619.633 353.36C620.273 353.253 621.02 353.093 621.873 352.88V364.16L621.473 364.24L620.433 364.4C618.993 364.667 617.766 364.853 616.753 364.96C615.74 365.067 614.7 365.12 613.633 365.12C608.033 365.12 603.766 363.627 600.833 360.64C600.14 359.947 599.553 359.227 599.073 358.48C598.593 357.68 598.22 356.8 597.953 355.84C597.686 354.827 597.473 353.707 597.313 352.48C597.206 351.253 597.153 349.813 597.153 348.16V329.52H591.873Z" fill="#059669"/>
</g>
<g clip-path="url(#clip1_2134_31326)">
<rect width="880" height="1026" transform="translate(0 -2)" fill="white"/>
</g>
<rect x="36" y="728.057" width="28.0105" height="74.4029" rx="14.0053" transform="rotate(-75 36 728.057)" fill="#7EBE9E"/>
<rect x="412" y="724.057" width="28.0105" height="74.4029" rx="14.0053" transform="rotate(-75 412 724.057)" fill="#7EBE9E"/>
<rect x="822" y="644.057" width="28.0105" height="74.4029" rx="14.0053" transform="rotate(-75 822 644.057)" fill="#7EBE9E"/>
<rect x="223.464" y="832.777" width="28.0105" height="74.4029" rx="14.0053" transform="rotate(-111.936 223.464 832.777)" fill="#FAB256"/>
<rect x="642.464" y="765.777" width="28.0105" height="74.4029" rx="14.0053" transform="rotate(-111.936 642.464 765.777)" fill="#FAB256"/>
<rect x="522.934" y="1003.13" width="28.0105" height="74.4029" rx="14.0053" transform="rotate(-148.701 522.934 1003.13)" fill="#A5C14C"/>
<rect x="277.379" y="1023.5" width="28.0105" height="74.4029" rx="14.0053" transform="rotate(120.268 277.379 1023.5)" fill="#E25A7A"/>
<rect x="740.379" y="931.502" width="28.0105" height="74.4029" rx="14.0053" transform="rotate(120.268 740.379 931.502)" fill="#E25A7A"/>
<rect x="67.6611" y="924.842" width="28.0105" height="74.4029" rx="14.0053" transform="rotate(-147.644 67.6611 924.842)" fill="#32A9E0"/>
<rect x="539.01" y="637.453" width="28.0105" height="74.4029" rx="14.0053" transform="rotate(-108.762 539.01 637.453)" fill="#32A9E0"/>
<rect x="403.278" y="940.412" width="28.0105" height="74.4029" rx="14.0053" transform="rotate(-146.207 403.278 940.412)" fill="#32A9E0"/>
<rect x="853.278" y="856.412" width="28.0105" height="74.4029" rx="14.0053" transform="rotate(-146.207 853.278 856.412)" fill="#32A9E0"/>
</g>
<defs>
<clipPath id="clip0_2134_31326">
<rect width="880" height="1024" fill="white"/>
</clipPath>
<clipPath id="clip1_2134_31326">
<rect width="880" height="1026" fill="white" transform="translate(0 -2)"/>
</clipPath>
</defs>
</svg>
