<?xml version="1.0" encoding="UTF-8"?>
<svg id="Layer_1" xmlns="http://www.w3.org/2000/svg" xmlns:xlink="http://www.w3.org/1999/xlink" version="1.1" viewBox="0 0 276.5 151">
  <!-- Generator: Adobe Illustrator 29.5.1, SVG Export Plug-In . SVG Version: 2.1.0 Build 141)  -->
  <defs>
    <style>
      .st0 {
        fill: none;
      }

      .st1 {
        fill: #e6496b;
      }

      .st1, .st2, .st3, .st4, .st5, .st6, .st7, .st8, .st9, .st10, .st11, .st12 {
        fill-rule: evenodd;
      }

      .st2 {
        fill: #ced51a;
      }

      .st3 {
        fill: #0085c5;
      }

      .st4 {
        fill: #ec773b;
      }

      .st5 {
        fill: #93be34;
      }

      .st6 {
        fill: #00a1de;
      }

      .st7 {
        fill: #eae11d;
      }

      .st13 {
        clip-path: url(#clippath-1);
      }

      .st8 {
        fill: #67ba98;
      }

      .st9 {
        fill: #e21c19;
      }

      .st10 {
        fill: #42bbd2;
      }

      .st11 {
        fill: #f7b142;
      }

      .st14 {
        clip-path: url(#clippath);
      }

      .st12 {
        fill: #002948;
      }
    </style>
    <clipPath id="clippath">
      <rect class="st0" x="18.8" y="18.4" width="240.9" height="113.3"/>
    </clipPath>
    <clipPath id="clippath-1">
      <rect class="st0" x="18.8" y="18.4" width="240.9" height="113.3"/>
    </clipPath>
  </defs>
  <g class="st14">
    <g class="st13">
      <path class="st7" d="M164.3,104.4c-4.4,0-8-3.5-8-7.9V27.6c0-4.4,3.6-7.9,8-7.9s8,3.5,8,7.9v68.9c0,4.4-3.6,7.9-8,7.9"/>
      <path class="st2" d="M129.4,80.9c-1.7,0-3.4-.5-4.8-1.6-3.5-2.6-4.2-7.6-1.5-11.1l34.8-45.4c2.7-3.5,7.7-4.2,11.2-1.5,3.5,2.6,4.2,7.6,1.5,11.1l-34.8,45.4c-1.6,2-3.9,3.1-6.4,3.1"/>
      <path class="st8" d="M95,104.4c-4.4,0-8-3.5-8-7.9v-23.6c0-4.4,3.6-7.9,8-7.9s8,3.5,8,7.9v23.6c0,4.4-3.6,7.9-8,7.9"/>
      <path class="st5" d="M129.4,80.9c-2.5,0-4.9-1.1-6.4-3.2l-33.7-45.4c-2.6-3.5-1.9-8.5,1.7-11.1,3.6-2.6,8.5-1.8,11.2,1.7l33.7,45.4c2.6,3.5,1.9,8.5-1.7,11.1-1.4,1-3.1,1.5-4.7,1.5"/>
      <polygon class="st12" points="207.8 76.4 208.3 74.3 210.2 73.7 214.7 65.1 208.2 68.3 202.7 68.3 200.9 71.5 202.7 74.3 202.3 76.4 195.6 76.4 196.1 74.5 197.9 73.5 196.2 69.4 192.4 74.5 192.9 76.4 186.9 76.4 187.7 73.8 188.8 73.3 191.5 69.1 190.4 65.3 188.3 66.3 191.4 57.3 190 55.3 190.8 54.1 192.9 55.7 194.2 53.7 189.3 53.7 189.3 54.7 187.9 54.7 188.1 52.6 194 52.6 193.8 51.7 190.6 52.2 189.8 49.4 193.7 49.3 193.9 48.5 199.1 48.4 202.5 47.4 201.4 50.9 202.6 49.9 203 59.1 219.7 59.1 219.7 57 205.4 57 204.9 52.7 205.4 48.5 222.5 48.5 222.5 53 220.4 50.6 207.3 50.6 207.1 52.7 207.3 54.9 220.4 54.9 222.5 56.6 222.5 64 224.5 72.1 223 76.4 216.8 76.4 217.6 74.3 219.7 73.8 220.5 72 218 69.3 214.5 74.2 214.2 76.4 207.8 76.4"/>
      <path class="st9" d="M251.7,54.1c-4.4,0-8,3.5-8,7.9,0,15.4-10.2,26.5-24.3,26.5s-8,3.5-8,7.9,3.6,7.9,8,7.9c23,0,40.3-18.2,40.3-42.4s-3.6-7.9-8-7.9"/>
      <path class="st4" d="M219.4,19.7c-4.4,0-8,3.5-8,7.9s3.6,7.9,8,7.9c14.1,0,24.3,11.2,24.3,26.5s3.6,7.9,8,7.9,8-3.5,8-7.9c0-24.2-17.3-42.4-40.3-42.4"/>
      <path class="st11" d="M219.6,19.7h-31.4c-4.4,0-8,3.5-8,7.9s3.6,7.9,8,7.9h31.4c4.4,0,8-3.5,8-7.9s-3.6-7.9-8-7.9"/>
      <path class="st1" d="M219.6,88.6h-31.5c-4.4,0-8,3.5-8,7.9s3.6,7.9,8,7.9h31.5c4.4,0,8-3.5,8-7.9s-3.6-7.9-8-7.9"/>
      <path class="st10" d="M61.5,80.9c-1.7,0-3.4-.5-4.8-1.6-3.5-2.6-4.2-7.6-1.5-11.1l34.2-45.4c2.7-3.5,7.7-4.2,11.2-1.5s4.2,7.6,1.5,11.1l-34.2,45.4c-1.6,2-3.9,3.1-6.4,3.1"/>
      <path class="st3" d="M27.9,103.7c-4.4,0-8-3.5-8-7.9V26.9c0-4.4,3.6-7.9,8-7.9s8,3.5,8,7.9v68.9c0,4.4-3.6,7.9-8,7.9"/>
      <path class="st6" d="M61.5,80.9c-2.5,0-4.9-1.1-6.4-3.2L21.4,31.6c-2.6-3.5-1.9-8.5,1.7-11.1,3.6-2.6,8.5-1.8,11.2,1.7l33.7,46.1c2.6,3.5,1.9,8.5-1.7,11.1-1.4,1-3.1,1.5-4.7,1.5"/>
      <path class="st12" d="M258.9,126.2c0,.5-.4.9-.9.9s-.9-.4-.9-.9.4-.9.9-.9.9.4.9.9ZM254.8,121.7v-.7c0-1.3-.8-2-2-2s-2,.8-2,2v.7h4.1ZM255.2,122.8h-4.5v1c0,1.3.8,2.1,2,2.1s1.4-.2,2-.5c0,0,.2,0,.2,0,.3,0,.6.2.6.6s-.1.4-.3.5c-.8.4-1.7.6-2.5.6-2,0-3.3-1.3-3.3-3.3v-2.8c0-1.9,1.3-3.3,3.3-3.3s3.2,1.3,3.2,3.3v.9c0,.5-.4.8-.8.8ZM245.1,126.5v-6.2c0-1.5,1.1-2.5,2.3-2.5s.9,0,1.3.1c.3,0,.5.3.5.6s-.3.6-.6.6-.2,0-.3,0c-.3,0-.6,0-.9,0-.6,0-1.1.5-1.1,1.2v6.3c0,.3-.3.6-.6.6s-.6-.3-.6-.6ZM242.2,125.7v-2.9h-2c-1.8,0-2,.9-2,1.6s.2,1.6,2,1.6,1.4-.1,2-.3ZM243.4,120.5v5.3c0,.4-.2.7-.6.8-.9.3-1.7.4-2.7.4s-1.9-.3-2.5-.8c-.5-.5-.8-1.1-.8-2s.3-1.5.8-2c.6-.5,1.4-.7,2.5-.7h2v-1.1c0-1-.8-1.6-1.9-1.6s-1.4.2-2,.6c0,0-.2,0-.3,0-.3,0-.6-.2-.6-.6s.1-.4.3-.5c.8-.5,1.8-.7,2.6-.7,1.7,0,3.1.9,3.1,2.7ZM228.5,128.3l.4-1.4-3-8.3c0,0,0-.1,0-.2,0-.3.2-.6.6-.6s.5.1.6.4l2.4,7,2.1-6.9c0-.2.3-.4.6-.4s.6.2.6.6,0,.1,0,.2l-3.2,10c-.4,1.3-1.6,2.2-3.1,2.2s-.6-.2-.6-.6.3-.6.6-.6c1,0,1.7-.5,2-1.4ZM224.1,121.7v-.7c0-1.3-.8-2-2-2s-2,.8-2,2v.7h4.1ZM224.5,122.8h-4.5v1c0,1.3.8,2.1,2,2.1s1.4-.2,2-.5c0,0,.2,0,.2,0,.3,0,.6.2.6.6s-.1.4-.3.5c-.8.4-1.7.6-2.5.6-2,0-3.3-1.3-3.3-3.3v-2.8c0-1.9,1.3-3.3,3.3-3.3s3.2,1.3,3.2,3.3v.9c0,.5-.4.8-.8.8ZM216.3,126.5v-5.5c0-1.3-.8-2-2-2s-1.5.3-2,.8v6.7c0,.3-.3.6-.6.6s-.6-.3-.6-.6v-11.6c0-.3.3-.6.6-.6s.6.3.6.6v3.5c.6-.3,1.3-.5,2-.5,1.9,0,3.2,1.3,3.2,3.3v5.4c0,.3-.3.6-.6.6s-.6-.3-.6-.6ZM206,124.7v-9.8c0-.3.3-.6.6-.6s.6.3.6.6v3.1h2c.3,0,.6.2.6.6s-.3.6-.6.6h-2v5.5c0,.8.5,1.2,1.1,1.2s.8,0,.9,0,.6.2.6.6-.2.5-.5.6c-.3,0-.7,0-1,0-1.3,0-2.3-1-2.3-2.4ZM199.6,121.7v-.7c0-1.3-.8-2-2-2s-2,.8-2,2v.7h4.1ZM200,122.8h-4.5v1c0,1.3.8,2.1,2,2.1s1.4-.2,2-.5c0,0,.2,0,.2,0,.3,0,.6.2.6.6s-.1.4-.3.5c-.8.4-1.7.6-2.5.6-2,0-3.3-1.3-3.3-3.3v-2.8c0-1.9,1.3-3.3,3.3-3.3s3.2,1.3,3.2,3.3v.9c0,.5-.4.8-.8.8ZM189.9,126.5v-6.2c0-1.5,1.1-2.5,2.3-2.5s.9,0,1.3.1c.3,0,.5.3.5.6s-.3.6-.6.6-.2,0-.3,0c-.3,0-.6,0-.9,0-.6,0-1.1.5-1.1,1.2v6.3c0,.3-.3.6-.6.6s-.6-.3-.6-.6ZM187.2,121.7v-.7c0-1.3-.8-2-2-2s-2,.8-2,2v.7h4.1ZM187.6,122.8h-4.5v1c0,1.3.8,2.1,2,2.1s1.4-.2,2-.5c0,0,.2,0,.2,0,.3,0,.6.2.6.6s-.1.4-.3.5c-.8.4-1.7.6-2.5.6-2,0-3.3-1.3-3.3-3.3v-2.8c0-1.9,1.3-3.3,3.3-3.3s3.2,1.3,3.2,3.3v.9c0,.5-.4.8-.8.8ZM179.4,126.5v-5.5c0-1.3-.8-2-2-2s-1.5.3-2,.8v6.7c0,.3-.3.6-.6.6s-.6-.3-.6-.6v-11.6c0-.3.3-.6.6-.6s.6.3.6.6v3.5c.6-.3,1.3-.5,2-.5,1.9,0,3.2,1.3,3.2,3.3v5.4c0,.3-.3.6-.6.6s-.6-.3-.6-.6ZM169.3,126.6l-1.8-6.5-1.8,6.5c0,.3-.4.5-.7.5s-.6-.2-.7-.5l-2.4-8c0,0,0-.1,0-.2,0-.3.2-.6.6-.6s.5.2.6.4l1.9,6.6,1.8-6.5c0-.3.4-.5.7-.5s.6.2.7.5l1.8,6.5,1.9-6.6c0-.3.3-.4.6-.4s.6.2.6.6,0,.1,0,.2l-2.4,8c0,.3-.4.5-.7.5s-.6-.2-.7-.5ZM155.8,123.2l-1.7-.7c-.8-.4-1.5-1-1.5-2.3s1.3-2.4,2.9-2.4,1.6.2,2.2.4c.2.1.4.3.4.6s-.3.6-.6.6-.1,0-.2,0c-.5-.2-1.2-.4-1.9-.4s-1.5.3-1.5,1.2.5,1.1.9,1.2l1.7.7c1.1.4,1.8,1.3,1.8,2.4s-1.2,2.6-2.8,2.6-1.7-.2-2.3-.5c-.2-.1-.4-.3-.4-.6s.2-.6.6-.6.2,0,.2,0c.6.2,1.2.4,1.9.4s1.6-.5,1.6-1.3-.4-1.1-1.1-1.5ZM148.1,126.5v-6.2c0-1.5,1.1-2.5,2.3-2.5s.9,0,1.3.1c.3,0,.5.3.5.6s-.3.6-.6.6-.2,0-.3,0c-.3,0-.6,0-.9,0-.6,0-1.1.5-1.1,1.2v6.3c0,.3-.3.6-.6.6s-.6-.3-.6-.6ZM145.4,121.7v-.7c0-1.3-.8-2-2-2s-2,.8-2,2v.7h4.1ZM145.8,122.8h-4.5v1c0,1.3.8,2.1,2,2.1s1.4-.2,2-.5c0,0,.2,0,.2,0,.3,0,.6.2.6.6s-.1.4-.3.5c-.8.4-1.7.6-2.5.6-2,0-3.3-1.3-3.3-3.3v-2.8c0-1.9,1.3-3.3,3.3-3.3s3.2,1.3,3.2,3.3v.9c0,.5-.4.8-.8.8ZM137.6,126.5v-5.7c0-1-.8-1.9-1.8-1.9s-1.3.2-1.9.6v6.9c0,.3-.3.6-.6.6s-.6-.3-.6-.6v-6.3c0-.8-.8-1.3-1.6-1.3s-1.4.1-2.1.3v7.2c0,.3-.3.6-.6.6s-.6-.3-.6-.6v-7.4c0-.3.2-.6.5-.8.9-.3,1.8-.5,2.8-.5s1.6.3,2.1.8c.7-.5,1.6-.8,2.5-.8,1.7,0,3,1.4,3,3.1v5.6c0,.3-.3.6-.6.6s-.6-.3-.6-.6ZM125.1,123.7v-2.6c0-1.4-.8-2.2-2.2-2.2s-2.2.8-2.2,2.2v2.6c0,1.4.8,2.2,2.2,2.2s2.2-.8,2.2-2.2ZM126.3,121.3v2.4c0,2-1.4,3.4-3.4,3.4s-3.4-1.4-3.4-3.4v-2.4c0-2,1.4-3.4,3.4-3.4s3.4,1.4,3.4,3.4ZM114.9,124.7v-9.8c0-.3.3-.6.6-.6s.6.3.6.6v3.1h2c.3,0,.6.2.6.6s-.3.6-.6.6h-2v5.5c0,.8.5,1.2,1.1,1.2s.8,0,.9,0,.6.2.6.6-.2.5-.5.6c-.3,0-.7,0-1,0-1.3,0-2.3-1-2.3-2.4ZM111.2,123.2l-1.7-.7c-.8-.4-1.5-1-1.5-2.3s1.3-2.4,2.9-2.4,1.6.2,2.2.4c.2.1.4.3.4.6s-.3.6-.6.6-.1,0-.2,0c-.5-.2-1.2-.4-1.9-.4s-1.5.3-1.5,1.2.5,1.1.9,1.2l1.7.7c1.1.4,1.8,1.3,1.8,2.4s-1.2,2.6-2.8,2.6-1.7-.2-2.4-.5c-.2-.1-.4-.3-.4-.6s.2-.6.6-.6.2,0,.2,0c.6.2,1.2.4,1.9.4s1.6-.5,1.6-1.3-.4-1.1-1.1-1.5ZM105.4,125.7v-7.2c0-.3.3-.6.6-.6s.6.3.6.6v7.4c0,.4-.2.7-.6.8-.9.3-1.8.4-2.7.4-2,0-3.3-1.3-3.3-3.3v-5.4c0-.3.3-.6.6-.6s.6.3.6.6v5.5c0,1.3.8,2,2,2s1.4-.1,2-.3ZM93.2,123.8v-2.8c0-1.9,1.3-3.3,3.3-3.3s1.6.2,2.3.5c.2.1.3.3.3.5,0,.3-.3.6-.6.6s-.2,0-.3,0c-.6-.3-1.2-.5-1.8-.5-1.3,0-2,.8-2,2v2.9c0,1.3.8,2,2,2s1.3-.2,1.8-.4c0,0,.2,0,.3,0,.3,0,.6.2.6.6s-.1.4-.3.5c-.7.4-1.5.5-2.3.5-2,0-3.3-1.3-3.3-3.3ZM84.8,126.5v-6.2c0-1.5,1.1-2.5,2.3-2.5s.9,0,1.3.1c.3,0,.5.3.5.6s-.3.6-.6.6-.2,0-.3,0c-.3,0-.6,0-.9,0-.6,0-1.1.5-1.1,1.2v6.3c0,.3-.3.6-.6.6s-.6-.3-.6-.6ZM81.8,125.7v-7.2c0-.3.3-.6.6-.6s.6.3.6.6v7.4c0,.4-.2.7-.6.8-.9.3-1.8.4-2.7.4-2,0-3.3-1.3-3.3-3.3v-5.4c0-.3.3-.6.6-.6s.6.3.6.6v5.5c0,1.3.8,2,2,2s1.4-.1,2-.3ZM73.9,123.7v-2.6c0-1.4-.8-2.2-2.2-2.2s-2.2.8-2.2,2.2v2.6c0,1.4.8,2.2,2.2,2.2s2.2-.8,2.2-2.2ZM75.1,121.3v2.4c0,2-1.4,3.4-3.4,3.4s-3.4-1.4-3.4-3.4v-2.4c0-2,1.4-3.4,3.4-3.4s3.4,1.4,3.4,3.4ZM63.5,128.3l.4-1.4-3-8.3c0,0,0-.1,0-.2,0-.3.2-.6.6-.6s.5.1.6.4l2.4,7,2.1-6.9c0-.2.3-.4.6-.4s.6.2.6.6,0,.1,0,.2l-3.2,10c-.4,1.3-1.6,2.2-3.1,2.2s-.6-.2-.6-.6.3-.6.6-.6c1,0,1.7-.5,2-1.4ZM55.1,126.5v-5.5c0-1.3-.8-2-2-2s-1.5.3-2,.8v6.7c0,.3-.3.6-.6.6s-.6-.3-.6-.6v-11.6c0-.3.3-.6.6-.6s.6.3.6.6v3.5c.6-.3,1.3-.5,2-.5,1.9,0,3.2,1.3,3.2,3.3v5.4c0,.3-.3.6-.6.6s-.6-.3-.6-.6ZM42.8,123.8v-2.8c0-1.9,1.3-3.3,3.3-3.3s1.6.2,2.3.5c.2.1.3.3.3.5,0,.3-.3.6-.6.6s-.2,0-.3,0c-.6-.3-1.2-.5-1.8-.5-1.3,0-2,.8-2,2v2.9c0,1.3.8,2,2,2s1.3-.2,1.8-.4c0,0,.2,0,.3,0,.3,0,.6.2.6.6s-.1.4-.3.5c-.7.4-1.5.5-2.3.5-2,0-3.3-1.3-3.3-3.3ZM40.2,125.7v-2.9h-2c-1.8,0-2,.9-2,1.6s.2,1.6,2,1.6,1.4-.1,2-.3ZM41.4,120.5v5.3c0,.4-.2.7-.6.8-.9.3-1.7.4-2.7.4s-1.9-.3-2.5-.8c-.5-.5-.8-1.1-.8-2s.3-1.5.8-2c.6-.5,1.4-.7,2.5-.7h2v-1.1c0-1-.8-1.6-1.9-1.6s-1.4.2-2,.6c0,0-.2,0-.3,0-.3,0-.6-.2-.6-.6s.1-.4.3-.5c.8-.5,1.8-.7,2.6-.7,1.7,0,3.1.9,3.1,2.7ZM32.8,121.7v-.7c0-1.3-.8-2-2-2s-2,.8-2,2v.7h4.1ZM33.2,122.8h-4.5v1c0,1.3.8,2.1,2,2.1s1.4-.2,2-.5c0,0,.2,0,.2,0,.3,0,.6.2.6.6s-.1.4-.3.5c-.8.4-1.7.6-2.5.6-2,0-3.3-1.3-3.3-3.3v-2.8c0-1.9,1.3-3.3,3.3-3.3s3.2,1.3,3.2,3.3v.9c0,.5-.4.8-.8.8ZM20.5,120.2h2.7c.7,0,1.3-.2,1.7-.6.4-.4.6-.9.6-1.6s-.2-1.3-.6-1.7c-.4-.4-1-.6-1.7-.6h-2.7v4.5ZM25.6,126.8l-3.1-5.4h-2.1v5.1c0,.3-.3.6-.6.6s-.6-.3-.6-.6v-11.2c0-.5.4-.8.8-.8h3.2c1,0,1.9.3,2.5.9.6.6,1,1.5,1,2.6,0,1.8-1.1,3.1-2.8,3.3l2.8,4.9c0,0,0,.2,0,.3,0,.2-.1.4-.3.5,0,0-.2,0-.3,0-.2,0-.4-.1-.5-.3Z"/>
    </g>
  </g>
</svg>